<?xml version="1.0" encoding="UTF-8"?><svg id="Capa_2" xmlns="http://www.w3.org/2000/svg" viewBox="0 0 148.68 119.33"><defs><style>.cls-1{fill:#fff;}</style></defs><g id="Capa_1-2"><g><path class="cls-1" d="M49.08,53.38c0,16.02,.01,32.03-.02,48.05,0,1.63,.65,3.74-1.13,4.63-2.24,1.13-3.21-1.27-4.41-2.46-6.22-6.18-12.26-12.53-18.52-18.67-2.08-2.05-3.03-4.21-3.01-7.13,.08-17.2,.09-34.39,0-51.59-.02-3.28,.96-5.92,3.42-8.05,6.37-5.52,12.73-11.05,19.11-16.55,1-.86,2.04-2.08,3.51-1.41,1.56,.71,1.02,2.34,1.02,3.62,.03,16.52,.02,33.04,.02,49.56Z"/><path class="cls-1" d="M3.96,116.79c47.81-2.23,95.46-7.15,144.72-8.58-8.49,6.53-16.72,10.44-26.13,10.64-38.75,.83-77.51,.41-116.26-.03-.77,0-1.54-.3-2.31-.46,0-.53,0-1.05-.01-1.58Z"/><path class="cls-1" d="M69.05,106.86c-4.29-1.03-5.61-3.25-5.38-7.06,.44-7.56-.6-15.19,.52-22.72,1.4-9.37,9.9-14.39,18.76-11.35,7.02,2.41,11.19,10.66,9.13,18.07-2.18,7.81-9.37,12-17.26,10.03-.65-.16-1.26-.46-1.9-.67-2.19-.72-2.1-2.55-1.71-4.17,.59-2.38,2.07-.65,3.15-.39,6.92,1.71,11.56-.74,12.83-6.83,1.17-5.57-2.24-10.86-7.59-11.79-5.23-.91-9.82,2.64-10.25,8.59-.43,6.04-.23,12.13-.28,18.19-.03,3.2,0,6.4,0,10.08Z"/><path class="cls-1" d="M111.58,84.2c-1.04-3.49-.4-5.56,2.54-6.73,1.39-.56,2.74-1.34,3.93-2.26,1.34-1.04,4.36-1.07,3.71-3.23-.57-1.9-3.23-2.11-5.31-2.09-4.68,.05-8.24,3.3-8.86,8.03-.68,5.26,1.74,9.65,6.03,10.93,5.01,1.5,9.47-.15,11.23-4.98,1.1-3.04,2.9-3.95,5.18-2.7,2.48,1.36,.39,3.66-.32,5.23-2.65,5.86-9.17,8.79-16.12,7.58-6.16-1.07-11.03-6.5-11.63-12.96-.64-6.87,3.4-13.12,9.9-15.33,6.23-2.11,12.84,.04,16.59,5.27,1.26,1.75,1.88,2.93-.64,4.24-5.35,2.77-10.56,5.83-16.22,9Z"/><path class="cls-1" d="M52.4,30.81c0-1.68,.03-3.36,0-5.04-.06-2.93,1.41-4.33,4.28-4.36,.5,0,1.01-.02,1.51,0,16.19,.23,13.76-2.56,13.9,15.43,.02,2.65-1.36,4.04-4.03,4.06-3.36,.02-6.72-.11-10.07,.06-4.07,.21-6.01-1.41-5.61-5.6,.14-1.5,.02-3.02,.03-4.53Z"/><path class="cls-1" d="M138.63,51.21c0,13.72-.02,26.63,.02,39.54,0,1.93-.32,3.18-2.72,3.14-2.51-.04-2.54-1.52-2.53-3.33,.03-11.07,.11-22.15-.04-33.22-.05-3.44,2.16-4.46,5.27-6.13Z"/><path class="cls-1" d="M0,40.17c5.78-5.01,10.93-9.54,16.14-13.99,1.89-1.62,2.62-.69,2.59,1.41,0,.17,0,.34,0,.5,.86,13.12-1.56,14.82-18.73,12.07Z"/><path class="cls-1" d="M56.15,79.79c0-3.88,.06-7.75-.03-11.63-.04-1.91,.6-2.68,2.6-2.66,1.97,.01,2.63,.73,2.62,2.67-.07,7.75-.07,15.5,0,23.25,.02,2.17-1.12,2.41-2.86,2.44-1.81,.02-2.35-.81-2.34-2.44,.04-3.88,.01-7.75,.01-11.63Z"/><path class="cls-1" d="M99.94,79.76c0,3.7-.06,7.41,.03,11.11,.05,2.04-.46,3.1-2.81,3.02-2.2-.07-2.39-1.25-2.38-2.94,.03-7.58,.06-15.15,0-22.73-.02-1.89,.56-2.7,2.57-2.71,1.98-.01,2.66,.7,2.62,2.64-.09,3.87-.03,7.74-.02,11.62Z"/><path class="cls-1" d="M58.85,62.43c-2.18-.33-3.41-1.45-3.28-3.35,.13-1.9,1.47-2.95,3.42-2.81,1.75,.12,2.68,1.21,2.68,2.97,0,2.03-1.23,2.9-2.82,3.2Z"/><path class="cls-1" d="M97.53,62.41c-1.92-.14-3.11-1.14-3.17-3.11-.05-1.71,.84-2.84,2.63-3.03,2.03-.22,3.28,.91,3.48,2.74,.2,1.89-1,3.06-2.94,3.4Z"/></g></g></svg>