<?xml version="1.0" encoding="UTF-8"?><svg id="Capa_2" xmlns="http://www.w3.org/2000/svg" viewBox="0 0 85.04 37.62"><defs><style>.cls-1{fill:#fff;}</style></defs><g id="Capa_1-2"><g><path class="cls-1" d="M32.2,11.36c-3.57,0-6.39,2.85-6.39,6.35s2.81,6.4,6.39,6.4,6.5-2.85,6.5-6.4-2.98-6.35-6.5-6.35m-.05-3.86c6.11,0,10.27,4.75,10.27,10.15s-4.7,10.13-10.36,9.97c-2.17-.06-4.38-.95-5.81-2.07v9.87c-.02,1.37-.91,2.19-2.01,2.19-1.2,0-2.01-.99-2.01-2.19V17.3c0-5.33,4.39-9.79,9.93-9.79"/><path class="cls-1" d="M9.92,11.04c-2.34,.03-4.64,1.4-5.56,3.36-.28,.59,.07,1.1,.72,1.1H14.73c.64,0,.76-.66,.46-1.23-.96-1.84-2.86-3.24-5.27-3.23m-5.71,9.17c.63,1.87,3.02,3.79,5.63,3.78,1.48,0,2.95-.33,4.35-1.3,2.22-1.54,4.09,1.25,2.41,2.67-1.74,1.42-4.44,2.3-6.83,2.27-5.63-.06-9.76-4.63-9.76-10.12S4.33,7.65,9.78,7.51c4.09-.11,7.17,2.36,8.6,4.88,1.43,2.54,1.83,6.48-1.97,6.5H4.89c-1.08,0-.87,.77-.69,1.32"/><path class="cls-1" d="M77.54,3.75c0-2.07,1.68-3.75,3.75-3.75s3.75,1.68,3.75,3.75-1.68,3.75-3.75,3.75-3.75-1.68-3.75-3.75m.34,0c0,1.88,1.53,3.41,3.41,3.41s3.41-1.53,3.41-3.41-1.53-3.41-3.41-3.41-3.41,1.53-3.41,3.41"/><path class="cls-1" d="M80.47,2.33h.66c.4,0,.8,.09,.8,.6s-.4,.6-.8,.6h-.66v-1.2Zm-.5,3.28h.5v-1.64h.56l.95,1.64h.63l-1.05-1.7c.56-.06,.91-.51,.91-.98s-.24-1.04-1.19-1.04h-1.31v3.72Z"/><path class="cls-1" d="M58.75,21.52v-4.72c0-2.6-2.11-4.71-4.71-4.71-2.45,0-4.72,1.96-4.71,4.71v4.71c0,1.23-1,2.22-2.23,2.22s-2.28-.99-2.22-2.22l.02-4.37c.15-6.46,4.77-9.44,9.1-9.55,2.98,0,5.38,1.29,6.91,3.23,1.99-2.46,4.74-3.3,6.93-3.3,5.41,0,9.43,4.66,9.64,10.05,.19,4.84-1.76,12.92-12.09,16.97-1.56,.47-3.02-.74-2.89-2.21,.07-.81,.48-1.75,1.8-2.13,8.52-2.43,9.39-10.25,8.99-12.95-.44-2.95-2.18-5.11-5.35-5.16-2.75-.04-4.87,2.09-4.87,4.71v4.72c.02,1.25-.97,2.21-2.17,2.21s-2.21-.94-2.16-2.21"/></g></g></svg>