<?xml version="1.0" encoding="UTF-8"?><svg id="Capa_2" xmlns="http://www.w3.org/2000/svg" viewBox="0 0 76.06 42.52"><defs><style>.cls-1{fill:#fff;}</style></defs><g id="Capa_1-2"><g><path class="cls-1" d="M21.12,16.47c.57,0,1.09,.09,1.56,.27,.48,.18,.89,.45,1.23,.79,.35,.35,.61,.78,.81,1.28,.19,.51,.29,1.08,.29,1.73,0,.17,0,.3-.02,.41-.02,.11-.04,.19-.08,.25-.04,.06-.09,.11-.15,.13-.06,.03-.14,.04-.24,.04h-5.56c.07,.92,.31,1.6,.75,2.03,.43,.43,1.01,.65,1.72,.65,.35,0,.65-.04,.91-.12,.26-.08,.48-.17,.67-.27,.19-.1,.36-.19,.5-.27,.14-.08,.28-.12,.42-.12,.09,0,.16,.02,.23,.05,.06,.03,.12,.09,.17,.15l.63,.79c-.24,.28-.51,.52-.8,.71-.3,.19-.61,.34-.93,.45-.32,.11-.66,.19-.99,.24-.33,.05-.66,.07-.98,.07-.62,0-1.21-.1-1.75-.31-.54-.21-1-.51-1.4-.92-.4-.41-.71-.91-.94-1.51-.23-.6-.34-1.29-.34-2.08,0-.61,.1-1.19,.3-1.73,.2-.54,.48-1.01,.86-1.41,.37-.4,.82-.72,1.36-.95,.53-.23,1.14-.35,1.81-.35Zm.04,1.55c-.63,0-1.12,.18-1.48,.54-.36,.36-.58,.86-.68,1.52h4.07c0-.28-.04-.54-.11-.79-.08-.25-.2-.47-.35-.65-.16-.19-.36-.33-.6-.44-.24-.11-.52-.16-.84-.16Zm10.51,.34c-.06,.1-.12,.16-.18,.2-.07,.04-.15,.06-.25,.06-.11,0-.22-.03-.34-.09-.12-.05-.26-.12-.41-.19-.16-.08-.34-.14-.54-.2-.2-.06-.44-.09-.71-.09-.43,0-.76,.09-1.01,.27-.24,.18-.37,.42-.37,.71,0,.19,.06,.36,.19,.49,.13,.13,.29,.25,.5,.35,.21,.1,.44,.19,.71,.27,.26,.08,.53,.16,.81,.26,.28,.09,.54,.2,.81,.32,.26,.12,.5,.27,.71,.46,.21,.18,.37,.4,.5,.66,.13,.26,.19,.57,.19,.93,0,.43-.08,.83-.24,1.2-.16,.36-.39,.68-.69,.95-.3,.27-.68,.47-1.13,.62-.45,.15-.96,.22-1.54,.22-.31,0-.61-.03-.91-.08-.3-.06-.58-.13-.85-.23-.27-.1-.52-.22-.76-.35-.23-.13-.43-.28-.61-.44l.5-.83c.06-.1,.14-.17,.23-.23,.09-.05,.2-.08,.33-.08s.26,.04,.38,.12c.12,.08,.26,.16,.42,.25,.16,.09,.34,.17,.55,.25,.22,.08,.48,.11,.81,.11,.26,0,.48-.03,.66-.09,.18-.06,.34-.14,.46-.24,.12-.1,.21-.21,.26-.35,.05-.13,.08-.27,.08-.41,0-.21-.06-.38-.19-.52-.13-.13-.3-.25-.5-.35-.21-.1-.45-.19-.71-.27-.27-.08-.54-.17-.81-.26-.28-.09-.55-.2-.82-.33-.27-.12-.5-.29-.71-.48-.21-.19-.38-.43-.5-.71-.13-.28-.19-.62-.19-1.02,0-.37,.07-.72,.22-1.05,.15-.33,.36-.62,.64-.87,.28-.25,.64-.45,1.06-.59,.42-.15,.91-.22,1.47-.22,.62,0,1.18,.1,1.69,.3,.51,.21,.93,.48,1.27,.81l-.49,.78Zm5.6-1.89c.57,0,1.09,.09,1.57,.27,.48,.18,.89,.45,1.23,.79,.35,.35,.62,.78,.81,1.28,.19,.51,.29,1.08,.29,1.73,0,.17,0,.3-.02,.41-.01,.11-.04,.19-.08,.25-.04,.06-.09,.11-.15,.13-.06,.03-.15,.04-.25,.04h-5.55c.07,.92,.31,1.6,.75,2.03,.43,.43,1,.65,1.72,.65,.35,0,.65-.04,.91-.12,.25-.08,.48-.17,.67-.27,.19-.1,.36-.19,.5-.27,.14-.08,.28-.12,.42-.12,.09,0,.16,.02,.23,.05,.06,.03,.12,.09,.16,.15l.63,.79c-.24,.28-.51,.52-.81,.71-.3,.19-.61,.34-.93,.45-.32,.11-.66,.19-.99,.24-.33,.05-.66,.07-.98,.07-.62,0-1.21-.1-1.74-.31-.54-.21-1-.51-1.4-.92-.4-.41-.71-.91-.94-1.51-.23-.6-.34-1.29-.34-2.08,0-.61,.1-1.19,.3-1.73,.2-.54,.48-1.01,.85-1.41,.37-.4,.82-.72,1.36-.95,.53-.23,1.14-.35,1.81-.35Zm.04,1.55c-.63,0-1.12,.18-1.48,.54-.36,.36-.59,.86-.68,1.52h4.07c0-.28-.04-.54-.12-.79-.08-.25-.19-.47-.35-.65-.16-.19-.36-.33-.59-.44-.24-.11-.52-.16-.84-.16Zm5.17,7.58v-8.99h1.33c.28,0,.46,.13,.55,.39l.15,.71c.18-.19,.37-.36,.57-.51,.2-.15,.42-.28,.64-.39,.23-.11,.47-.2,.72-.25,.26-.06,.54-.09,.84-.09,.49,0,.93,.08,1.31,.25,.38,.16,.7,.4,.95,.7,.25,.3,.45,.66,.58,1.08,.13,.42,.2,.88,.2,1.38v5.72h-2.17v-5.72c0-.55-.12-.98-.38-1.28-.25-.3-.63-.45-1.14-.45-.37,0-.72,.08-1.05,.26-.33,.17-.64,.4-.93,.69v6.5h-2.17Zm12.48,.14c-.78,0-1.38-.22-1.8-.66-.42-.44-.63-1.05-.63-1.83v-5.1h-.91c-.12,0-.22-.04-.3-.11-.09-.08-.13-.19-.13-.34v-.86l1.45-.23,.46-2.45c.02-.12,.08-.21,.17-.27,.08-.06,.19-.1,.32-.1h1.12v2.83h2.37v1.54h-2.37v4.95c0,.28,.07,.5,.21,.66,.14,.16,.33,.24,.56,.24,.14,0,.25-.02,.34-.05,.09-.03,.17-.07,.24-.1,.07-.03,.13-.07,.18-.1,.05-.03,.1-.05,.16-.05,.07,0,.12,.01,.16,.05,.04,.03,.08,.08,.13,.15l.65,1.05c-.31,.26-.68,.46-1.09,.6-.41,.13-.83,.2-1.27,.2Zm6.34,0c-.78,0-1.38-.22-1.8-.66-.42-.44-.63-1.05-.63-1.83v-5.1h-.91c-.12,0-.22-.04-.3-.11-.08-.08-.13-.19-.13-.34v-.86l1.45-.23,.45-2.45c.02-.12,.08-.21,.16-.27,.08-.06,.19-.1,.32-.1h1.12v2.83h2.37v1.54h-2.37v4.95c0,.28,.07,.5,.21,.66,.14,.16,.33,.24,.56,.24,.13,0,.25-.02,.34-.05,.09-.03,.17-.07,.24-.1,.07-.03,.13-.07,.18-.1,.05-.03,.1-.05,.16-.05,.06,0,.12,.01,.16,.05,.04,.03,.08,.08,.13,.15l.65,1.05c-.31,.26-.68,.46-1.08,.6-.41,.13-.83,.2-1.27,.2Zm6.02-11.75c0,.19-.04,.36-.11,.52-.08,.17-.18,.31-.3,.43-.12,.12-.27,.22-.44,.29-.17,.07-.35,.11-.54,.11s-.36-.04-.53-.11c-.16-.07-.31-.17-.43-.29-.12-.12-.22-.27-.29-.43-.07-.16-.11-.34-.11-.52s.04-.38,.11-.54c.07-.17,.17-.32,.29-.44,.12-.12,.27-.22,.43-.29,.17-.08,.35-.11,.53-.11s.38,.03,.54,.11c.17,.07,.32,.17,.44,.29,.13,.12,.23,.27,.3,.44,.08,.17,.11,.35,.11,.54Zm-.32,11.61h-2.16v-8.99h2.16v8.99Zm9.05,0h-.97c-.2,0-.36-.03-.48-.09-.12-.06-.2-.18-.26-.37l-.19-.64c-.23,.2-.45,.38-.67,.54-.22,.15-.45,.28-.68,.39-.23,.1-.48,.18-.74,.24-.27,.05-.56,.08-.88,.08-.38,0-.73-.05-1.05-.15-.32-.1-.59-.25-.83-.46-.23-.21-.41-.46-.54-.76-.13-.3-.19-.66-.19-1.06,0-.34,.09-.67,.27-1,.18-.33,.48-.63,.89-.89,.42-.27,.97-.49,1.66-.66,.69-.18,1.55-.27,2.57-.3v-.53c0-.6-.13-1.05-.38-1.34-.26-.29-.62-.43-1.11-.43-.35,0-.64,.04-.88,.12-.23,.08-.44,.17-.61,.27-.17,.1-.33,.19-.48,.28-.15,.08-.31,.12-.48,.12-.15,0-.27-.04-.38-.11-.1-.08-.19-.17-.25-.28l-.39-.7c1.03-.94,2.28-1.42,3.74-1.42,.53,0,1,.09,1.41,.26,.41,.17,.76,.41,1.05,.72,.29,.31,.5,.67,.65,1.1,.15,.43,.22,.89,.22,1.4v5.68Zm-4.21-1.35c.22,0,.43-.02,.61-.06,.19-.04,.37-.1,.53-.18,.17-.08,.33-.18,.48-.3,.15-.12,.31-.26,.47-.43v-1.51c-.63,.03-1.16,.08-1.58,.16-.42,.08-.77,.18-1.02,.3-.26,.12-.44,.27-.55,.43-.11,.16-.16,.34-.16,.54,0,.38,.12,.65,.34,.81,.23,.16,.52,.25,.88,.25Z"/><path class="cls-1" d="M24.09,27.89c-.34,0-.66-.18-.67-.52,0-.34,.31-.61,.65-.62,.34,0,.52,.26,.53,.6,0,.34-.17,.54-.51,.54m3.01,1.92c0-.5-.5-.76-1-.75-.5,0-.8,.28-.79,.78,0,.5,.32,.86,.82,.85,.5,0,.98-.38,.97-.88Zm2.81,2.12c0-.58-.38-1.01-.97-1-.58,0-1.21,.46-1.2,1.04,0,.58,.66,1.14,1.24,1.13,.58,0,.94-.59,.93-1.17Zm3.27,1.94c-.01-.67-.56-1.27-1.22-1.26-.67,.01-1.26,.64-1.25,1.3,.01,.67,.62,1.02,1.29,1.01,.66-.01,1.19-.38,1.18-1.05Zm3.66,1.13c-.01-.75-.67-1.35-1.42-1.34-.75,.01-1.47,.65-1.46,1.39,.01,.75,.75,1.23,1.5,1.22,.75-.01,1.39-.52,1.38-1.27Zm-6.99-7.62c-.01-.5-.38-.94-.87-.93-.5,0-.85,.46-.84,.96,0,.5,.37,.91,.87,.9,.5,0,.85-.44,.84-.94Zm3.38,1.1c0-.58-.33-1.2-.91-1.19-.58,0-1.1,.64-1.09,1.22,.01,.58,.55,1.09,1.13,1.09,.58-.01,.88-.54,.87-1.12Zm3.73,.37c-.01-.66-.58-1.05-1.25-1.04-.66,.01-1.21,.41-1.2,1.08,.01,.66,.58,1.25,1.25,1.23,.67,0,1.22-.61,1.21-1.28Zm3.82-.13c-.01-.75-.53-1.28-1.28-1.27-.75,0-1.52,.57-1.5,1.32,.01,.75,.8,1.47,1.55,1.46,.75-.01,1.24-.76,1.23-1.51Zm.3-14.22c-.01-.75-.64-1.47-1.39-1.46-.75,.01-1.25,.75-1.23,1.5,.01,.75,.54,1.45,1.29,1.43,.75-.01,1.35-.73,1.33-1.48Zm-7.51-.22c-.01-.58-.65-.88-1.23-.87-.58,0-.89,.32-.89,.9,0,.58,.34,1.17,.92,1.16,.58-.01,1.2-.61,1.19-1.19Zm2.11-2.79c-.01-.66-.52-1.3-1.19-1.29-.67,.01-1.04,.67-1.03,1.33,.01,.67,.41,1.34,1.08,1.33,.66,0,1.15-.7,1.14-1.37Zm1.79-3.46c-.02-.75-.81-1.15-1.56-1.14-.75,.01-1.21,.44-1.2,1.19,.01,.75,.5,1.49,1.25,1.48,.75-.01,1.53-.78,1.52-1.53Zm-8.57,5.78c-.01-.5-.51-.89-1.01-.88-.5,0-.96,.42-.95,.91,0,.5,.48,.95,.98,.94,.5,0,.99-.47,.97-.97Zm1.54-3.05c-.01-.58-.55-1.04-1.13-1.03-.58,.01-1.12,.49-1.11,1.07,0,.58,.56,.96,1.14,.95,.58-.01,1.1-.41,1.09-.99Zm1.07-3.44c-.01-.67-.69-1.25-1.35-1.24-.66,.01-1.31,.62-1.31,1.28,.01,.66,.69,1.16,1.35,1.14,.67-.01,1.32-.53,1.31-1.19Zm.25-3.88c-.01-.75-.69-1.13-1.44-1.12-.75,.01-1.3,.42-1.29,1.16,.01,.75,.59,1.5,1.33,1.48,.75-.01,1.41-.78,1.4-1.53Zm-7,11.74c0-.34-.31-.69-.65-.69-.34,0-.68,.37-.67,.71,0,.34,.36,.54,.7,.54,.34,0,.63-.22,.62-.56Zm1.01-3.26c0-.5-.44-.94-.94-.93-.5,0-.94,.47-.93,.96,.01,.5,.46,.78,.96,.77,.5-.01,.92-.3,.91-.8Zm.35-3.48c0-.58-.56-1.01-1.14-1-.58,0-1.12,.46-1.11,1.04,.01,.58,.56,.98,1.14,.97,.58-.01,1.12-.42,1.1-1Zm-.32-3.64c-.01-.66-.73-1.06-1.4-1.05-.66,.01-1.12,.43-1.11,1.09,0,.67,.48,1.3,1.15,1.29,.66-.01,1.37-.67,1.36-1.33Zm-1.2-3.42c-.01-.75-.45-1.38-1.2-1.37-.75,.01-1.14,.66-1.12,1.41,.02,.75,.42,1.44,1.17,1.43,.75-.01,1.16-.72,1.15-1.47Zm-2.26,12.97c0-.34-.36-.54-.7-.54-.34,0-.57,.22-.56,.56,0,.34,.24,.68,.58,.67,.34,0,.69-.36,.68-.69Zm-.23-3.26c0-.5-.42-.97-.92-.96-.5,0-.89,.49-.88,.99,0,.5,.42,.95,.91,.94,.5,0,.89-.47,.88-.98Zm-.97-3.26c-.01-.58-.47-.96-1.05-.94-.58,0-.99,.4-.98,.98,0,.58,.43,.98,1.01,.97,.58-.01,1.02-.42,1.02-1Zm-1.5-3.22c-.01-.67-.56-1.03-1.23-1.02-.66,.01-1.21,.39-1.2,1.06,.01,.67,.57,1.25,1.24,1.24,.67,0,1.2-.62,1.18-1.28Zm-2.24-2.72c-.01-.75-.62-1.34-1.37-1.33-.75,.01-1.14,.62-1.13,1.37,.01,.75,.43,1.29,1.18,1.28,.75-.01,1.34-.57,1.32-1.32Zm2.44,12.69c0-.34-.32-.55-.66-.55-.34,0-.54,.23-.54,.57,0,.34,.22,.6,.56,.6,.34,0,.64-.28,.64-.62Zm-1.25-2.96c0-.5-.55-.75-1.05-.75-.5,0-.98,.29-.97,.78,0,.5,.5,.88,1,.87,.5,0,1.04-.41,1.03-.91Zm-2.09-2.73c0-.58-.56-.89-1.14-.88-.58,.01-1.08,.34-1.07,.92,0,.58,.53,1.18,1.11,1.18,.58-.01,1.11-.63,1.1-1.21Zm-2.61-2.18c0-.67-.66-1.22-1.33-1.21-.66,.01-1.06,.58-1.06,1.25,.02,.66,.43,1.26,1.1,1.25,.67-.01,1.3-.63,1.29-1.29Zm-2.92-1.95c-.01-.75-.76-1.18-1.51-1.16-.75,.01-1.41,.46-1.4,1.21,.01,.75,.7,1.42,1.45,1.41,.75-.01,1.47-.71,1.46-1.46Zm6.56,10.91c0-.34-.21-.63-.55-.62-.34,0-.53,.31-.53,.65,0,.34,.21,.61,.55,.61,.34,0,.54-.29,.53-.63Zm-2.2-2.11c0-.5-.54-.84-1.04-.83-.5,0-.86,.37-.85,.87,0,.5,.38,.81,.87,.8,.5,0,1.02-.33,1.01-.83Zm-2.88-1.75c-.01-.58-.43-.99-1.02-.98-.58,0-1.08,.43-1.07,1.01,0,.58,.52,1.08,1.11,1.07,.58,0,.99-.53,.98-1.11Zm-3.22-1.11c-.01-.67-.58-1.2-1.25-1.18-.66,.01-1.11,.56-1.1,1.22,.01,.67,.47,1.17,1.14,1.15,.66-.01,1.22-.53,1.21-1.19Zm-3.49-.61c-.01-.75-.55-1.5-1.29-1.49-.75,.01-1.34,.79-1.32,1.54,.01,.75,.63,1.53,1.38,1.52,.75-.01,1.25-.81,1.24-1.56Zm10.15,7.45c0-.34-.23-.69-.56-.69-.34,0-.63,.37-.63,.71,0,.34,.31,.52,.65,.52,.34,0,.55-.2,.54-.54Zm-2.98-1.2c0-.5-.34-.86-.84-.85-.5,0-.83,.38-.82,.88,0,.5,.35,1.02,.85,1.01,.5,0,.81-.54,.81-1.04Zm-3.31-.46c-.01-.58-.33-.91-.91-.9-.58,0-.92,.35-.9,.93,0,.58,.36,1.01,.94,1,.58-.01,.88-.45,.87-1.04Zm-3.21,.13c-.01-.66-.47-1.25-1.14-1.24-.67,.01-1.37,.62-1.35,1.29,.01,.67,.74,1.31,1.4,1.3,.67,0,1.1-.68,1.09-1.34Zm-3.45,.88c-.01-.75-.55-1.39-1.3-1.38-.75,.01-1.48,.68-1.47,1.43,.01,.75,.77,1.24,1.51,1.22,.75,0,1.27-.52,1.25-1.27Zm11.99,2.82c0-.34-.3-.58-.64-.58-.34,0-.58,.26-.57,.6,0,.34,.26,.69,.59,.68,.34,0,.63-.37,.62-.7Zm-3.05,.19c0-.5-.36-.8-.86-.79-.5,0-.97,.33-.96,.83,0,.5,.49,.88,.99,.87,.5,0,.83-.4,.83-.9Zm-3.27,.89c0-.58-.33-1.07-.91-1.06-.58,0-1.03,.51-1.02,1.09,.01,.59,.47,.92,1.05,.91,.59,0,.89-.36,.88-.94Zm-3.08,1.23c-.01-.67-.37-1.19-1.04-1.18-.66,.01-1.32,.55-1.31,1.22,.01,.67,.68,1.35,1.35,1.34,.66-.01,1-.72,.99-1.38Zm-2.94,2.09c-.01-.75-.42-1.36-1.17-1.34C.67,22.77-.01,23.4,0,24.15c0,.75,.72,1.4,1.47,1.38,.75-.01,1.13-.68,1.12-1.43Zm12.35-1.88c0-.34-.35-.65-.69-.64-.34,0-.67,.32-.66,.66,0,.34,.35,.7,.69,.69,.34,0,.67-.37,.67-.71Zm-2.81,1.36c0-.5-.34-.78-.84-.77-.5,0-1.04,.3-1.03,.81,0,.5,.56,.88,1.06,.87,.5,0,.82-.4,.81-.9Zm-2.74,1.88c-.01-.58-.59-.94-1.18-.93-.58,.01-.89,.38-.88,.96,0,.58,.33,1.21,.92,1.2,.58,0,1.15-.65,1.14-1.23Zm-2.37,2.62c-.01-.66-.54-1.03-1.21-1.02-.66,.01-1.18,.4-1.17,1.06,.01,.66,.54,1.02,1.2,1.01,.67,0,1.19-.38,1.18-1.05Zm-1.98,3.04c-.01-.75-.78-1.21-1.53-1.2-.75,.01-1.14,.5-1.12,1.24,.01,.75,.41,1.17,1.16,1.16,.75-.01,1.5-.45,1.49-1.2Zm10.65-6.47c0-.34-.2-.57-.54-.57-.34,0-.61,.25-.6,.59,0,.34,.28,.54,.62,.54,.34,0,.53-.21,.52-.56Zm-2.05,2.27c-.01-.5-.31-.78-.81-.77-.5,0-.96,.3-.95,.8,0,.5,.49,1,.98,1,.5,0,.78-.53,.78-1.03Zm-1.7,3.01c-.01-.58-.5-1.21-1.08-1.2-.58,0-1.12,.65-1.12,1.23,.01,.58,.57,1.07,1.15,1.06,.58,0,1.05-.52,1.04-1.1Zm-1.29,3.25c-.01-.67-.66-1.28-1.32-1.27-.67,.01-1.23,.64-1.23,1.31,.01,.66,.6,1.14,1.27,1.12,.66-.01,1.29-.51,1.28-1.17Zm-.95,3.47c-.01-.75-.42-1.26-1.17-1.25-.75,.01-1.27,.54-1.26,1.29,.02,.75,.55,1.31,1.3,1.29,.75-.01,1.14-.59,1.13-1.34Zm7.69-10.16c0-.34-.35-.52-.69-.52-.34,0-.56,.2-.56,.54,0,.34,.24,.63,.58,.63,.34,0,.67-.31,.66-.65Zm-.93,3.1c0-.5-.54-.86-1.04-.85-.5,0-.97,.39-.96,.89,0,.5,.49,.95,.99,.94,.5,0,1.02-.48,1.01-.98Zm-.78,3.39c-.01-.58-.42-.96-1-.95-.58,0-.98,.4-.97,.99,0,.58,.42,.95,1.01,.94,.58-.01,.97-.39,.96-.97Zm.1,3.54c-.01-.66-.75-1.23-1.41-1.22-.67,.01-1.14,.6-1.13,1.26,.01,.67,.51,1.26,1.17,1.25,.66-.01,1.38-.63,1.37-1.29Zm.66,3.71c-.01-.75-.74-1.3-1.49-1.29-.75,.01-1.42,.59-1.4,1.34,.01,.75,.7,1.18,1.45,1.17,.75-.01,1.46-.47,1.44-1.22Zm3.19-12.53c0-.34-.29-.54-.63-.53-.34,0-.55,.21-.54,.55,0,.34,.23,.57,.57,.57,.34,0,.62-.25,.61-.59Zm.2,3.46c0-.5-.45-.93-.95-.92-.5,0-.84,.45-.83,.95,0,.5,.36,.77,.86,.76,.5,0,.93-.29,.92-.79Zm.66,3.32c0-.58-.5-1.13-1.08-1.12-.58,.01-1.05,.58-1.04,1.16,.01,.58,.5,1.06,1.08,1.05,.58,0,1.06-.5,1.04-1.08Zm1.26,3.2c-.01-.67-.71-1-1.38-.99-.66,.01-1.05,.36-1.04,1.03,.01,.66,.42,1.33,1.08,1.31,.67-.01,1.35-.69,1.34-1.36Zm1.84,3.26c-.01-.75-.62-1.29-1.37-1.28-.75,.01-1.19,.58-1.18,1.33,.01,.75,.48,1.54,1.23,1.52,.75-.01,1.33-.82,1.32-1.57Zm-1.4-13.01c0-.34-.23-.59-.57-.58-.34,0-.68,.27-.68,.61,0,.34,.36,.69,.7,.68,.34,0,.55-.37,.54-.7Zm1.42,3.11c-.01-.5-.46-.79-.96-.78-.5,0-.87,.31-.86,.81,0,.5,.39,.99,.89,.98,.5-.01,.94-.51,.93-1.01Zm1.69,2.98c0-.58-.32-.96-.91-.95-.58,0-.97,.39-.96,.98,.01,.58,.42,1.14,1,1.13,.58-.01,.88-.58,.87-1.16Zm2.53,2.96c-.01-.67-.49-1.36-1.16-1.35-.66,.01-1.21,.72-1.19,1.39,.01,.66,.58,1.12,1.24,1.11,.66-.01,1.12-.49,1.11-1.16Zm3.05,2.16c-.01-.75-.79-1.15-1.54-1.13-.75,.01-1.34,.43-1.33,1.18,.01,.75,.63,1.33,1.38,1.31,.75-.01,1.51-.62,1.49-1.36Z"/></g></g></svg>