<?xml version="1.0" encoding="UTF-8"?><svg id="Capa_2" xmlns="http://www.w3.org/2000/svg" xmlns:xlink="http://www.w3.org/1999/xlink" viewBox="0 0 85.04 27.48"><defs><style>.cls-1{fill:#fff;}.cls-2{clip-path:url(#clippath-1);}.cls-3{clip-path:url(#clippath);}</style><clipPath id="clippath"><polygon class="cls-1" points="0 6.07 0 10.93 13.36 4.86 13.36 0 0 6.07"/></clipPath><clipPath id="clippath-1"><polygon class="cls-1" points="0 13.12 0 17.97 10.93 13.02 10.93 8.17 0 13.12"/></clipPath></defs><g id="Capa_1-2"><g><polygon class="cls-1" points="22.46 5.2 18.66 5.2 18.66 7.82 22.32 7.82 22.32 9.37 18.66 9.37 18.66 14.56 17.01 14.56 17.01 3.65 22.46 3.65 22.46 5.2"/><path class="cls-1" d="M27.19,9.91l3.38,4.65h-2.01l-3.12-4.46h-.3v4.46h-1.65V3.65h1.93c1.44,0,2.48,.27,3.12,.81,.71,.6,1.06,1.4,1.06,2.39,0,.77-.22,1.44-.66,1.99-.44,.56-1.03,.91-1.75,1.07m-2.05-1.25h.52c1.56,0,2.34-.6,2.34-1.79,0-1.12-.76-1.67-2.27-1.67h-.59v3.46Z"/><path class="cls-1" d="M30.55,9.06c0-1.54,.56-2.85,1.69-3.96,1.12-1.1,2.47-1.65,4.04-1.65s2.89,.56,4,1.67c1.12,1.11,1.67,2.45,1.67,4.01s-.56,2.9-1.68,3.99c-1.12,1.1-2.48,1.65-4.08,1.65-1.41,0-2.67-.49-3.79-1.46-1.23-1.08-1.85-2.49-1.85-4.24m1.66,.02c0,1.21,.4,2.2,1.21,2.97,.81,.78,1.74,1.17,2.79,1.17,1.14,0,2.11-.4,2.9-1.19,.79-.8,1.18-1.78,1.18-2.92s-.39-2.14-1.17-2.92c-.77-.79-1.73-1.19-2.87-1.19s-2.09,.4-2.88,1.19c-.78,.78-1.17,1.75-1.17,2.9"/><polygon class="cls-1" points="43.15 14.56 43.15 2.91 51.11 11.23 51.11 3.65 52.75 3.65 52.75 15.22 44.8 6.92 44.8 14.56 43.15 14.56"/><polygon class="cls-1" points="57.51 5.2 57.51 14.56 55.86 14.56 55.86 5.2 53.35 5.2 53.35 3.65 60.01 3.65 60.01 5.2 57.51 5.2"/><polygon class="cls-1" points="66.63 5.2 62.26 5.2 62.26 7.82 66.5 7.82 66.5 9.37 62.26 9.37 62.26 13.01 66.63 13.01 66.63 14.56 60.61 14.56 60.61 3.65 66.63 3.65 66.63 5.2"/><path class="cls-1" d="M71.09,9.91l3.38,4.65h-2.01l-3.12-4.46h-.3v4.46h-1.65V3.65h1.93c1.44,0,2.48,.27,3.12,.81,.71,.6,1.06,1.4,1.06,2.39,0,.77-.22,1.44-.66,1.99-.44,.56-1.03,.91-1.75,1.07m-2.05-1.25h.52c1.56,0,2.34-.6,2.34-1.79,0-1.12-.76-1.67-2.27-1.67h-.59v3.46Z"/><path class="cls-1" d="M82.04,11.91h-4.67l-1.21,2.65h-1.77l5.4-11.59,5.21,11.59h-1.8l-1.14-2.65Zm-.67-1.55l-1.62-3.71-1.7,3.71h3.31Z"/><polygon class="cls-1" points="54.41 16.69 53.21 16.69 53.21 17.41 54.38 17.41 54.38 17.84 53.21 17.84 53.21 18.84 54.41 18.84 54.41 19.27 52.76 19.27 52.76 16.26 54.41 16.26 54.41 16.69"/><polygon class="cls-1" points="57.89 19.28 57.89 16.07 60.09 18.36 60.09 16.27 60.54 16.27 60.54 19.46 58.35 17.18 58.35 19.28 57.89 19.28"/><polygon class="cls-1" points="66.66 16.7 65.46 16.7 65.46 17.42 66.63 17.42 66.63 17.85 65.46 17.85 65.46 18.85 66.66 18.85 66.66 19.28 65 19.28 65 16.27 66.66 16.27 66.66 16.7"/><path class="cls-1" d="M71.86,18l.93,1.28h-.56l-.86-1.23h-.08v1.23h-.45v-3.01h.53c.4,0,.68,.07,.86,.22,.2,.17,.29,.39,.29,.66,0,.21-.06,.4-.18,.55-.12,.15-.28,.25-.48,.29m-.56-.35h.14c.43,0,.64-.16,.64-.49,0-.31-.21-.46-.63-.46h-.16v.95Z"/><path class="cls-1" d="M77.67,17.72h1.24v.1c0,.23-.03,.43-.08,.6-.05,.16-.14,.31-.26,.45-.28,.31-.63,.47-1.07,.47s-.78-.15-1.08-.46c-.3-.31-.45-.67-.45-1.1s.15-.8,.46-1.11c.3-.31,.68-.46,1.11-.46,.24,0,.45,.05,.66,.14,.2,.1,.39,.25,.57,.47l-.32,.31c-.25-.33-.55-.49-.9-.49-.32,0-.58,.11-.8,.33-.21,.21-.32,.49-.32,.81s.12,.61,.36,.83c.22,.2,.47,.3,.73,.3,.22,0,.42-.07,.6-.22,.18-.15,.28-.33,.3-.55h-.75v-.43Z"/><polygon class="cls-1" points="83.6 17.98 82.62 16.27 83.14 16.27 83.83 17.48 84.52 16.27 85.04 16.27 84.05 17.98 84.05 19.28 83.6 19.28 83.6 17.98"/><polygon class="cls-1" points="13.36 14.57 0 6.07 0 10.93 13.36 19.42 13.36 14.57"/><g><polygon class="cls-1" points="0 6.07 0 10.93 13.36 4.86 13.36 0 0 6.07"/><g class="cls-3"><rect class="cls-1" x="-1.91" y="-3.12" width="17.17" height="17.17" transform="translate(-1.91 6.32) rotate(-45)"/></g></g><g><polygon class="cls-1" points="0 13.12 0 17.97 10.93 13.02 10.93 8.17 0 13.12"/><g class="cls-2"><rect class="cls-1" x="-1.87" y="5.74" width="14.66" height="14.66" transform="translate(-7.64 7.69) rotate(-45)"/></g></g><path class="cls-1" d="M18.4,26.72h-1.02l-.26,.58h-.39l1.18-2.53,1.13,2.53h-.39l-.25-.58Zm-.15-.34l-.35-.81-.37,.81h.72Z"/><polygon class="cls-1" points="20.82 24.92 21.47 26.57 22.14 24.92 22.53 24.92 21.47 27.48 20.42 24.92 20.82 24.92"/><path class="cls-1" d="M25.57,26.72h-1.02l-.26,.58h-.39l1.18-2.53,1.14,2.53h-.39l-.25-.58Zm-.15-.34l-.35-.81-.37,.81h.72Z"/><polygon class="cls-1" points="28.06 27.3 28.06 24.76 29.79 26.58 29.79 24.92 30.15 24.92 30.15 27.45 28.42 25.64 28.42 27.3 28.06 27.3"/><polygon class="cls-1" points="32.68 26.96 33.82 26.96 33.82 27.3 32.09 27.3 33.25 25.26 32.28 25.26 32.28 24.92 33.84 24.92 32.68 26.96"/><path class="cls-1" d="M37.18,26.72h-1.02l-.26,.58h-.39l1.18-2.53,1.14,2.53h-.39l-.25-.58Zm-.15-.34l-.35-.81-.37,.81h.72Z"/><path class="cls-1" d="M40.47,26.29l.74,1.01h-.44l-.68-.97h-.06v.97h-.36v-2.38h.42c.31,0,.54,.06,.68,.18,.15,.13,.23,.31,.23,.52,0,.17-.05,.31-.15,.43-.1,.12-.22,.2-.38,.23m-.45-.27h.11c.34,0,.51-.13,.51-.39,0-.24-.17-.37-.5-.37h-.13v.76Z"/><polygon class="cls-1" points="46.94 25.26 45.98 25.26 45.98 25.83 46.91 25.83 46.91 26.17 45.98 26.17 45.98 26.96 46.94 26.96 46.94 27.3 45.63 27.3 45.63 24.92 46.94 24.92 46.94 25.26"/><path class="cls-1" d="M50.3,25.28l-.29,.17c-.05-.09-.11-.16-.16-.18-.05-.03-.12-.05-.2-.05-.1,0-.18,.03-.25,.08-.07,.06-.1,.13-.1,.21,0,.12,.09,.21,.26,.28l.24,.1c.19,.08,.33,.17,.42,.29,.09,.11,.13,.25,.13,.41,0,.22-.07,.4-.22,.54-.15,.14-.33,.21-.55,.21s-.38-.06-.51-.18c-.13-.12-.21-.29-.25-.51l.36-.08c.02,.14,.04,.24,.09,.29,.07,.1,.18,.15,.32,.15,.11,0,.2-.04,.28-.11,.07-.07,.11-.17,.11-.28,0-.05,0-.09-.02-.13-.01-.04-.03-.07-.06-.11-.03-.03-.06-.06-.11-.09-.04-.03-.09-.06-.15-.08l-.23-.1c-.33-.14-.49-.34-.49-.6,0-.18,.07-.33,.21-.45,.14-.12,.31-.18,.51-.18,.27,0,.49,.13,.64,.4"/><polygon class="cls-1" points="56.17 25.26 55.22 25.26 55.22 25.83 56.14 25.83 56.14 26.17 55.22 26.17 55.22 26.96 56.17 26.96 56.17 27.3 54.86 27.3 54.86 24.92 56.17 24.92 56.17 25.26"/><polygon class="cls-1" points="58.54 24.92 58.54 26.96 59.24 26.96 59.24 27.3 58.19 27.3 58.19 24.92 58.54 24.92"/><path class="cls-1" d="M65.41,25.05v.43c-.21-.17-.42-.26-.64-.26-.24,0-.45,.09-.62,.26-.17,.17-.25,.39-.25,.64s.08,.46,.25,.63,.38,.26,.62,.26c.13,0,.23-.02,.32-.06,.05-.02,.1-.05,.15-.08,.05-.03,.11-.08,.17-.12v.43c-.21,.12-.42,.17-.65,.17-.34,0-.63-.12-.87-.36-.24-.24-.36-.53-.36-.87,0-.3,.1-.57,.3-.81,.25-.29,.57-.44,.96-.44,.21,0,.42,.06,.62,.17"/><path class="cls-1" d="M68.86,26.72h-1.02l-.26,.58h-.39l1.18-2.53,1.13,2.53h-.39l-.25-.58Zm-.15-.34l-.35-.81-.37,.81h.72Z"/><polygon class="cls-1" points="71.26 27.3 71.76 24.75 72.58 26.59 73.42 24.75 73.87 27.3 73.5 27.3 73.27 25.87 72.57 27.41 71.88 25.86 71.63 27.3 71.26 27.3"/><rect class="cls-1" x="75.92" y="24.92" width=".36" height="2.38"/><polygon class="cls-1" points="78.39 27.3 78.39 24.76 80.13 26.58 80.13 24.92 80.49 24.92 80.49 27.45 78.75 25.64 78.75 27.3 78.39 27.3"/><path class="cls-1" d="M82.51,26.1c0-.34,.12-.62,.37-.86,.24-.24,.54-.36,.88-.36s.63,.12,.87,.36c.24,.24,.36,.53,.36,.87s-.12,.63-.37,.87c-.25,.24-.54,.36-.89,.36-.31,0-.58-.11-.83-.32-.27-.24-.4-.54-.4-.92m.36,0c0,.26,.09,.48,.27,.65,.18,.17,.38,.25,.61,.25,.25,0,.46-.09,.63-.26,.17-.17,.26-.39,.26-.64s-.08-.47-.25-.64c-.17-.17-.38-.26-.62-.26s-.46,.08-.63,.26c-.17,.17-.26,.38-.26,.63"/><rect class="cls-1" x="16.99" y="22.39" width="68.01" height=".21"/></g></g></svg>