<?xml version="1.0" standalone="no"?>
<!DOCTYPE svg PUBLIC "-//W3C//DTD SVG 20010904//EN"
 "http://www.w3.org/TR/2001/REC-SVG-20010904/DTD/svg10.dtd">
<svg version="1.0" xmlns="http://www.w3.org/2000/svg"
 width="359.000000pt" height="140.000000pt" viewBox="0 0 359.000000 140.000000"
 preserveAspectRatio="xMidYMid meet">

<g transform="translate(0.000000,140.000000) scale(0.100000,-0.100000)"
fill="#fff" stroke="none">
<path d="M3165 1296 l-7 -93 -64 -6 c-176 -17 -282 -141 -272 -317 10 -160
126 -280 273 -280 90 0 191 60 239 143 30 51 46 145 37 210 -5 26 -7 47 -6 47
2 0 22 -7 45 -15 23 -8 44 -15 47 -15 2 0 -19 34 -47 75 -27 41 -50 78 -50 83
0 5 30 42 66 81 36 39 60 71 52 71 -7 0 -54 -11 -104 -24 l-90 -23 -49 74
c-26 40 -51 76 -55 78 -5 3 -11 -37 -15 -89z m-96 -193 l73 -26 -6 -96 -7 -96
69 75 70 75 7 -59 c27 -210 -45 -346 -182 -346 -94 0 -153 70 -175 206 -13 86
3 192 38 251 14 24 28 43 32 43 4 0 40 -12 81 -27z"/>
<path d="M526 1183 c-9 -27 -7 -27 -70 -8 -80 24 -183 20 -244 -11 -166 -83
-216 -322 -96 -462 19 -23 60 -53 92 -68 77 -37 207 -39 295 -5 l57 22 0 118
c0 123 3 134 45 144 11 2 -29 5 -90 5 -78 0 -101 -2 -81 -8 16 -5 33 -15 37
-22 5 -7 9 -62 9 -121 l0 -108 -35 -15 c-80 -33 -184 -9 -238 55 -39 47 -67
132 -67 205 0 162 82 266 210 266 87 0 138 -33 180 -116 l19 -39 0 50 c0 28
-4 70 -8 95 -6 38 -8 41 -15 23z"/>
<path d="M931 1177 c-31 -82 -205 -478 -221 -505 -11 -18 -30 -37 -43 -42 -15
-6 5 -9 68 -8 73 0 84 2 58 9 -45 13 -46 37 -7 124 l24 55 110 0 111 0 21 -47
c11 -27 21 -66 22 -87 1 -34 -2 -41 -24 -47 -14 -4 27 -7 90 -7 88 0 107 2 83
9 -40 12 -46 23 -170 318 -115 276 -109 264 -122 228z m43 -230 c25 -60 46
-111 46 -113 0 -2 -45 -4 -100 -4 -55 0 -100 2 -100 4 0 2 13 32 29 67 15 35
38 86 50 113 12 27 23 47 25 45 2 -2 24 -53 50 -112z"/>
<path d="M1435 1190 c-91 -20 -142 -102 -115 -184 15 -45 55 -80 175 -151 77
-45 100 -64 111 -91 31 -75 -39 -144 -130 -130 -75 12 -106 42 -144 136 -8 20
-11 4 -11 -74 -1 -95 0 -98 17 -77 16 21 19 21 57 8 104 -37 179 -29 240 24
38 34 59 92 49 136 -12 51 -52 90 -156 150 -142 84 -167 113 -142 171 42 101
211 56 243 -66 7 -23 14 -42 16 -42 3 0 5 46 5 103 0 101 -1 102 -19 78 -18
-23 -19 -23 -62 -8 -58 21 -97 26 -134 17z"/>
<path d="M1779 1170 c18 -4 37 -14 42 -22 5 -7 9 -120 9 -250 0 -257 -2 -268
-56 -268 -13 0 -24 -3 -24 -7 0 -5 54 -8 120 -8 66 0 120 3 120 8 0 4 -11 7
-24 7 -47 0 -56 22 -56 139 l0 108 68 -5 c85 -6 151 19 182 70 30 47 24 137
-11 174 -49 54 -89 64 -254 63 -98 -1 -138 -4 -116 -9z m260 -45 c101 -85 37
-244 -91 -228 l-38 5 0 117 c0 65 3 121 7 124 3 4 25 7 49 7 31 0 51 -7 73
-25z"/>
<path d="M2259 1170 c18 -4 37 -14 42 -22 5 -7 9 -120 9 -250 0 -257 -2 -268
-56 -268 -13 0 -24 -3 -24 -7 0 -5 54 -8 120 -8 66 0 120 3 120 8 0 4 -11 7
-24 7 -47 0 -56 22 -56 141 l0 110 32 -3 c29 -3 43 -17 123 -128 l91 -125 79
-2 c78 -3 79 -2 42 11 -20 8 -44 19 -53 27 -19 16 -164 216 -164 227 0 4 15
13 33 20 84 30 122 129 77 200 -37 60 -82 72 -265 71 -103 -1 -148 -4 -126 -9z
m269 -36 c12 -8 29 -28 37 -44 46 -88 -23 -180 -135 -180 l-40 0 0 113 c0 63
3 117 7 120 13 14 109 7 131 -9z"/>
<path d="M20 500 c0 -20 7 -20 1695 -20 1688 0 1695 0 1695 20 0 20 -7 20
-1695 20 -1688 0 -1695 0 -1695 -20z"/>
<path d="M59 317 c-65 -44 -72 -150 -12 -196 38 -31 104 -28 140 5 l28 26 -29
-21 c-89 -65 -184 43 -129 149 33 64 108 64 140 0 12 -24 13 -24 13 15 l0 40
-59 2 c-47 2 -65 -2 -92 -20z"/>
<path d="M303 324 c-34 -17 -63 -66 -63 -109 0 -34 24 -80 52 -99 29 -20 97
-20 126 0 71 49 67 170 -8 209 -37 19 -67 19 -107 -1z m98 -13 c19 -15 24 -30
27 -82 3 -54 1 -68 -18 -91 -26 -34 -78 -38 -105 -8 -19 21 -31 95 -21 135 15
59 72 82 117 46z"/>
<path d="M509 324 c19 -14 21 -25 21 -102 0 -90 -4 -105 -30 -115 -8 -3 5 -5
30 -5 25 0 37 2 28 5 -16 4 -18 17 -17 96 l0 92 47 -99 47 -99 47 99 47 99 0
-92 c1 -79 -1 -92 -16 -96 -10 -3 5 -5 32 -6 38 0 46 2 33 10 -26 15 -27 203
-1 217 13 8 9 9 -16 7 -31 -2 -35 -7 -68 -81 -20 -43 -39 -83 -44 -88 -4 -5
-26 31 -49 80 -40 87 -42 89 -77 91 -34 2 -35 1 -14 -13z"/>
<path d="M836 323 c10 -10 14 -41 14 -108 0 -79 -3 -96 -17 -104 -14 -8 -6
-10 32 -10 28 1 42 3 33 6 -14 3 -18 15 -18 54 l0 49 38 0 c65 0 97 64 53 104
-25 23 -158 31 -135 9z m92 -9 c24 -17 30 -62 10 -82 -7 -7 -22 -12 -35 -12
-21 0 -23 5 -23 48 0 65 9 74 48 46z"/>
<path d="M1036 322 c10 -9 14 -41 14 -107 0 -79 -3 -96 -17 -104 -14 -8 -6
-10 32 -10 28 1 42 3 33 6 -14 3 -18 15 -18 54 0 65 17 64 65 -6 32 -47 42
-55 69 -54 27 0 29 1 11 10 -26 14 -91 102 -78 106 27 9 46 32 46 57 0 44 -22
57 -100 60 -60 2 -69 0 -57 -12z m104 -12 c11 -11 20 -26 20 -33 0 -25 -31
-57 -56 -57 -22 0 -24 4 -24 48 0 67 20 82 60 42z"/>
<path d="M1261 332 c22 -4 29 -32 29 -112 0 -80 -7 -108 -29 -113 -9 -3 26 -5
77 -6 91 -1 93 0 102 25 15 37 12 40 -11 10 -17 -21 -29 -26 -65 -26 l-44 0 0
55 0 55 35 0 c22 0 38 -6 44 -17 8 -15 10 -11 10 17 0 19 -3 29 -6 23 -2 -8
-22 -13 -44 -13 l-39 0 0 50 0 50 39 0 c23 0 46 -7 55 -16 15 -14 16 -14 16 4
0 18 -7 20 -92 19 -51 -1 -86 -3 -77 -5z"/>
<path d="M1511 324 c-16 -12 -21 -24 -19 -47 2 -26 13 -39 61 -71 49 -32 58
-42 55 -65 -2 -21 -9 -27 -36 -29 -36 -4 -59 10 -72 43 -7 16 -9 13 -9 -15
l-1 -35 58 -3 c47 -2 61 1 76 17 32 36 18 71 -47 114 -64 42 -76 59 -57 82 26
31 85 5 103 -45 3 -8 6 3 6 25 l1 40 -48 2 c-31 2 -56 -3 -71 -13z"/>
<path d="M1711 324 c-16 -12 -21 -24 -19 -47 2 -26 13 -39 61 -71 49 -32 58
-42 55 -65 -2 -21 -9 -27 -36 -29 -36 -4 -59 10 -72 43 -7 16 -9 13 -9 -15
l-1 -35 51 -3 c68 -4 101 17 97 61 -2 26 -13 38 -61 70 -64 42 -76 59 -56 83
20 24 61 13 86 -25 l23 -34 0 39 0 39 -48 2 c-31 2 -56 -3 -71 -13z"/>
<path d="M1881 332 c25 -8 29 -25 29 -120 0 -87 -1 -93 -22 -102 -18 -7 -10
-9 32 -8 30 0 47 2 38 5 -16 4 -18 18 -18 108 0 83 3 106 15 113 10 5 -2 8
-36 8 -29 0 -46 -2 -38 -4z"/>
<path d="M2053 321 c-40 -25 -53 -49 -53 -101 0 -76 41 -120 111 -120 107 0
155 134 75 209 -34 32 -93 37 -133 12z m107 -16 c20 -21 24 -37 25 -83 0 -76
-22 -112 -70 -112 -41 0 -61 19 -75 71 -29 106 56 192 120 124z"/>
<path d="M2258 325 c20 -15 22 -24 22 -115 0 -85 -2 -99 -17 -103 -10 -3 2 -5
27 -5 25 0 37 2 28 5 -15 4 -18 17 -18 90 l0 85 78 -93 77 -93 3 109 c2 78 6
113 16 120 10 8 3 11 -28 11 -22 0 -33 -1 -24 -4 23 -5 30 -33 26 -111 l-3
-64 -65 78 c-36 43 -67 81 -70 85 -3 4 -21 10 -40 14 -34 6 -34 6 -12 -9z"/>
<path d="M2674 331 c-53 -23 -83 -97 -64 -156 25 -75 120 -102 177 -49 l28 26
-29 -21 c-65 -47 -136 -10 -143 75 -4 56 10 92 48 113 36 20 76 7 99 -32 19
-31 20 -31 20 -7 0 14 -4 30 -8 37 -10 15 -101 25 -128 14z"/>
<path d="M2903 325 c-44 -19 -67 -66 -60 -124 13 -113 160 -142 212 -41 40 78
-16 181 -97 180 -13 -1 -37 -7 -55 -15z m82 -1 c46 -18 62 -140 24 -188 -29
-37 -80 -36 -109 2 -19 23 -21 37 -18 91 3 52 8 67 27 82 24 20 48 24 76 13z"/>
<path d="M3116 327 c11 -6 14 -32 14 -107 0 -84 -3 -101 -17 -109 -14 -8 -6
-10 32 -10 28 1 42 3 33 6 -14 3 -18 15 -18 54 0 65 16 64 66 -6 l39 -55 85 1
c47 1 77 3 68 6 -14 3 -18 15 -18 54 l0 49 38 0 c45 0 72 23 72 62 0 42 -29
58 -111 62 -41 2 -67 1 -59 -2 25 -9 30 -24 30 -109 0 -101 -4 -113 -41 -113
-22 0 -37 11 -70 52 l-40 52 25 13 c13 7 28 22 31 33 9 29 -20 70 -50 71 -86
5 -122 3 -109 -4z m102 -13 c40 -28 16 -94 -35 -94 -21 0 -23 4 -23 49 0 44 6
57 30 60 3 1 16 -6 28 -15z m230 0 c24 -17 30 -62 10 -82 -7 -7 -22 -12 -35
-12 -21 0 -23 5 -23 48 0 65 9 74 48 46z"/>
<path d="M3557 134 c-14 -14 -7 -35 11 -32 9 2 17 10 17 17 0 16 -18 25 -28
15z"/>
</g>
</svg>
