<?xml version="1.0" encoding="UTF-8"?>
<svg id="Capa_2" data-name="Capa 2" xmlns="http://www.w3.org/2000/svg" viewBox="0 0 180.5 119.25">
  <defs>
    <style>
      .cls-1 {
        letter-spacing: -.03em;
      }

      .cls-2 {
        letter-spacing: 0em;
      }

      .cls-3 {
        stroke-width: 2px;
      }

      .cls-3, .cls-4 {
        stroke: #fff;
        stroke-miterlimit: 10;
      }

      .cls-3, .cls-5 {
        fill: #fff;
      }

      .cls-4 {
        fill: none;
        stroke-width: 3px;
      }

      .cls-6 {
        letter-spacing: 0em;
      }

      .cls-7 {
        letter-spacing: -.01em;
      }

      .cls-8 {
        letter-spacing: -.09em;
      }

      .cls-5 {
        font-family: MyriadPro-Regular, 'Myriad Pro';
        font-size: 20px;
      }

      .cls-9 {
        letter-spacing: 0em;
      }

      .cls-10 {
        letter-spacing: -.03em;
      }

      .cls-11 {
        fill: #4d8c68;
      }
    </style>
  </defs>
  <g id="Capa_2-2" data-name="Capa 2">
    <path class="cls-4" d="M1,87.76H173.13s5.87,1.88,5.87,8.56v22.93"/>
    <text class="cls-5" transform="translate(8 110.2)"><tspan class="cls-6" x="0" y="0">A S</tspan><tspan class="cls-1" x="25.92" y="0">T</tspan><tspan class="cls-6" x="35.18" y="0">ORK </tspan><tspan class="cls-10" x="74.24" y="0">C</tspan><tspan class="cls-2" x="85.28" y="0">OM</tspan><tspan class="cls-8" x="114.86" y="0">P</tspan><tspan class="cls-2" x="123.68" y="0">A</tspan><tspan class="cls-7" x="135.78" y="0">N</tspan><tspan class="cls-9" x="148.66" y="0">Y</tspan></text>
    <path class="cls-3" d="M27.8,1H174.73c2.36,0,4.27,1.92,4.27,4.27V69.38c0,2-1.62,3.62-3.62,3.62H4.55c-1.96,0-3.55-1.59-3.55-3.55V27.8C1,13.01,13.01,1,27.8,1Z"/>
    <g>
      <path class="cls-11" d="M23,31c0-3.39,.19-6.07,0-8.78l9-.22v3h0c1.67-3.12,4.05-3,9-3,4.08,0,4.7,1.14,6,5l-.8,1.04c.93-1.83,2.1-3.25,3.34-4.27,1.79-1.49,3.77-2.3,6.62-2.3,3.96,0,9.84,2.84,9.84,14.22v19.3h-8v-19c0,.1,.39-5.9-4-6-3.09-.07-4.07,2.09-5,5-.25,.81,0-1.08,0,0v20h-9v-17c0-5.22,.15-8-4-8-3.4,0-3.13,1.02-4,4-.31,.88,0-.02,0,1v20h-9V31Z"/>
      <path class="cls-11" d="M90,55v-2l2.32-2.14c-1.89,2.66-5.53,5.04-10.36,5.04-6.86,0-10.36-4.83-10.36-9.73,0-8.19,5.31-12.23,18.41-12.17v-1c0-2.8,.93-4-6-4-3.15,0-7.62,.46-10,2l.04-7.52c2.8-1.82,6.86-3.01,11.13-3.01,10.36,0,13.82,6.74,13.82,13.53v13c0,2.94-.8,5.82-.38,8.13l-8.62-.13Zm0-15c-7,1-10-1.58-10,5,0,3.99,.85,4,4,4,4.41,0,5.02,.87,6-2,.21-.63,0-1.37,0-2v-5Z"/>
      <path class="cls-11" d="M148,55v-2l2.32-2.14c-1.89,2.66-5.53,5.04-10.36,5.04-6.86,0-10.36-4.83-10.36-9.73,0-8.19,5.31-12.23,18.41-12.17v-1c0-2.8,.93-4-6-4-3.15,0-7.62,.46-10,2l.04-7.52c2.8-1.82,6.86-3.01,11.13-3.01,10.36,0,13.82,6.74,13.82,13.53v13c0,2.94-.8,5.82-.38,8.13l-8.62-.13Zm0-15c-7,1-10-1.58-10,5,0,3.99,.85,4,4,4,4.41,0,5.02,.87,6-2,.21-.63,0-1.37,0-2v-5Z"/>
      <path class="cls-11" d="M103,45c1.82,1.19,6.92,5,10,5,4.48,0,5-.2,5-3,0-2.94-2.45-4.32-7-6-6.09-2.17-7-4.94-7-9,0-5.46,5.72-10,13-10,3.43,0,7.11,.88,9,2v8c-1.33-.84-5.85-4-9-4-3.64,0-5,1.48-5,4,0,2.8,5.59,3.32,10,5,5.88,2.24,6,4.96,6,10,0,5.95-6.3,10.83-14.36,10.83-3.71,0-8.26-2.43-10.64-3.83v-9Z"/>
    </g>
  </g>
</svg>