<?xml version="1.0" encoding="UTF-8"?><svg id="Capa_2" xmlns="http://www.w3.org/2000/svg" viewBox="0 0 36.81 12.12"><defs><style>.cls-1{fill:#fff;}.cls-2{fill:#4c8c68;}</style></defs><g id="Capa_1-2"><g><path class="cls-2" d="M28.21,10.88h.21c.1,0,.15-.07,.15-.17,0-.07-.04-.15-.15-.15h-.21v.32Zm0,.59h-.17v-1.02h.41c.2,0,.29,.13,.29,.25s-.09,.21-.22,.24h0c.13,.02,.17,.06,.18,.27,0,.04,.02,.2,.04,.27h-.16c-.04-.07-.03-.2-.04-.34-.01-.11-.11-.12-.15-.12h-.17v.46Zm-.59-.51c0,.42,.34,.76,.76,.76s.75-.34,.75-.76-.33-.76-.75-.76-.76,.34-.76,.76m1.64,0c0,.5-.4,.89-.89,.89s-.89-.39-.89-.89,.4-.89,.89-.89,.89,.39,.89,.89"/><polygon class="cls-1" points="0 6.03 18.39 0 36.81 6 18.39 12.12 0 6.03"/><path class="cls-2" d="M21.03,4.53h2.26v.3h-.11c-.11,0-.22,.09-.25,.18-.04,.1-.03,.2,0,.29l.68,1.63,.93-2.4h1.23l.96,2.38,.71-1.7c.01-.11,.01-.16-.05-.24-.06-.09-.12-.12-.23-.14h-.13v-.3h2.24v.3h-.17c-.13,0-.22,.05-.33,.13-.11,.08-.15,.15-.21,.27l-1.09,2.64c-.04,.12-.05,.19,0,.27,.04,.07,.12,.09,.21,.1h.16v.29h-2.2v-.29h.15c.07-.02,.12-.04,.16-.12,.04-.08,.02-.12-.01-.21l-.8-1.9-.79,1.88c-.04,.09-.05,.17-.01,.25,.03,.06,.09,.09,.17,.11h.1v.29h-2.18v-.29h.12c.09,0,.15-.03,.2-.1,.05-.09,.03-.17,0-.27l-1.11-2.7c-.05-.1-.06-.15-.17-.24-.08-.06-.14-.09-.26-.1h-.13v-.3Z"/><path class="cls-2" d="M18.39,7.49c-.77,0-1.4-.39-1.4-1.08s.61-1.11,1.42-1.11,1.42,.45,1.41,1.11c-.02,.69-.64,1.08-1.43,1.08m.02-3.32c-1.52,0-2.67,.9-2.67,2.25,0,1.4,1.18,2.21,2.65,2.2,1.47,0,2.66-.8,2.68-2.2,.01-1.35-1.16-2.25-2.66-2.25"/><path class="cls-2" d="M12.46,7.46h-1.63v-2.83h1.63c.78,0,1.22,.41,1.29,1.41,.05,.75-.49,1.43-1.29,1.42m.05-3.89h-3.4v.29h.15c.11,.02,.18,.04,.26,.12,.07,.06,.08,.12,.1,.22v3.68c0,.13-.03,.17-.09,.24-.06,.08-.14,.12-.27,.12h-.16v.29h3.42c1.08,0,2.45-.93,2.45-2.5,0-1.46-1.37-2.46-2.45-2.46"/></g></g></svg>