<?xml version="1.0" encoding="UTF-8"?>
<svg id="Capa_2" data-name="Capa 2" xmlns="http://www.w3.org/2000/svg" viewBox="0 0 289.68 314.28">
  <defs>
    <style>
      .cls-1 {
        fill: #fff;
      }
    </style>
  </defs>
  <g id="Capa_2-2" data-name="Capa 2">
    <g>
      <g>
        <path class="cls-1" d="M108.53,138.54l11.62-13.76s-38.06-29.96-15.44-74.9,77.66-31.49,88.97-18.34,0,1.83,0,1.83l12.82-15.98s-61.92-49.14-115.54,17.81c0,0-35.31,58.39,17.58,103.34Z"/>
        <path class="cls-1" d="M123.21,120.35l11.16-14.06s-22.93-14.22-9.78-44.33c13.44-30.8,48.09-20.7,55.64-11.92,7.55,8.78,0,0,0,0l11.31-14.22S151.94,.65,110.67,46.97c0,0-26.29,43.41,12.54,73.38Z"/>
        <path class="cls-1" d="M136.73,102.46l11.39-14.14s-5.51-4.47-4.66-13.61c1.15-12.31,19.19-12.23,23.01-7.8,3.82,4.43,0,0,0,0l10.01-13.76s-23.03-19.19-43.87,4.2c0,0-19.41,22.32,4.13,45.1Z"/>
      </g>
      <g>
        <path class="cls-1" d="M83.88,177.49l10.84-14.27s37.99,29.18,76.88-2.84c38.89-32.03,13.21-81.21-2.23-88.89-15.45-7.68-1.8,.43-1.8,.43l12.74-15.92s62.2,47.38,8.79,114.03c0,0-49.18,47.24-105.22,7.46Z"/>
        <path class="cls-1" d="M98.37,159.28l11.24-13.9s19.13,18.48,45.65-1.07c27.12-19.99,9.36-50.57-.96-55.7-10.32-5.13,0,0,0,0l11.36-14.08s43.43,29.42,7.43,79.5c0,0-36.56,35.16-74.72,5.25Z"/>
        <path class="cls-1" d="M112.81,142.23l11.27-14.14s5.63,4.2,14.39,1.25c11.79-3.97,7.62-21.11,2.41-23.7-5.21-2.59,0,0,0,0l11.2-12.74s24.03,17.41,5.84,42.7c0,0-17.45,23.68-45.11,6.63Z"/>
      </g>
      <g>
        <path class="cls-1" d="M31.09,204.21c-.52,.86-1.24,2.16-2.15,3.91-.29,.81-.8,1.95-1.53,3.44-.16,.23-.37,.35-.63,.35,.03,0-1.23-.46-3.78-1.39-2.55-.92-4.64-1.39-6.28-1.39-4.8,0-7.2,2.11-7.2,6.33,0,2.34,1.68,4.39,5.05,6.13,5.66,2.94,8.8,4.64,9.4,5.08,3.37,2.68,5.05,6.3,5.05,10.86,0,5.83-2.31,10.43-6.93,13.79-4.15,3.02-9.25,4.53-15.31,4.53-2.82,0-4.33-.31-4.54-.94-.1-.99-.34-2.43-.7-4.34-.21-.78-.54-1.95-.98-3.52-.08-.23-.12-.46-.12-.66,0-.36,.2-.55,.59-.55,.63,0,1.59,.07,2.88,.2,1.29,.13,2.26,.2,2.92,.2,8.09,0,12.14-2.6,12.14-7.81,0-2.55-1.63-4.77-4.89-6.64-5.95-3.38-8.99-5.14-9.12-5.27-3.29-2.66-4.93-6.22-4.93-10.7,0-4.84,1.59-8.72,4.78-11.64,3.11-2.81,7.13-4.22,12.06-4.22,2.09,0,4.49,.34,7.2,1.02,2.95,.76,5.17,1.67,6.66,2.73,.13,.1,.26,.27,.39,.51Z"/>
        <path class="cls-1" d="M47.26,208.35c0,3.2-1.79,4.8-5.36,4.8s-5.44-1.6-5.44-4.8c0-1.43,.56-2.62,1.68-3.55,1.04-.88,2.3-1.33,3.76-1.33s2.72,.46,3.78,1.37c1.06,.91,1.59,2.08,1.59,3.52Zm-.27,10.59c0,2.01-.12,5.03-.37,9.08-.25,4.05-.37,7.09-.37,9.12,0,1.9,.04,4.75,.12,8.54s.12,6.62,.12,8.5c0,.55-.23,.82-.7,.82h-7.64c-.55,0-.82-.53-.82-1.6,0-1.8,.05-4.5,.14-8.11,.09-3.61,.14-6.32,.14-8.14,0-2.03-.15-5.08-.45-9.14-.3-4.06-.45-7.11-.45-9.14,0-.44,.27-.66,.82-.66,.47,0,1.19,.07,2.17,.2,.98,.13,1.72,.2,2.21,.2s1.23-.06,2.21-.2c.98-.13,1.72-.2,2.21-.2,.44,0,.67,.25,.67,.74Z"/>
        <path class="cls-1" d="M87.9,234.09c0,1.93-.84,3.22-2.51,3.87-1.12,.42-9.2,1.19-24.24,2.3,.34,2.29,1.61,4.25,3.8,5.86,2.09,1.54,4.33,2.3,6.73,2.3,4.12,0,7.91-1.33,11.36-3.98,.42-.34,.83-.68,1.25-1.02,.21,0,.35,.03,.41,.08,.06,.05,.55,.96,1.47,2.71,.91,1.76,1.37,2.7,1.37,2.83,0,.16-.21,.46-.63,.9-3.84,4.06-8.76,6.09-14.76,6.09s-10.89-1.8-14.49-5.41c-3.6-3.61-5.4-8.42-5.4-14.43,0-5.36,1.72-10.04,5.17-14.02,3.63-4.14,8.08-6.21,13.35-6.21,4.91,0,9.01,1.8,12.29,5.39,3.21,3.49,4.82,7.73,4.82,12.73Zm-9.32-2.38c0-2.16-.86-4.08-2.56-5.74-1.71-1.67-3.64-2.5-5.78-2.5-2.4,0-4.54,.96-6.4,2.89-1.87,1.93-2.8,4.09-2.8,6.48,0,.55,.47,.82,1.41,.82,3.86,0,8.48-.39,13.86-1.17,1.51-.21,2.27-.47,2.27-.78Z"/>
        <path class="cls-1" d="M115.78,218.39c0,2.87-.2,5.47-.59,7.81-.08,.6-.34,.9-.78,.9-.55,0-1.38-.06-2.49-.18-1.11-.12-1.95-.18-2.53-.18-3.29,0-5.39,.92-6.3,2.77-.55,1.12-.82,3.45-.82,6.99v4.3c0,1.46,.06,3.67,.18,6.64s.18,5.18,.18,6.64c0,.7-.3,1.05-.9,1.05-.81,0-2.04-.01-3.68-.04-1.64-.03-2.87-.04-3.68-.04-.6,0-.9-.33-.9-.98,0-2.11,.03-5.29,.1-9.53,.06-4.24,.1-7.43,.1-9.57,0-6.43-.6-11.6-1.8-15.51-.05-.21-.08-.36-.08-.47,0-.31,.17-.53,.51-.66,.97-.1,2.32-.26,4.07-.47,2.82-.52,4.12-.78,3.92-.78,.42,0,.69,.77,.82,2.3,.13,1.54,.37,2.3,.7,2.3,.05,0,.12-.03,.2-.08,1.07-.68,2.14-1.35,3.21-2.03,1.17-.7,2.37-1.22,3.6-1.56,1.02-.31,2.32-.47,3.92-.47,2.04,0,3.05,.27,3.05,.82Z"/>
        <path class="cls-1" d="M142.49,218.39c0,2.87-.2,5.47-.59,7.81-.08,.6-.34,.9-.78,.9-.55,0-1.38-.06-2.49-.18-1.11-.12-1.95-.18-2.53-.18-3.29,0-5.39,.92-6.3,2.77-.55,1.12-.82,3.45-.82,6.99v4.3c0,1.46,.06,3.67,.18,6.64s.18,5.18,.18,6.64c0,.7-.3,1.05-.9,1.05-.81,0-2.04-.01-3.68-.04-1.64-.03-2.87-.04-3.68-.04-.6,0-.9-.33-.9-.98,0-2.11,.03-5.29,.1-9.53,.06-4.24,.1-7.43,.1-9.57,0-6.43-.6-11.6-1.8-15.51-.05-.21-.08-.36-.08-.47,0-.31,.17-.53,.51-.66,.97-.1,2.32-.26,4.07-.47,2.82-.52,4.12-.78,3.92-.78,.42,0,.69,.77,.82,2.3,.13,1.54,.37,2.3,.7,2.3,.05,0,.12-.03,.2-.08,1.07-.68,2.14-1.35,3.21-2.03,1.17-.7,2.37-1.22,3.6-1.56,1.02-.31,2.32-.47,3.92-.47,2.04,0,3.05,.27,3.05,.82Z"/>
        <path class="cls-1" d="M184.86,219.72c0,.1-.04,.34-.12,.7-1.02,5.96-1.53,11.11-1.53,15.43,0,.26,.32,6.11,.98,17.54l.04,.55c.03,.76-.32,1.13-1.04,1.13s-1.8,.08-3.25,.25c-1.45,.17-2.53,.25-3.23,.25-.5,0-.88-.91-1.14-2.73-.26-1.82-.51-2.73-.74-2.73-.16,0-.86,.51-2.11,1.52-1.54,1.25-2.98,2.2-4.31,2.85-2.06,1.04-4.13,1.56-6.19,1.56-5.06,0-9.33-2.02-12.8-6.05-3.29-3.85-4.93-8.35-4.93-13.48,0-5.78,1.66-10.56,4.97-14.34,3.47-3.93,8.04-5.9,13.7-5.9,3.99,0,7.48,1.38,10.45,4.14,.44,.52,1.14,1.28,2.08,2.27,.08,.08,.16,.12,.23,.12,.16,0,.38-.82,.67-2.46,.29-1.64,.65-2.46,1.1-2.46,.7,0,2.02,.2,3.95,.59,2.14,.47,3.21,.89,3.21,1.25Zm-9.98,16.33c0-3.2-.95-5.95-2.86-8.24-2.01-2.47-4.58-3.71-7.71-3.71s-5.74,1.22-7.83,3.67c-2.01,2.34-3.01,5.1-3.01,8.28s1,5.89,3.01,8.2c2.09,2.42,4.7,3.63,7.83,3.63s5.61-1.24,7.67-3.71c1.93-2.32,2.9-5.03,2.9-8.12Z"/>
        <path class="cls-1" d="M234.5,246.05c0,.31-.25,.76-.74,1.33-5.09,5.89-11.39,8.83-18.91,8.83s-14.1-2.85-18.79-8.55c-4.39-5.31-6.58-11.95-6.58-19.92s2.23-14.63,6.7-20c4.75-5.78,11.03-8.67,18.83-8.67s14.03,2.67,18.36,8.01c.42,.55,.63,1,.63,1.37,0,.44-.69,1.75-2.08,3.93-1.38,2.17-2.22,3.26-2.51,3.26-.34,0-1.14-.64-2.39-1.91-1.54-1.56-2.99-2.73-4.35-3.52-2.25-1.28-4.73-1.91-7.44-1.91-5.17,0-9.19,1.97-12.06,5.9-2.56,3.52-3.84,7.94-3.84,13.28s1.27,9.8,3.8,13.4c2.87,4.04,6.88,6.05,12.02,6.05,2.56,0,5.02-.64,7.4-1.91,1.57-.83,3.16-2.02,4.78-3.55,1.36-1.28,2.1-1.91,2.23-1.91,.16,0,1.02,1.04,2.58,3.11s2.35,3.21,2.35,3.42Z"/>
        <path class="cls-1" d="M274.25,236.05c0,5.44-1.79,10.09-5.36,13.95-3.66,3.98-8.18,5.98-13.59,5.98s-9.97-1.98-13.63-5.94c-3.58-3.83-5.36-8.46-5.36-13.91s1.79-10.08,5.36-13.91c3.68-3.91,8.22-5.86,13.63-5.86s9.89,1.95,13.55,5.86c3.6,3.8,5.4,8.41,5.4,13.83Zm-8.26,.08c0-3.18-.98-5.88-2.94-8.12-2.04-2.37-4.62-3.55-7.75-3.55s-5.73,1.17-7.79,3.52c-1.96,2.27-2.94,4.99-2.94,8.16s.99,5.83,2.98,8.12c2.09,2.42,4.67,3.63,7.75,3.63s5.69-1.21,7.75-3.63c1.96-2.29,2.94-5,2.94-8.12Z"/>
        <path class="cls-1" d="M289.68,200.89l-.04,.51c-.57,9.69-.86,18.01-.86,24.96,0,3.1,.05,7.74,.16,13.93,.1,6.19,.16,10.81,.16,13.89,0,.6-.21,.9-.63,.9h-7.48c-.47,0-.7-.3-.7-.9,0-3.07,.03-7.7,.08-13.89,.05-6.18,.08-10.83,.08-13.93,0-2.81-.14-7.04-.41-12.68-.27-5.64-.41-9.85-.41-12.64,0-.52,.27-.78,.82-.78,.47,0,1.17,.04,2.11,.12s1.64,.12,2.11,.12c.5,0,1.23-.04,2.19-.12,.97-.08,1.68-.12,2.15-.12s.69,.21,.67,.62Z"/>
      </g>
      <g>
        <path class="cls-1" d="M82.38,286.93c0,1.57-.68,2.61-2.03,3.14-.91,.34-7.46,.96-19.65,1.87,.27,1.86,1.3,3.45,3.08,4.76,1.69,1.25,3.51,1.87,5.46,1.87,3.34,0,6.41-1.08,9.2-3.24,.34-.27,.68-.55,1.02-.83,.17,0,.28,.02,.33,.06,.05,.04,.45,.78,1.19,2.21,.74,1.43,1.11,2.2,1.11,2.3,0,.13-.17,.37-.51,.73-3.11,3.3-7.1,4.95-11.96,4.95s-8.82-1.46-11.74-4.4c-2.92-2.93-4.38-6.84-4.38-11.73,0-4.36,1.4-8.16,4.19-11.39,2.94-3.36,6.55-5.05,10.82-5.05,3.98,0,7.3,1.46,9.97,4.38,2.6,2.84,3.9,6.29,3.9,10.35Zm-7.55-1.94c0-1.76-.69-3.31-2.08-4.67-1.39-1.35-2.95-2.03-4.68-2.03-1.95,0-3.68,.78-5.19,2.35-1.51,1.57-2.27,3.32-2.27,5.27,0,.44,.38,.67,1.14,.67,3.13,0,6.88-.32,11.23-.95,1.23-.17,1.84-.38,1.84-.63Z"/>
        <path class="cls-1" d="M114.79,303.34c0,.47-.21,.7-.63,.7-.7,0-1.74-.01-3.13-.03-1.39-.02-2.43-.03-3.13-.03-.38,0-.57-.31-.57-.92,0-1.04,.03-2.61,.1-4.73,.06-2.12,.09-3.7,.09-4.76,0-.85-.01-2.11-.03-3.79-.02-1.68-.03-2.95-.03-3.79,0-2.41-.35-4.11-1.05-5.11-.85-1.18-2.41-1.78-4.7-1.78-1.06,0-2.53,.59-4.41,1.78-1.99,1.25-2.98,2.36-2.98,3.33v19.04c0,.53-.2,.79-.6,.79-.68,0-1.69-.01-3.05-.03-1.35-.02-2.37-.03-3.05-.03-.45,0-.67-.24-.67-.73,0-1.67,.03-4.18,.08-7.52,.05-3.34,.08-5.86,.08-7.55,0-4.51-.48-8.67-1.43-12.47-.06-.19-.09-.33-.09-.41,0-.21,.14-.36,.41-.44,.15-.02,1.36-.22,3.63-.59s3.46-.56,3.57-.56c.13,0,.21,.17,.25,.51,.11,1.31,.35,2.63,.73,3.97,1.1-.87,2.55-1.95,4.35-3.24,2.22-1.35,4.37-2.03,6.44-2.03,3.98,0,6.7,1.15,8.16,3.46,1.08,1.69,1.62,4.43,1.62,8.22,0,.66-.02,1.66-.05,3.02-.03,1.35-.05,2.37-.05,3.05,0,1.42,.02,3.53,.06,6.35,.04,2.81,.06,4.93,.06,6.35Z"/>
        <path class="cls-1" d="M147.7,286.93c0,1.57-.68,2.61-2.03,3.14-.91,.34-7.46,.96-19.65,1.87,.27,1.86,1.3,3.45,3.08,4.76,1.69,1.25,3.51,1.87,5.46,1.87,3.34,0,6.41-1.08,9.2-3.24,.34-.27,.68-.55,1.02-.83,.17,0,.28,.02,.33,.06,.05,.04,.45,.78,1.19,2.21,.74,1.43,1.11,2.2,1.11,2.3,0,.13-.17,.37-.51,.73-3.11,3.3-7.1,4.95-11.96,4.95s-8.82-1.46-11.74-4.4c-2.92-2.93-4.38-6.84-4.38-11.73,0-4.36,1.4-8.16,4.19-11.39,2.94-3.36,6.55-5.05,10.82-5.05,3.98,0,7.3,1.46,9.97,4.38,2.6,2.84,3.9,6.29,3.9,10.35Zm-7.55-1.94c0-1.76-.69-3.31-2.08-4.67-1.39-1.35-2.95-2.03-4.68-2.03-1.95,0-3.68,.78-5.19,2.35-1.51,1.57-2.27,3.32-2.27,5.27,0,.44,.38,.67,1.14,.67,3.13,0,6.88-.32,11.23-.95,1.23-.17,1.84-.38,1.84-.63Z"/>
        <path class="cls-1" d="M170.29,274.17c0,2.33-.16,4.44-.48,6.35-.06,.49-.28,.73-.63,.73-.45,0-1.12-.05-2.02-.14-.9-.1-1.58-.14-2.05-.14-2.67,0-4.37,.75-5.11,2.25-.44,.91-.67,2.8-.67,5.68v3.49c0,1.18,.05,2.98,.14,5.39,.09,2.41,.14,4.21,.14,5.4,0,.57-.24,.86-.73,.86-.66,0-1.65-.01-2.98-.03-1.33-.02-2.33-.03-2.98-.03-.49,0-.73-.26-.73-.79,0-1.71,.03-4.3,.08-7.74,.05-3.45,.08-6.04,.08-7.78,0-5.23-.49-9.43-1.46-12.6-.04-.17-.06-.3-.06-.38,0-.25,.14-.43,.41-.54,.78-.08,1.88-.21,3.3-.38,2.29-.42,3.34-.63,3.17-.63,.34,0,.56,.62,.67,1.87,.11,1.25,.3,1.87,.57,1.87,.04,0,.1-.02,.16-.06,.87-.55,1.73-1.1,2.6-1.65,.95-.57,1.92-.99,2.92-1.27,.83-.25,1.88-.38,3.17-.38,1.65,0,2.48,.22,2.48,.67Z"/>
        <path class="cls-1" d="M201.75,274.39c0,2.54-.02,6.35-.06,11.44-.04,5.09-.06,8.9-.06,11.44,0,5.04-1.08,8.75-3.24,11.14-2.26,2.54-5.88,3.81-10.85,3.81s-8.69-.91-11.65-2.73c-.47-.3-.7-.55-.7-.76,0,.23,.32-1.33,.95-4.7,.06-.36,.21-.54,.44-.54,.11,0,.24,.05,.41,.16,3.17,1.82,6.36,2.73,9.55,2.73,2.09,0,3.83-.47,5.21-1.4,1.59-1.06,2.38-2.59,2.38-4.6,0-.45-.04-1.44-.13-2.98-2.35,2.86-5.33,4.29-8.95,4.29-3.91,0-7.13-1.41-9.65-4.22-2.41-2.71-3.62-6.04-3.62-10s1.16-7.44,3.49-10.25c2.48-3,5.69-4.51,9.65-4.51,3.49,0,6.26,1.34,8.32,4.03,.34,.44,.58,.67,.73,.67,.17,0,.25-.19,.25-.57,0-.27-.02-.71-.06-1.32-.04-.6-.06-1.05-.06-1.35,0-1.27,.13-1.9,.38-1.9,.21,0,1.35,.2,3.43,.59,2.07,.39,3.21,.63,3.4,.71,.3,.11,.45,.38,.45,.83Zm-7.62,13.08c0-2.37-.65-4.38-1.94-6.03-1.42-1.8-3.28-2.7-5.59-2.7s-4.14,.91-5.55,2.73c-1.29,1.65-1.94,3.65-1.94,6s.66,4.3,1.97,5.97c1.42,1.82,3.26,2.73,5.52,2.73s4.08-.91,5.52-2.73c1.33-1.67,2-3.66,2-5.97Z"/>
        <path class="cls-1" d="M234.31,281.88c0,3.58-.11,5.73-.32,6.47-.28,.95-2.89,5.1-7.86,12.46s-7.91,11.46-8.84,12.33c-.85,.76-3.58,1.14-8.19,1.14-.55,0-.9-.06-1.06-.17-.16-.12-.52-.88-1.08-2.3-.56-1.42-.84-2.26-.84-2.54,0-.47,.56-.7,1.68-.7,2.37,0,4.12-.34,5.24-1.02,.38-.23,.96-.96,1.73-2.19,.77-1.23,1.16-2.05,1.16-2.48,0-.57-1.53-2.8-4.6-6.7-3.24-4.13-5.05-6.74-5.43-7.84-.3-.87-.44-2.94-.44-6.22,0-.8,0-2.02,.03-3.63,.02-1.62,.03-2.84,.03-3.67,0-.46,.25-.7,.76-.7,.68,0,1.68,.04,3,.13,1.32,.08,2.32,.13,3,.13,.34,0,.51,.22,.51,.67,0,.59-.03,1.48-.09,2.67-.06,1.19-.1,2.07-.1,2.67,0,2.58,.08,4.51,.25,5.78,.13,.8,1.28,2.8,3.46,6,2.18,3.2,3.52,4.79,4.03,4.79,.36,0,1.5-1.57,3.43-4.71,1.92-3.14,2.95-5.08,3.08-5.82,.17-1.06,.25-2.98,.25-5.78,0-.61-.06-1.52-.19-2.71s-.19-2.09-.19-2.68c0-.53,.17-.79,.51-.79,.68,0,1.7-.05,3.06-.14,1.36-.1,2.38-.14,3.06-.14,.63,0,.95,2.57,.95,7.71Z"/>
      </g>
    </g>
  </g>
</svg>