<?xml version="1.0" standalone="no"?>
<!DOCTYPE svg PUBLIC "-//W3C//DTD SVG 20010904//EN"
 "http://www.w3.org/TR/2001/REC-SVG-20010904/DTD/svg10.dtd">
<svg version="1.0" xmlns="http://www.w3.org/2000/svg"
 width="191.000000pt" height="110.000000pt" viewBox="0 0 191.000000 110.000000"
 preserveAspectRatio="xMidYMid meet">

<g transform="translate(0.000000,110.000000) scale(0.100000,-0.100000)"
fill="#fff" stroke="none">
<path d="M234 589 c-57 -22 -104 -62 -104 -90 0 -10 -7 -24 -15 -33 -32 -32
-13 -117 37 -162 94 -86 235 -63 290 47 39 74 9 190 -61 236 -41 28 -80 28
-147 2z m110 -50 c29 -14 56 -64 56 -106 0 -16 5 -34 12 -41 9 -9 9 -15 0 -24
-7 -7 -12 -22 -12 -34 0 -31 -77 -68 -120 -59 -16 4 -30 11 -30 16 0 5 -7 9
-16 9 -9 0 -32 16 -50 36 -30 31 -34 42 -34 87 1 58 10 75 60 106 38 23 95 27
134 10z"/>
<path d="M1020 440 l0 -160 24 0 c24 0 25 1 25 93 0 50 0 96 1 100 0 5 33 -33
73 -84 39 -51 84 -106 99 -123 l27 -31 1 163 c0 154 -1 162 -20 162 -18 0 -20
-8 -22 -102 l-3 -103 -45 56 c-25 31 -67 86 -95 122 -27 37 -53 66 -57 67 -5
0 -8 -72 -8 -160z"/>
<path d="M584 556 c-39 -17 -71 -58 -84 -105 -24 -92 48 -181 147 -181 40 0
104 27 110 46 6 19 -27 25 -50 9 -26 -18 -96 -19 -117 -2 -31 24 -50 62 -50
100 0 31 7 46 34 73 40 40 83 45 133 15 27 -17 33 -18 43 -6 15 18 8 29 -34
49 -41 19 -90 20 -132 2z"/>
<path d="M1355 545 c-29 -29 -33 -75 -7 -97 9 -9 36 -25 58 -36 44 -23 57 -42
47 -70 -14 -37 -65 -44 -85 -12 -15 24 -48 27 -48 5 0 -29 47 -65 83 -65 52 0
87 33 87 80 0 57 -7 68 -66 96 -38 18 -54 31 -54 45 0 27 41 45 70 29 17 -9
25 -9 34 0 8 9 5 16 -13 31 -32 26 -77 24 -106 -6z"/>
<path d="M1605 495 c-19 -42 -35 -78 -35 -80 0 -2 -14 -34 -31 -70 -17 -37
-29 -68 -27 -70 11 -10 52 20 61 45 11 29 14 30 74 30 62 0 62 0 74 -35 10
-26 19 -35 36 -35 13 0 23 2 23 5 0 2 -27 61 -60 131 -33 69 -60 130 -60 135
0 4 -4 11 -10 14 -5 3 -25 -28 -45 -70z m60 -45 c24 -47 20 -60 -20 -60 -19 0
-35 4 -35 9 0 12 29 81 35 81 2 0 11 -13 20 -30z"/>
<path d="M810 420 l0 -140 80 0 c64 0 80 3 80 15 0 12 -13 15 -60 15 l-60 0 0
50 0 50 55 0 c48 0 55 2 55 20 0 18 -7 20 -55 20 l-55 0 0 35 0 35 60 0 c53 0
60 2 60 20 0 18 -7 20 -80 20 l-80 0 0 -140z"/>
</g>
</svg>
