<?xml version="1.0" standalone="no"?>
<!DOCTYPE svg PUBLIC "-//W3C//DTD SVG 20010904//EN"
 "http://www.w3.org/TR/2001/REC-SVG-20010904/DTD/svg10.dtd">
<svg version="1.0" xmlns="http://www.w3.org/2000/svg"
 width="600.000000pt" height="315.000000pt" viewBox="0 0 600.000000 315.000000"
 preserveAspectRatio="xMidYMid meet">

<g transform="translate(0.000000,315.000000) scale(0.100000,-0.100000)"
fill="#fff" stroke="none">
<path d="M2393 1998 c-16 -22 -83 -135 -83 -142 0 -3 15 -6 33 -6 35 0 31 -4
145 132 l24 28 -55 0 c-32 0 -59 -5 -64 -12z"/>
<path d="M508 1830 c-50 -15 -96 -50 -112 -84 -13 -28 -16 -73 -16 -260 l0
-226 65 0 65 0 0 204 0 205 27 21 c19 15 35 19 53 15 50 -13 50 -14 50 -236
l0 -209 68 0 67 0 3 208 c3 197 4 208 24 225 15 12 30 16 47 12 51 -13 51 -14
51 -236 l0 -209 65 0 65 0 0 231 c0 151 -4 238 -11 252 -22 42 -53 67 -102 82
-68 20 -123 6 -175 -46 l-38 -39 -14 25 c-28 52 -120 85 -182 65z"/>
<path d="M2755 1824 c-40 -15 -80 -46 -96 -76 -5 -9 -12 -122 -15 -252 l-6
-236 66 0 66 0 1 53 c1 28 4 124 8 212 l6 160 29 14 c26 12 33 12 55 0 l26
-15 3 -212 2 -212 70 0 70 0 0 201 c0 111 4 208 10 219 14 26 57 34 86 15 l24
-15 0 -210 0 -210 65 0 65 0 0 239 0 239 -26 32 c-36 42 -79 62 -134 62 -55 0
-98 -20 -133 -61 l-24 -29 -23 30 c-24 33 -91 68 -130 67 -14 0 -43 -7 -65
-15z"/>
<path d="M1275 1821 c-87 -22 -164 -83 -200 -156 -29 -59 -32 -171 -7 -227 61
-139 225 -212 370 -164 64 22 143 91 173 153 63 131 1 302 -134 368 -56 27
-152 39 -202 26z m139 -135 c79 -33 115 -131 77 -208 -68 -139 -270 -119 -311
31 -33 124 106 230 234 177z"/>
<path d="M1650 1546 l0 -286 65 0 65 0 2 218 3 217 30 3 c17 2 39 -4 50 -12
19 -13 20 -28 23 -220 l3 -206 65 0 64 0 0 229 c0 220 -1 229 -23 261 -41 62
-76 75 -219 79 l-128 3 0 -286z"/>
<path d="M2265 1821 c-97 -27 -155 -73 -195 -155 -30 -61 -32 -72 -28 -140 6
-86 34 -144 98 -199 74 -63 196 -84 293 -51 60 20 139 92 168 151 63 131 1
301 -134 368 -56 27 -152 40 -202 26z m139 -135 c79 -33 115 -131 77 -208 -68
-139 -270 -119 -311 31 -33 124 106 230 234 177z"/>
<path d="M3528 1817 c-92 -26 -164 -94 -199 -188 -39 -102 -16 -204 66 -285
68 -68 128 -89 237 -81 95 6 166 41 217 108 l34 44 -71 3 c-56 2 -77 -1 -104
-18 -40 -24 -131 -27 -182 -6 -31 13 -76 59 -76 77 0 5 101 9 225 9 l225 0 0
53 c0 191 -189 335 -372 284z m148 -133 c30 -14 74 -61 74 -78 0 -3 -65 -6
-145 -6 -80 0 -145 3 -145 8 0 15 46 62 75 77 39 19 98 19 141 -1z"/>
<path d="M3920 1545 l0 -285 66 0 65 0 -2 217 c-1 209 0 218 19 231 27 18 60
1 74 -39 9 -27 13 -29 65 -29 l56 0 -5 51 c-11 106 -63 139 -225 139 l-113 0
0 -285z"/>
<path d="M4485 1821 c-95 -25 -182 -99 -209 -178 -78 -230 128 -438 366 -369
68 20 147 86 177 151 32 67 29 174 -5 243 -28 56 -88 112 -147 137 -45 18
-141 27 -182 16z m168 -154 c45 -34 72 -101 62 -154 -10 -53 -77 -118 -131
-127 -91 -16 -184 47 -199 132 -11 69 35 147 105 175 8 4 40 5 72 4 43 -2 64
-10 91 -30z"/>
<path d="M5087 1820 c-136 -34 -233 -158 -225 -287 l3 -48 223 -3 223 -2 -22
-31 c-25 -35 -89 -68 -132 -69 -15 0 -44 8 -65 17 -37 17 -202 34 -202 21 0
-21 73 -95 120 -122 50 -28 63 -31 145 -31 69 0 98 4 125 19 104 56 159 135
168 242 l5 64 -227 0 c-131 0 -226 4 -226 9 0 16 51 71 81 86 41 22 117 19
157 -5 25 -15 50 -20 107 -20 41 0 75 4 75 9 0 21 -86 102 -133 125 -59 29
-144 40 -200 26z"/>
</g>
</svg>
