<?xml version="1.0" encoding="UTF-8"?><svg id="Capa_2" xmlns="http://www.w3.org/2000/svg" viewBox="0 0 260.32 160.74"><defs><style>.cls-1{fill:#fff;}.cls-2{fill:#4d8c68;}</style></defs><g id="Capa_1-2"><g><path class="cls-1" d="M221.11,32.82c-45.44-5.49-88.25-.59-125.83,28.75,.65,.62,.83,.92,1.08,.99,2.16,.62,5.85-1.17,6.35,1.08,.92,4.11,.27,8.58,.24,12.9,0,.23-.44,.66-.68,.65-7.51-.14-3.47,4.75-2.81,7.31,3.82,14.63,8,29.16,12.04,43.73,.52,1.89,.97,3.79,1.46,5.71-8.13,1.53-14.67,.22-20.71-5.7-8.54-8.37-18.1-15.7-26.96-23.77-2.96-2.69-3.81-1.69-5.13,1.23-3.64,8.08-6.5,16.41-7.77,25.16-.46,3.19-1.76,3.78-4.48,3.57-4.13-.32-9.91,1.75-11.97-.78-2.08-2.55,1.22-7.69,2.25-11.65,3.52-13.51,7.26-26.97,10.88-40.46,.52-1.93,1.99-4.46-2.09-4.16-1.88,.14-2.13-1.15-2.12-2.61,0-2,.21-4.02-.05-5.99-.57-4.46,.49-7.14,5.71-6.13,2.49,.48,3.52-.79,3.98-3.16,1.61-8.31,3.38-16.6,5.05-24.9,.15-.77,.29-2.17,0-2.3-5.1-2.32-1.45-6.74-2.46-10.01-.39-1.25,.26-2.51,1.79-2.27,3.96,.61,4.18-2.19,4.68-4.82,.25-1.31,.44-2.63,.71-3.93C66.63-.18,67.78-.9,79.66,.56c1.95,.24,2.54,1.13,2.85,2.71,.57,2.93,.92,5.93,1.78,8.78,1.02,3.36-.33,8.53,6.13,8.2,1.7-.09,2.24,10.17,.17,11.17-2.66,1.28-1.64,2.99-1.37,4.54,.76,4.42,2.04,8.77,2.61,13.21,.49,3.82,1.52,3.35,4.21,1.58,24.02-15.79,50.49-24.44,79.12-26.33,15.12-1,29.96,.41,43.84,7.24,.72,.36,1.41,.77,2.12,1.16Z"/><path class="cls-1" d="M167.99,134.42c-3.73,0-6.85-.14-9.95,.05-2.47,.15-3.05-1.61-3.86-3.2-5.65-11.08-11.27-22.18-16.99-33.43-1.65,1.43-.89,3.01-.91,4.34-.08,9.66-.16,19.33,.02,28.99,.06,3.28-1.56,3.76-3.99,3.09-2.28-.63-6.4,2.63-6.38-3.18,.1-25.32,.08-50.65-.02-75.97-.01-2.81,1.09-3.32,3.53-3.27,5.99,.13,12-.12,17.99,.11,8.11,.31,12.49,3.98,14.66,11.79,3.77,13.55-.2,23.16-12.69,29.92-2.7,1.46-1,2.65-.35,3.92,5.31,10.36,10.68,20.68,16.02,31.02,.9,1.75,1.76,3.53,2.91,5.84Z"/><path class="cls-1" d="M260.32,134.41c-3.83,0-7.09-.05-10.35,.02-2.34,.05-2.5-1.83-3.05-3.3-3.48-9.33-6.92-18.67-10.76-29.05-3.25,8.87-6.19,16.9-9.15,24.92q-2.88,7.79-12.39,7.12c2.16-4.84,4.23-9.47,6.29-14.11,3.43-7.75,6.7-15.57,10.36-23.21,1.3-2.71,1.08-4.83-.02-7.45-4.52-10.71-8.84-21.51-13.19-32.29-.48-1.2-1.73-2.55-.94-3.71,.92-1.35,2.4-.25,3.62,.14,.16,.05,.35,.15,.48,.11,7.41-2.63,8.25,3.14,10.03,7.79,2.26,5.89,4.62,11.74,7.3,18.55,2.92-6.94,5.52-13.08,8.1-19.24q3.04-7.25,10.82-7.48c1.08,1.44-.29,2.49-.76,3.54-4.26,9.56-8.53,19.12-13.03,28.57-1.41,2.96-1.35,5.42-.08,8.43,5.62,13.29,10.98,26.68,16.7,40.69Z"/><path class="cls-1" d="M.09,93.11c0-12.31,.14-24.63-.09-36.94-.07-3.59,1.06-4.53,4.49-4.37,5.81,.27,11.65-.09,17.47,.12,9.45,.35,13.87,4.31,15.64,13.58,2.62,13.77-1.78,24.44-12.01,29.49-3.25,1.61-6.68,2.36-10.15,1.94-4.42-.54-5.25,1.3-5.14,5.29,.27,9.31-.26,18.65,.21,27.95,.31,6.17-3.86,3.7-6.58,4.23-3.73,.73-3.9-1.48-3.88-4.33,.1-12.31,.04-24.63,.04-36.94Z"/><path class="cls-1" d="M73.11,159.9c-12.81,0-25.62-.09-38.42,.07-3.06,.04-3.91-.82-3.94-3.9-.12-11.7-.24-11.7,11.52-11.7,22.95,0,45.91,.07,68.86-.08,3.6-.02,4.9,.73,4.83,4.63-.18,10.97,.02,10.98-10.92,10.98-10.65,0-21.29,0-31.94,0Z"/><path class="cls-1" d="M177.13,53.6c4.76-1.9,9.72-.53,14.58-.81,4.32-.25,8.66,0,12.99-.07,5.35-.09,1.89,3.82,2.47,5.74,.91,3.03-1.75,2.14-3.08,1.86-5.44-1.15-12.21-2.8-15.97,.06-3.39,2.58-.74,9.66-1.08,14.74-.11,1.66-.02,3.33-.02,5q0,9.12,9.31,8.25c1.49-.14,2.96-.49,4.45-.66,4.47-.52,6.38,1.96,4.87,6.24-.57,1.6-1.85,1.04-2.89,.96-3.98-.3-7.96-.65-11.93-1.06-2.6-.27-3.93,.33-3.86,3.43,.19,9.16,.16,18.32,.01,27.48-.05,2.9,1.09,3.95,3.79,3.72,4.81-.41,9.61-.85,14.42-1.21,1.16-.09,3.18-.85,2.81,1.38-.32,1.9,1.5,5.49-1.31,5.52-9.84,.1-19.75,1.31-29.56-.62,.66-1.07,.44-2.25,.44-3.4,.01-24.38,.01-48.77,0-73.15,0-1.15,.21-2.33-.43-3.4Z"/><path class="cls-1" d="M174.13,144.56c.92,.33,1.84,.65,2.75,.98,4.48,3.61,4.54,9.26,.14,14.09l.09-.07c-3.11,1.46-5.16-.6-5.59-2.88-.79-4.2-1.78-8.86,2.61-12.12Z"/><path class="cls-1" d="M177.13,53.6c1.34,1.17,.9,2.76,.91,4.19,.02,23.86,.02,47.72,0,71.57,0,1.44,.43,3.02-.92,4.19-.11-16.39-.29-32.79-.31-49.18-.01-10.26,.2-20.52,.32-30.78Z"/><path class="cls-1" d="M133.64,160.04c-3.75-1.03-3.24-4.27-5.26-5.45-1.07,1.53,.52,3.66-2.33,5.81,0-5.38-.26-9.99,.1-14.55,.2-2.47,2.73-1.26,4.08-1.2,2.63,.11,3.65,2.99,2.6,4.25-3.15,3.78-1.2,7.02,.81,11.14Z"/><path class="cls-1" d="M259.71,145.4c-.91,2.14-3-1.16-3.63,1.28-.55,2.15,.48,3.42,2.09,4.59,2.63,1.92,2.59,4.56,1.28,7.12-1.03,2.01-2.76,2.84-5.15,1.01,.82-1.64,4.29,.33,3.96-2.94-.22-2.15-1.44-3.15-2.8-4.38-2.2-2-2.19-4.52-.52-6.7,1.39-1.81,3.22-1.81,4.77,.01Z"/><path class="cls-1" d="M156.87,159.77c4.15-2.27,4.03-4.44,.86-7.25-3.03-2.69-2.66-7.15,.32-8.23,1.24-.45,2.8-.3,2.93,.89,.32,2.97-1.38,.11-2.02,.53-3.23,2.14-1.18,3.92,.59,5.33,2.91,2.34,3.09,4.95,1.25,7.86-.71,1.12-1.84,1.95-3.93,.86Z"/><path class="cls-1" d="M240.21,159.45c-.06-3.31,.09-6.65-.21-9.94-.38-4.14,.88-6.03,5.66-4.56-1.6,1.06-3.84,.98-3.73,3.82,.1,2.62,1.92,2.49,3.64,3.36-4.99,.45-3.24,3.79-3.33,6.29-.02,1.65-.68,2.01-2.03,1.03Z"/><path class="cls-1" d="M142.05,159.59c-.07-3.46,.08-6.95-.26-10.39-.45-4.57,1.51-5.53,5.51-4.25-4.25,1.95-4.59,3.41-1.48,6.54,.42,.42,1.35,.68,.14,.98-4.11,1.02-1.36,3.98-1.81,6.03,.06,1.83-.88,1.72-2.1,1.09Z"/><path class="cls-1" d="M209.01,144.75c1.75-.13,3.72-1.02,4.97,1,1.18,1.9,1.07,3.99-.48,5.52-3.41,3.36,2.16,5.33,1.03,8.5-3.3-.63-2.52-4.91-5.25-5.88-.79-.39-.68-1.13-.68-1.81,1.31-1.94,4.55-3.72,.48-6.09-.32-.39-.33-.8-.08-1.23Z"/><path class="cls-1" d="M225.88,159.75c-3.27-3.63-4.01-8.99-1.74-12.62,1.99-3.17,4.9-3.47,8.41-.21-2.52-.39-4.83-2.81-6.28,.22-1.9,3.97-2.14,7.88,.69,11.58,.18,.91,0,1.44-1.09,1.03Z"/><path class="cls-1" d="M174.13,144.56c-1.71,3.25-2.88,6.6-2.2,10.36,.53,2.92,1.82,4.92,5.18,4.64-1.92,1.78-3.64,.85-5.17-.52-4.01-3.56-2.73-11.83,2.19-14.48Z"/><path class="cls-1" d="M191.18,159.46c-2.97-4.67-1.6-9.62-1.1-14.53,2.35,4.39-.58,9.72,2.75,13.89,.02,1.68-.72,1.41-1.65,.64Z"/><path class="cls-1" d="M177.02,159.62c2.36-4.72,3.64-9.43-.14-14.09,3.66-.43,4.06,2.36,4.21,4.76,.24,3.68,.88,7.8-4.07,9.32Z"/><path class="cls-1" d="M196.89,156.45v-11.45l1.39-.04c.89,4.14,.43,8.35-.29,12.57-.94,.23-1.41-.02-1.1-1.07Z"/><path class="cls-1" d="M209.01,144.75c.06,.34,.13,.68,.19,1.02,1.39,1.85,1.4,3.7,.04,5.57,.02,.85,.03,1.7,.05,2.55,0,1.76,0,3.53,0,5.29-1.04-4.83-2.69-9.65-.27-14.42Z"/><path class="cls-1" d="M196.89,156.45c.37,.36,.73,.72,1.1,1.07-1.45,3.51-3.74,4.09-6.8,1.94,.55-.22,1.1-.43,1.65-.64,2.01,.34,3.15-.82,4.06-2.37Z"/><path class="cls-1" d="M225.88,159.75c.36-.34,.72-.69,1.09-1.03,1.66,1.17,3.23-.49,5.52-.62-2.2,3.04-4.22,3.28-6.6,1.65Z"/><path class="cls-1" d="M142.05,159.59c.89,.01,1.72-.11,2.1-1.09,1.16,.25,2.63-.63,3.67,1.3-2.06,.89-3.88,1.37-5.76-.21Z"/><path class="cls-1" d="M240.21,159.45c.88,.06,1.72,.04,2.03-1.03,1.15,.34,2.67-.55,3.71,1.41-2.09,.69-3.92,1.5-5.74-.38Z"/><path class="cls-2" d="M93.36,111.86c-7.5-6.49-14.97-13.01-22.52-19.46-1.51-1.29-2.07-2.39-.68-4.12,2.39-2.97,4.69-6.01,6.95-9.07,1.98-2.68,4.79-1.82,7.32-1.72,2.54,.1,2.21,2.5,2.62,4.15,2.45,9.93,4.84,19.87,7.25,29.8-.32,.14-.64,.28-.95,.42Z"/><path class="cls-2" d="M74.6,44.29c-1.99-.75-2.38-2.55-3.38-3.81-1.89-2.39-4.04-5.36-1.7-7.97,1.82-2.04,5.42-1.11,8.02-.61,2.9,.57,2.84,3.27,1.64,5.48-1.33,2.43-3.04,4.64-4.57,6.92Z"/><path class="cls-2" d="M67.45,62.29c2.37-3.61,4.32-6.59,6.71-10.25,2.41,3.57,4.46,6.62,6.91,10.25h-13.62Z"/><path class="cls-2" d="M64.81,58.29c.97-5.82,1.72-10.37,2.49-14.96,5.56,4.12,5.43,5.28-2.49,14.96Z"/><path class="cls-2" d="M83.48,57.5c-7.52-7.56-7.7-8.55-2.55-14.81,.87,5.06,1.65,9.59,2.55,14.81Z"/><path class="cls-2" d="M76.86,16.94c.59,3.28-1.11,3.32-2.89,3.29-1.57-.02-3.49-.12-2.51-2.31,.92-2.06-.95-5.93,2.59-6.07,3.72-.15,1.4,4.09,2.82,5.09Z"/><path class="cls-1" d="M136.24,73.29c0-4.65,.08-9.3-.03-13.94-.06-2.18,.69-2.76,2.88-2.75,5.57,.03,9.55,2.35,11.9,7.39,4.57,9.79,.25,22.81-8.56,25.9-5.15,1.8-6.16,1.13-6.17-4.15-.01-4.15,0-8.3,0-12.45Z"/><path class="cls-1" d="M10.38,73.59c0-4.66,.11-9.32-.05-13.98-.08-2.43,.78-3.03,3.15-3.08,7.92-.15,10.74,1.8,12.76,9.54,1.86,7.12,.64,13.84-2.94,20.17-1.16,2.06-2.77,3.71-5.08,4.57-5.67,2.11-7.85,.67-7.85-5.24,0-3.99,0-7.99,0-11.98Z"/><path class="cls-1" d="M128.43,151.73c-.45-2.29-1.2-4.3,.41-5.96,.58-.61,1.49,.35,1.79,1.11,.84,2.1,.3,3.67-2.2,4.85Z"/><path class="cls-1" d="M209.23,151.34c-.01-1.86-.03-3.71-.04-5.57,2.25-.74,3.55,.27,3.54,2.44,0,2.04-.7,3.92-3.5,3.13Z"/></g></g></svg>