<?xml version="1.0" encoding="UTF-8"?>
<svg id="Capa_2" data-name="Capa 2" xmlns="http://www.w3.org/2000/svg" viewBox="0 0 168.93 79.95">
  <defs>
    <style>
      .cls-1 {
        fill: #fff;
      }

      .cls-2 {
        fill: #e8eae9;
      }

      .cls-3 {
        fill: #4d8c68;
      }
    </style>
  </defs>
  <g id="Capa_2-2" data-name="Capa 2">
    <g>
      <g>
        <rect class="cls-2" width="41.12" height="79.95"/>
        <rect class="cls-1" x="41.12" width="41.12" height="79.95"/>
        <polygon class="cls-2" points="41.12 12.19 82.24 0 82.24 2.79 41.12 15.17 41.12 12.19"/>
        <polygon class="cls-1" points="41.12 17.6 0 5.41 0 8.2 41.12 20.58 41.12 17.6"/>
        <polygon class="cls-1" points="41.12 29.52 0 17.33 0 20.12 41.12 32.5 41.12 29.52"/>
        <polygon class="cls-2" points="41.12 24.46 82.24 12.27 82.24 15.06 41.12 27.44 41.12 24.46"/>
      </g>
      <g>
        <path class="cls-3" d="M3.27,36.9h15.89v4.59H7.08v14.1h11.16v4.53H7.08v19.2H3.27V36.9Z"/>
        <path class="cls-3" d="M25.25,65.1c.09,7.49,3.41,10.57,7.27,10.57,2.76,0,4.42-.69,5.87-1.57l.66,3.96c-1.36,.88-3.68,1.89-7.05,1.89-6.52,0-10.42-6.17-10.42-15.35s3.77-16.43,9.94-16.43c6.92,0,8.76,8.75,8.76,14.35,0,1.13-.09,2.01-.13,2.58h-14.89Zm11.3-3.96c.04-3.52-1.01-9-5.34-9-3.9,0-5.6,5.16-5.91,9h11.25Z"/>
        <path class="cls-3" d="M45.04,58.36c0-3.59-.04-6.67-.18-9.5h3.37l.13,5.98h.18c.96-4.09,3.28-6.67,5.87-6.67,.44,0,.74,.06,1.09,.19v5.22c-.39-.13-.79-.19-1.31-.19-2.71,0-4.64,2.96-5.17,7.11-.09,.75-.17,1.64-.17,2.58v16.24h-3.81v-20.96Z"/>
        <path class="cls-3" d="M65.04,40.11v8.75h5.52v4.22h-5.52v16.43c0,3.78,.74,5.92,2.89,5.92,1.01,0,1.75-.19,2.23-.38l.17,4.15c-.74,.44-1.93,.75-3.41,.75-1.8,0-3.24-.82-4.16-2.33-1.09-1.64-1.49-4.34-1.49-7.93v-16.61h-3.28v-4.22h3.28v-7.3l3.76-1.45Z"/>
        <path class="cls-3" d="M79.18,40.3c.04,1.89-.92,3.4-2.45,3.4-1.36,0-2.32-1.51-2.32-3.4s1.01-3.46,2.41-3.46,2.36,1.51,2.36,3.46Zm-4.29,39.02v-30.46h3.85v30.46h-3.85Z"/>
      </g>
      <g>
        <path class="cls-1" d="M83.58,78.64V36.9h4.08l9.29,21.12c2.15,4.89,3.83,9.29,5.2,13.56l.09-.06c-.34-5.57-.43-10.65-.43-17.15v-17.46h3.53v41.74h-3.78l-9.2-21.18c-2.02-4.64-3.96-9.41-5.42-13.93l-.13,.06c.22,5.26,.3,10.28,.3,17.22v17.83h-3.53Z"/>
        <path class="cls-1" d="M116.39,40.25c.04,1.86-.9,3.34-2.41,3.34-1.33,0-2.28-1.49-2.28-3.34s.99-3.41,2.37-3.41,2.32,1.49,2.32,3.41Zm-4.21,38.39v-29.97h3.78v29.97h-3.78Z"/>
        <path class="cls-1" d="M126.79,40.06v8.61h5.42v4.15h-5.42v16.16c0,3.72,.73,5.82,2.84,5.82,.99,0,1.72-.19,2.19-.37l.17,4.09c-.73,.43-1.89,.74-3.35,.74-1.76,0-3.18-.8-4.08-2.29-1.08-1.61-1.46-4.27-1.46-7.8v-16.35h-3.22v-4.15h3.22v-7.18l3.7-1.42Z"/>
        <path class="cls-1" d="M136.47,58.02c0-3.53-.04-6.56-.17-9.35h3.31l.13,5.88h.17c.95-4.03,3.22-6.56,5.76-6.56,.43,0,.73,.06,1.08,.19v5.14c-.39-.12-.77-.19-1.29-.19-2.67,0-4.56,2.91-5.07,7-.09,.74-.17,1.61-.17,2.54v15.98h-3.74v-20.62Z"/>
        <path class="cls-1" d="M168.93,63.41c0,11.09-5.33,15.91-10.36,15.91-5.63,0-9.98-5.94-9.98-15.42,0-10.03,4.56-15.91,10.32-15.91s10.02,6.25,10.02,15.42Zm-16.51,.31c0,6.56,2.62,11.52,6.32,11.52s6.32-4.89,6.32-11.64c0-5.08-1.76-11.52-6.23-11.52s-6.41,5.94-6.41,11.64Z"/>
      </g>
    </g>
  </g>
</svg>