<?xml version="1.0" encoding="UTF-8"?><svg id="Capa_2" xmlns="http://www.w3.org/2000/svg" viewBox="0 0 340.01 97.32"><defs><style>.cls-1{fill:#fff;}.cls-2{fill:#285275;}.cls-3{fill:#4d8c68;}</style></defs><g id="Capa_1-2"><g><path class="cls-1" d="M202.77,54.3c4.83-11.24,7.54-20.15,9.13-26.37,1.82-7.08,5.58-13.53,7.73-20.51,.37-1.2,1.15-3.9,3.57-5.63,.51-.36,1.96-1.3,8.54-1.62,5.18-.25,7.77-.38,8.32,.77,.77,1.61-2.66,4.58-4.5,6.43-8.49,8.52-12.5,22.53-19.29,45.64-.38,1.28-1.28,4.49-3.98,5.89-.77,.4-1.81,.71-6.31,.54-4.25-.17-6.37-.25-7.39-.64-3.62-1.4-3.69-5.04-7.31-12.6-4.74-9.91-9.67-14.17-7.79-17.14,.29-.46,1.48-1.21,3.86-2.69,2.86-1.79,4.29-2.68,5.13-2.61,.13,.01,.25,.03,.38,.07,2.36,.78,4.06,4.5,6.05,8.93,2.76,6.14,3.48,7.3,3.74,10.02,.06,.65,.08,1.7,.11,3.8,.05,3.24,.03,5.9,0,7.71Z"/><path class="cls-1" d="M69.89,25.58c.16-5.8,4.51-3.06,7.19-3.44,3.51-.5,2.4,2.4,2.42,4.09,.09,9.14,.09,18.27,0,27.41-.02,1.83,1.18,4.92-2.64,4.38-2.67-.38-7.18,2.37-6.92-3.7-9.49,5.91-18.38,5.43-23.86-1.2-5.95-7.2-5.51-20.42,.9-27.16,6-6.31,14.3-6.47,22.91-.38Z"/><path class="cls-1" d="M97.9,27.36c3.07-3.29,5.61-5.02,8.77-5.83,9.42-2.4,16.71,2.77,17.13,12.57,.3,6.97-.09,13.98,.12,20.96,.14,4.6-3.11,2.72-5.16,2.98-2.39,.31-4.53,.4-4.33-3.34,.31-5.81,.17-11.64,.05-17.46-.12-6.06-2.13-8.71-6.43-8.93-5.03-.25-9.12,3.41-9.39,8.94-.28,5.81-.33,11.65-.03,17.46,.22,4.26-2.5,3.34-4.84,3.37-2.43,.03-4.86,.73-4.71-3.52,.32-9.13-.11-18.29,.06-27.44,.03-1.71-2.28-5.13,2.24-5.02,3.09,.07,7.19-1.38,6.53,5.27Z"/><path class="cls-1" d="M0,22.42q9.6-.89,12.96,7.25c2.22,5.36,4.48,10.71,6.73,16.06,.12,.29,.43,.5,.83,.95,2.53-5.9,5.02-11.61,7.42-17.36,3.27-7.84,3.25-7.85,12.24-6.83-5.15,11.42-10.17,22.77-15.42,34-1.26,2.7-8.41,2.33-9.67-.43C10,44.93,5.05,33.72,0,22.42Z"/><path class="cls-1" d="M155.34,50.67c-1.18,2.78,1.59,6.01-2.12,7.39-4.83,1.81-12.3-.35-15-4.13-1.7-2.38-2.35-5.11-2.36-8-.01-4.49-.14-8.99,.04-13.47,.1-2.54-.59-3.85-3.29-3.37-3.12,.55-3.83-.76-3.89-3.79-.06-3.34,1.58-3.42,3.96-3.23,1.15,.09,2.31,.02,3.71,.02-.19-1.32-.58-2.49-.49-3.63,.15-1.71-1.08-4.3,.97-4.94,2.26-.71,4.94-.33,7.39-.05,1.14,.13,1.06,1.64,.88,2.55-1.11,5.67,1.83,6.83,6.59,6.06,2.58-.42,3.2,.65,3.4,3.24,.29,3.79-1.61,4.19-4.39,3.74-4.55-.74-6.26,1-5.63,5.59,.34,2.45,.06,4.98,.06,7.48,.02,7.84,1.57,9.25,10.16,8.55Z"/><path class="cls-1" d="M170.56,40.27c0,4.98-.09,9.97,.03,14.95,.11,4.6-3.29,2.53-5.29,2.81-2.05,.28-4.26,.69-4.19-2.93,.21-9.96,.22-19.94,0-29.9-.1-4.52,2.96-2.9,5.07-3.08,2.27-.2,4.68-.66,4.45,3.21-.3,4.97-.07,9.96-.07,14.95Z"/><path class="cls-1" d="M69.43,92.49c2.15-4.16,3.97-7.68,5.81-11.2,.6-1.14,1.05-2.59,2.83-2.15,1.77,.44,.97,1.88,.92,2.87-.25,4.31-.67,8.61-.94,12.93-.08,1.32-.26,2.3-1.92,2.12-1.5-.17-1.2-1.23-1.18-2.21,.03-1.74,0-3.48,0-6.78-1.79,3.44-2.81,5.61-4.03,7.67-1.23,2.07-2.64,1.94-3.57-.23-.96-2.22-1.65-4.56-3.14-6.75-.21,2.2-.46,4.39-.63,6.59-.09,1.22-.65,1.78-1.88,1.72-1.48-.08-1.36-1.07-1.27-2.11,.36-4.47,.68-8.95,1.03-13.42,.09-1.13-.06-2.43,1.71-2.45,1.58-.02,1.79,1.16,2.18,2.26,1.23,3.43,2.5,6.84,4.07,11.15Z"/><path class="cls-1" d="M150.17,90.88c.44-6.88,2.84-8.61,9.63-6.5,1.34,.42,2.15,.5,3.52,.05,4.67-1.55,7.07,.35,6.41,5.41-.32,2.4,1.34,6.99-2.19,6.88-3.51-.1-.79-4.24-1.25-6.53-.28-1.4,.43-3.22-1.79-3.36-1.91-.12-2.46,1.3-2.63,2.94-.17,1.65-.41,3.29-.6,4.94-.13,1.1,.17,2.39-1.67,2.38-2.29-.02-1.57-1.64-1.57-2.81,0-1.66,.12-3.31,.2-4.97,.06-1.27-.15-2.4-1.69-2.5-1.31-.08-2.26,.61-2.5,1.93-.32,1.8-.41,3.63-.76,5.42-.22,1.1,.62,2.91-1.64,2.91-2.69,0-1.52-1.96-1.61-3.22-.07-.98,.08-1.98,.14-2.98Z"/><path class="cls-1" d="M216.73,84.72c.1-.47,.16-.97,.32-1.42,.65-1.75-1.03-5.24,2.39-4.85,2.81,.32,1.02,3.24,1.06,4.97,.05,2.3-.53,4.62-.42,6.91,.24,4.6-.9,7.16-6.36,6.83-4.31-.26-6.63-1.64-6.78-5.86-.17-4.79,2.28-7.6,6.54-7.36,1.08,.06,2.13,.51,3.25,.79Z"/><path class="cls-1" d="M284.44,89.94c-1.33,1.39,2.95,6.9-2.92,6.87-8.63-.05-10.02-1.37-9.67-6.68,.27-4.12,2.95-7,6.63-6.02,2.47,.65,8.81-2.49,5.96,5.84Z"/><path class="cls-1" d="M256.01,90.58c-1.47,1.68,2.36,6.6-3.48,6.33-8.33-.39-9.74-1.42-9.52-6.5,.18-4.26,2.59-6.69,6.44-6.5q6.9,.34,6.56,6.67Z"/><path class="cls-1" d="M94.1,90.32c-.42,7.25-.42,7.27-7.91,6.77-4.14-.28-5.16-3.17-5.12-6.61,.05-4.19,2.66-6.71,6.49-6.57q6.9,.25,6.54,6.41Z"/><path class="cls-1" d="M185.11,89.37q-.43,7.99-7.74,7.73c-3.57-.13-5.67-2.84-5.34-6.9,.34-4.18,2.91-6.7,6.78-6.2,3.46,.45,9.22-1.05,6.29,5.37Z"/><path class="cls-1" d="M328.16,89.39q-.5,8-7.76,7.7c-3.55-.15-5.69-2.92-5.34-6.92,.37-4.21,2.91-6.67,6.82-6.2,3.53,.42,9.14-.9,6.28,5.42Z"/><path class="cls-1" d="M300,90.53c-1.06,1.9,1.45,6.45-2.61,6.22-2.9-.17-.69-4.02-.9-6.2-.16-1.61,.4-3.56-2.05-3.76-2.16-.17-2.82,1.47-3.08,3.17-.27,1.79-.3,3.62-.39,5.44-.06,1.25-.71,1.72-1.9,1.68-1.34-.04-1.64-.87-1.57-1.98,.21-3.13,.47-6.26,.66-9.39,.06-.94,.44-1.85,1.37-1.54,2.32,.8,4.48-.49,6.72-.25,4,.43,3.83,3.4,3.74,6.62Z"/><path class="cls-1" d="M138.03,90.33c-.03,4.26-2.61,6.83-6.82,6.76-4.15-.06-6.39-2.4-6.19-6.63,.19-4.1,2.22-6.5,6.51-6.56,4.14-.06,6.52,2.32,6.5,6.43Z"/><path class="cls-1" d="M230.14,94.32c1.01,.16,3.11-1.88,3.26,.72,.12,1.98-2.21,1.93-3.8,2.07-2.63,.24-5.01-.29-6.42-2.76-1.55-2.71-1.12-5.44,.5-7.95,1.41-2.18,3.6-2.76,6.07-2.49,2.93,.32,4.5,2,4.45,4.92-.06,3.49-2.85,1.62-4.44,2.14-1.24,.4-3.51-1.02-3.58,1.22-.06,2.02,1.96,2.31,3.96,2.13Z"/><path class="cls-1" d="M166.13,17.6c-3.59-.3-5.96-1.99-5.85-5.54,.09-3.15,2.03-5.1,5.43-5.15,3.66-.06,5.62,1.85,5.62,5.38,0,3.35-2.25,4.86-5.19,5.31Z"/><path class="cls-1" d="M117.19,91.62c-.47-1.62,1.17-3.18-.97-5.22-1.34-1.28,2.13-4.65,3.53-6.99,.85-1.43,3-1.94,4.49-1.01,1.28,.8,1.25,2.03-.64,2.78-1.68,.67-3.9,1.87-.07,2.9,1.99,.54,1.28,2.27,.42,2.37-3.87,.44-2.57,3.34-3.14,5.49-.48,1.79,1.1,5.32-2.3,4.97-3.44-.36-.29-3.6-1.31-5.29Z"/><path class="cls-1" d="M308.9,87.21c-1.37-.16-1.87-.16-2.34-.28-1.24-.32-3.52,.95-3.41-1.53,.11-2.31,2.29-1.17,3.54-1.28,2.31-.19,4.65-.05,7.18-.05-.04,4.7-4.62,6.02-6.2,9.42,.07,.12,.15,.48,.37,.59,1.6,.83,4.97-1.12,4.87,1.52-.11,3.16-3.45,.87-5.26,1.45-.75,.24-1.67,.15-2.48,.01-1.03-.17-2.47,.73-3.02-.82-.47-1.3,.53-2.17,1.3-3.03,1.64-1.84,3.3-3.64,5.46-6.01Z"/><path class="cls-1" d="M103.96,93.54c-1.26-1.9-3.14-1.72-4.56-2.45-1.64-.84-2.78-1.94-2.27-3.9,.58-2.21,2.22-3.23,4.44-3.26,1.96-.03,4.08-.37,5.45,1.56,.19,.27,.02,1.01-.24,1.35-.64,.84-1.5,.34-2.22,.09-1.43-.49-3.39-1.31-3.87,.49-.53,2,1.96,1.65,3.14,2.14,2.03,.85,3.53,1.85,3.18,4.33-.28,1.96-1.67,2.89-3.39,3.09-2.47,.28-5.02,.48-7.15-1.23-.21-.17-.11-.94,.07-1.32,.41-.87,1.03-1,2-.62,1.68,.65,3.45,1.28,5.41-.28Z"/><path class="cls-1" d="M194.77,93.74c-.52-1.97-2.15-1.75-3.28-2.2-1.97-.78-3.83-1.65-3.41-4.17,.43-2.57,2.42-3.38,4.76-3.47,1.49-.06,3-.06,4.35,.75,.57,.34,1.04,.75,.88,1.57-.23,1.14-.96,1.16-1.84,.92-1.69-.46-3.45-1.71-4.9,.45,.73,1.91,2.74,1.63,4.15,2.27,1.73,.79,2.72,1.81,2.54,3.75-.2,2.21-1.72,3.11-3.65,3.42-.97,.16-1.99,.11-2.98,.04-1.6-.12-4.04-.21-3.93-1.96,.19-2.95,2.42-.9,3.76-.73,1.33,.17,2.5,.17,3.55-.64Z"/><path class="cls-1" d="M271.83,84.28c-1.99,3.86-3.85,7.34-5.58,10.88-.55,1.13-1.1,1.9-2.5,1.96-1.64,.07-1.82-1.15-2.19-2.18-1.02-2.78-1.97-5.59-2.95-8.39-.29-.83-1.29-1.88,.2-2.38,1.08-.36,2.3-.24,2.88,1.17,.85,2.11,1.01,4.5,2.53,6.35,3.13-1.74,1.38-8.26,7.62-7.41Z"/><path class="cls-1" d="M331.04,92.32c.1-1.44,.14-2.27,.21-3.09,.37-4.66,3.47-6.74,7.76-5.3,.82,.27,.98,.75,1,1.42,.03,.95-.34,1.62-1.4,1.58-3.63-.16-3.46,2.52-4.12,4.96-.47,1.75,1.22,5.22-2.05,5.03-3.84-.23,.38-3.74-1.41-4.6Z"/><path class="cls-1" d="M140.08,93.58c.14-1.3,.24-2.28,.35-3.26q.72-6.37,6.65-6.36c.81,0,1.76-.2,2.01,.86,.19,.79,.05,2.12-.75,2.08-5.04-.24-4.15,3.52-4.65,6.47-.24,1.41,.61,3.76-2.07,3.68-3.14-.09-.6-2.64-1.53-3.46Z"/><path class="cls-2" d="M94.04,77.14c-2.05,2.67-2.85,5.23-6.43,6.04,1.08-3.24,1.46-6.14,6.43-6.04Z"/><path class="cls-3" d="M70.18,39.98c-.01,7.29-3.15,11.19-9.04,11.27-6.32,.08-9.62-3.77-9.6-11.22,.02-7.33,3.53-11.76,9.34-11.76,5.9,0,9.33,4.31,9.31,11.72Z"/><path class="cls-3" d="M216.52,90.11c-.04,2.14-.65,4.12-3.06,4.3-2.15,.16-3.22-1.48-3.21-3.49,0-2.05,.57-4,3.11-4.21,2.38-.2,3.04,1.4,3.16,3.41Z"/><path class="cls-3" d="M275.1,90.47c.36-2,.97-3.93,3.61-3.75,2.1,.14,2.74,1.77,2.67,3.54-.08,2.06-.56,4.14-3.27,4.08-2.37-.05-2.88-1.82-3.01-3.87Z"/><path class="cls-3" d="M249.54,94.48c-2.36-.14-3.28-1.71-3.24-3.68,.05-2.09,.77-4.06,3.38-4.11,2.16-.04,2.76,1.53,2.84,3.35,.09,2.21-.6,3.95-2.98,4.45Z"/><path class="cls-3" d="M90.87,90.13c-.29,1.86-.56,3.97-3.08,4.21-2.29,.23-3.19-1.35-3.2-3.38-.02-2.05,.37-4.08,2.94-4.32,2.29-.21,3.09,1.36,3.34,3.48Z"/><path class="cls-3" d="M181.9,90.06c-.35,2.31-.96,4.33-3.39,4.38-2.22,.04-3.03-1.68-2.99-3.7,.04-2.12,.63-3.99,3.21-4.05,2.41-.06,2.72,1.86,3.16,3.37Z"/><path class="cls-3" d="M324.87,90.32c-.24,2.19-.95,4.11-3.42,4.08-2.27-.03-2.97-1.83-2.9-3.8,.07-2.12,.79-4.02,3.36-3.97,2.34,.04,2.83,1.82,2.96,3.69Z"/><path class="cls-3" d="M131.48,86.6c2.31,.05,3.25,1.53,3.21,3.55-.04,2.06-.66,4.14-3.17,4.3-2.22,.13-3.34-1.49-3.25-3.51,.08-1.99,.63-4,3.21-4.33Z"/><path class="cls-3" d="M230.98,87.87c-.27,1.5-1.5,.98-2.32,.94-.76-.04-2.23,.71-2.13-.86,.06-.95,1.22-1.5,2.23-1.59,1.07-.09,1.86,.43,2.21,1.51Z"/></g></g></svg>