<svg version="1.2" xmlns="http://www.w3.org/2000/svg" viewBox="0 0 1808 912" width="359.000000pt" height="140.000000pt">
	<title>isagen-ai</title>
	<style>
		.s0 { fill: #fff } 
		.s1 { fill: #fff } 
		.s2 { fill: #fff } 
		.s3 { fill: #fff } 
	</style>
	<g id="Capa 1">
		<g id="&lt;Group&gt;">
			<path id="&lt;Path&gt;" class="s0" d="m676.9 599.7l-13-19.6q-0.2-0.2-0.7-1.2c-0.2-0.4-0.3-0.6-0.3-0.7-0.2-0.3-0.3-0.5-0.5-1v22.2h-5.5v-30.3h6.7l12.7 19.9c0.1 0.2 0.2 0.4 0.3 0.7 0.2 0.3 0.3 0.5 0.3 0.6l0.3 0.8 0.3 0.5v-22.5h5.4v30.6z"/>
			<path id="&lt;Path&gt;" class="s0" d="m721 599.4v-30.3h18.5v4.9h-12.7v7.5h10.4v4.9h-10.4v8.1h13.3v4.9z"/>
			<path id="&lt;Compound Path&gt;" fill-rule="evenodd" class="s0" d="m791.6 599.4l-7-12.1h-2.9v12.1h-5.8v-30.3h10.2c4.4 0 6.4 0.6 8.2 2.2 1.6 1.6 2.5 3.8 2.5 6.6 0 2.4-0.6 4.3-1.7 5.7-1.1 1.5-2.2 2.2-4.7 2.8l7.5 13zm-6.1-25.4h-3.7v8.4h3.7c3.7 0 5.3-1.3 5.3-4.3 0-2.9-1.5-4.1-5.3-4.1z"/>
			<path id="&lt;Path&gt;" class="s0" d="m855 599c-3.2 0.8-5.1 1-7.7 1-10 0-17-6.4-17-15.8 0-4.6 1.7-8.6 5-11.5 3.1-2.9 6.6-4.1 11.9-4.1 2.2 0 4.4 0.2 6.3 0.7 1.5 0.4 2.4 0.7 4.5 1.6l-1.4 4.8q-1.6-0.6-2.4-0.9c-2.2-0.7-4.4-1-6.3-1-6.8 0-11.5 4.1-11.5 10.2 0 6.2 5.1 10.9 11.9 10.9 1.4 0 2.2-0.2 4-0.7v-8.3h5.8v12.4q-2.1 0.5-3.1 0.7z"/>
			<path id="&lt;Compound Path&gt;" class="s0" d="m895.2 569.1h5.8v30.3h-5.8zm3.8-1.3h-4.3l4.3-5.4h5.2z"/>
			<path id="&lt;Compound Path&gt;" fill-rule="evenodd" class="s0" d="m956.1 599.4l-2.4-7.5h-10.1l-2.5 7.5h-6.1l11-30.3h5.2l11 30.3zm-7.5-23.4l-3.5 11h7.1z"/>
			<path id="&lt;Compound Path&gt;" fill-rule="evenodd" class="s0" d="m1056.8 586.6c-2.2 1.8-4.9 2.6-9 2.6-1.2 0-1.8-0.1-2.8-0.2v10.4h-5.8v-30.3h10.4c3.9 0 6.1 0.7 8 2.5 1.7 1.7 2.6 4 2.6 6.8 0 3.4-1.2 6.2-3.4 8.2zm-7.8-12.6h-4v10.1l0.7 0.1h0.8c0.6 0 1 0 1.2 0 4.5 0 6.5-1.6 6.5-5.4 0-3.3-1.6-4.8-5.2-4.8z"/>
			<path id="&lt;Compound Path&gt;" fill-rule="evenodd" class="s0" d="m1110.3 599.4l-6.9-12.1h-2.9v12.1h-5.8v-30.3h10.1c4.4 0 6.5 0.6 8.3 2.2q2.4 2.3 2.4 6.6c0 2.4-0.5 4.3-1.6 5.7-1.2 1.5-2.2 2.2-4.7 2.8l7.5 13zm-6.1-25.4h-3.8v8.4h3.8c3.7 0 5.3-1.3 5.3-4.3 0-2.9-1.5-4.1-5.3-4.1z"/>
			<path id="&lt;Compound Path&gt;" fill-rule="evenodd" class="s0" d="m1165.2 600c-9.5 0-16.1-6.5-16.1-15.7 0-9.4 6.5-15.7 16.1-15.7 9.6 0 16.1 6.3 16.1 15.7 0 9.2-6.7 15.7-16.1 15.7zm0-26.4c-5.7 0-10 4.6-10 10.7 0 6.1 4.3 10.7 10 10.7 5.7 0 9.9-4.6 9.9-10.7 0-6.1-4.2-10.7-9.9-10.7z"/>
			<path id="&lt;Compound Path&gt;" fill-rule="evenodd" class="s0" d="m1240.4 595c-2.8 3-6.8 4.4-12.3 4.4h-11.2v-30.3h11.3c5.7 0 9.3 1.3 12.3 4.5 2.6 2.8 4.1 6.6 4.1 10.6 0 4-1.5 7.9-4.2 10.8zm-5.6-19c-1.6-1.2-3.9-1.8-7.2-1.8h-4.6v20.1h4.6c6.9 0 10.7-3.6 10.7-10.1 0-3.4-1.3-6.6-3.5-8.2z"/>
			<path id="&lt;Path&gt;" class="s0" d="m1300.8 597.8c-2.2 1.5-4.8 2.2-8.5 2.2-3.8 0-6.3-0.6-8.6-2.2-3.1-2.1-4.2-4.6-4.2-10.2v-18.5h5.8v18.8c0 4.5 2.3 6.8 7.2 6.8 4.4 0 6.7-2.5 6.7-6.8v-18.8h5.8v18.5c0 5.6-1 8-4.2 10.2z"/>
			<path id="&lt;Path&gt;" class="s0" d="m1363.4 576.1q-2.9-2.2-6.9-2.2c-5.9 0-10.1 4.2-10.1 9.9 0 6.5 4.4 10.8 11 10.8 2.1 0 3.9-0.4 6.6-1.4l1.1 4.9c-1.9 0.8-2.7 1.1-4.1 1.4-1.5 0.3-3.1 0.6-4.9 0.6-4.7 0-8.1-1.3-10.9-3.9-3.3-2.8-5.1-7.4-5.1-12.1 0-4.4 1.6-8.4 4.6-11.3 3-3 6.4-4.2 11.4-4.2 3.9 0 6.9 0.9 9.5 2.8z"/>
			<path id="&lt;Path&gt;" class="s0" d="m1413.3 574v25.4h-5.8v-25.4h-9.1v-4.9h24v4.9z"/>
			<path id="&lt;Path&gt;" class="s0" d="m1456.6 569.1h5.7v30.3h-5.7z"/>
			<path id="&lt;Path&gt;" class="s0" d="m1511.7 600.3h-4l-11.3-31.2h6.4l6.9 20.5 0.1 0.4 0.1 0.5 0.1 0.6v-0.3c0-0.5 0-0.6 0.1-0.8l0.2-0.4 6.6-20.5h6.1z"/>
			<path id="&lt;Compound Path&gt;" fill-rule="evenodd" class="s0" d="m1572.7 599.4l-2.4-7.5h-10.1l-2.5 7.5h-6.1l11-30.3h5.2l11 30.3zm-7.6-23.4l-3.4 11h7z"/>
			<path id="&lt;Path&gt;" class="s0" d="m601.9 345.1h33.6v175.8h-33.6z"/>
			<path id="&lt;Path&gt;" class="s0" d="m803.9 386.9c-18.6-8.3-33.8-12.5-45.5-12.5-15.8 0-25.9 6.4-25.9 16.2 0 7.5 4.3 12 16.8 18.7 26.9 14.3 44.5 25.6 52.8 33.8 7.4 7.5 11.9 19.2 11.9 31.5 0 31.4-22.9 49.8-61.8 49.8-5.3 0-10.6-0.5-15.7-1.1-12.5-1.8-18.4-3.7-36.8-12.2-2.4-1.1-6.4-3-11.4-5.3l14.1-31c12.8 7 18.1 9.6 25.1 12.3 8.7 3.2 18.3 5 25.3 5 15.4 0 25.5-6.9 25.5-17.5 0-7.5-4-12.6-15.4-19l-27.2-15.4c-31.2-17.9-40.8-29.6-40.8-48.8 0-8.8 2.7-17.8 7-24.5 2.9-4.5 7.4-9 13-13.1 12.8-8.7 23.7-11.7 44.3-11.7 11.7 0 22.1 1.4 33 4.5 8.5 2.7 13.3 4.6 25 10.2z"/>
			<path id="&lt;Compound Path&gt;" fill-rule="evenodd" class="s0" d="m971 520.9l-13.9-43.4h-58.9l-14.4 43.4h-35.2l63.7-175.8h30.1l63.7 175.8zm-43.4-135.6l-20.3 63.7h40.8z"/>
			<path id="&lt;Path&gt;" class="s0" d="m1176.8 518.5c-18.6 4.6-29.6 5.9-44.3 5.9-58.3 0-98.8-37.3-98.8-91.7 0-26.6 10.1-49.8 29.1-67.1 18.1-16.6 38.3-23.5 68.7-23.5 12.8 0 25.6 1.4 36.7 4 8.6 2.2 13.9 4 26.2 9.4l-8 27.9c-6.4-2.4-11.2-4-14.4-5-12.5-4.3-25.1-6.4-36.2-6.4-39.5 0-66.9 24.2-66.9 59.1 0 36 30.1 63.5 69.2 63.5 8 0 12.6-0.8 23-3.8v-48.5h33.6v71.9c-8 1.9-13.9 3.5-17.9 4.3z"/>
			<path id="&lt;Path&gt;" class="s0" d="m1259.8 520.9v-175.8h107.1v28.5h-73.5v43.4h60.2v28.5h-60.2v46.9h77v28.5z"/>
			<path id="&lt;Path&gt;" class="s0" d="m1543.4 522.5l-75.4-113.8c-0.5-0.7-1.9-3.1-3.8-6.9-1.3-2.1-1.8-3.5-2.1-3.7-1.1-2.1-1.6-3.2-2.4-6.1v128.9h-32v-175.8h38.7l73.8 115.6c0.3 0.5 1 1.9 1.9 3.7 0.8 1.9 1.3 3 1.6 3.5l1.5 4.5 1.6 3.2v-130.5h31.7v177.4z"/>
			<path id="&lt;Path&gt;" class="s1" d="m544 619.8c-2.1 0.4-5.3-2.4-7.6-4.8-42-52-66.5-20.4-105.1-37.9-14.8-6.7-28.4-21.5-28.1-41.7 10.8 2.4 22.4 2.2 33.8-1.3 27.8-8.6 45.7-34.1 46.1-61.7 10.3 1.9 20 6.2 27.9 12.3 22.8 17.5 40.8 38.2 38 124.4-0.5 6.8-1.8 10.1-5 10.7z"/>
			<path id="&lt;Path&gt;" class="s2" d="m379.6 525.3c-10 9.4-22.6 15.7-35.4 17.9-28.3 4.6-55.8 3.8-115.6-54.7 0 0-2.6-2.7-3.1-3.2-5.4-5.4-7.4-8.6-5.6-11.6 1.7-2.5 9.1-2.3 11.8-2.2q0.4 0.1 0.8 0.1c0 0 0.2 0 0.2 0 64.6 3.4 58.9-35.9 98.1-52.2 14.4-5.9 33.2-6.1 47.9 5.6q-2.5 2.2-4.9 4.6c-24.9 26.2-23.9 67.7 2.3 92.6 1.1 1.1 2.3 2.1 3.5 3.1z"/>
			<path id="&lt;Path&gt;" class="s3" d="m504.3 417.1c-0.9 14.5-8.2 30.5-23.2 39-6.3-20.9-22.5-38.3-44.9-45-16.7-5.1-33.7-3.2-48.3 3.7-4.2-13.2-4.4-27.5-0.6-40.2 8.2-27.5 21-51.8 100.2-79.8l-0.1 0.1c10.4-3.1 15.2-3.9 17.1-0.3 0.9 1.5-0.1 4.4-1.4 7-0.9 1.6-1.9 3.2-2.7 4.8q-0.3 0.3-0.3 0.3h0.1c-30.7 55.9 6.7 68.1 4.1 110.4z"/>
			<path id="&lt;Path&gt;" class="s0" d="m436.2 411.1c22.4 6.7 38.6 24.1 44.9 45-12.4 6.9-30 8.8-53.7 0.6-20.5-7.1-33.7-23.5-39.5-41.9 14.5-6.9 31.6-8.8 48.3-3.7z"/>
		</g>
	</g>
	<g id="Capa 1 copy">
		<g id="&lt;Group&gt;">
			<path id="&lt;Path&gt;" class="s0" d="m676.9 599.7l-13-19.6q-0.2-0.2-0.7-1.2c-0.2-0.4-0.3-0.6-0.3-0.7-0.2-0.3-0.3-0.5-0.5-1v22.2h-5.5v-30.3h6.7l12.7 19.9c0.1 0.2 0.2 0.4 0.3 0.7 0.2 0.3 0.3 0.5 0.3 0.6l0.3 0.8 0.3 0.5v-22.5h5.4v30.6z"/>
			<path id="&lt;Path&gt;" class="s0" d="m600 599.4v-30.3h18.5v4.9h-12.7v7.5h10.4v4.9h-10.4v8.1h13.3v4.9z"/>
			<path id="&lt;Compound Path&gt;" fill-rule="evenodd" class="s0" d="m791.6 599.4l-7-12.1h-2.9v12.1h-5.8v-30.3h10.2c4.4 0 6.4 0.6 8.2 2.2 1.6 1.6 2.5 3.8 2.5 6.6 0 2.4-0.6 4.3-1.7 5.7-1.1 1.5-2.2 2.2-4.7 2.8l7.5 13zm-6.1-25.4h-3.7v8.4h3.7c3.7 0 5.3-1.3 5.3-4.3 0-2.9-1.5-4.1-5.3-4.1z"/>
			<path id="&lt;Path&gt;" class="s0" d="m855 599c-3.2 0.8-5.1 1-7.7 1-10 0-17-6.4-17-15.8 0-4.6 1.7-8.6 5-11.5 3.1-2.9 6.6-4.1 11.9-4.1 2.2 0 4.4 0.2 6.3 0.7 1.5 0.4 2.4 0.7 4.5 1.6l-1.4 4.8q-1.6-0.6-2.4-0.9c-2.2-0.7-4.4-1-6.3-1-6.8 0-11.5 4.1-11.5 10.2 0 6.2 5.1 10.9 11.9 10.9 1.4 0 2.2-0.2 4-0.7v-8.3h5.8v12.4q-2.1 0.5-3.1 0.7z"/>
			<path id="&lt;Compound Path&gt;" class="s0" d="m895.2 569.1h5.8v30.3h-5.8zm3.8-1.3h-4.3l4.3-5.4h5.2z"/>
			<path id="&lt;Compound Path&gt;" fill-rule="evenodd" class="s0" d="m956.1 599.4l-2.4-7.5h-10.1l-2.5 7.5h-6.1l11-30.3h5.2l11 30.3zm-7.5-23.4l-3.5 11h7.1z"/>
			<path id="&lt;Compound Path&gt;" fill-rule="evenodd" class="s0" d="m1056.8 586.6c-2.2 1.8-4.9 2.6-9 2.6-1.2 0-1.8-0.1-2.8-0.2v10.4h-5.8v-30.3h10.4c3.9 0 6.1 0.7 8 2.5 1.7 1.7 2.6 4 2.6 6.8 0 3.4-1.2 6.2-3.4 8.2zm-7.8-12.6h-4v10.1l0.7 0.1h0.8c0.6 0 1 0 1.2 0 4.5 0 6.5-1.6 6.5-5.4 0-3.3-1.6-4.8-5.2-4.8z"/>
			<path id="&lt;Compound Path&gt;" fill-rule="evenodd" class="s0" d="m1110.3 599.4l-6.9-12.1h-2.9v12.1h-5.8v-30.3h10.1c4.4 0 6.5 0.6 8.3 2.2q2.4 2.3 2.4 6.6c0 2.4-0.5 4.3-1.6 5.7-1.2 1.5-2.2 2.2-4.7 2.8l7.5 13zm-6.1-25.4h-3.8v8.4h3.8c3.7 0 5.3-1.3 5.3-4.3 0-2.9-1.5-4.1-5.3-4.1z"/>
			<path id="&lt;Compound Path&gt;" fill-rule="evenodd" class="s0" d="m1165.2 600c-9.5 0-16.1-6.5-16.1-15.7 0-9.4 6.5-15.7 16.1-15.7 9.6 0 16.1 6.3 16.1 15.7 0 9.2-6.7 15.7-16.1 15.7zm0-26.4c-5.7 0-10 4.6-10 10.7 0 6.1 4.3 10.7 10 10.7 5.7 0 9.9-4.6 9.9-10.7 0-6.1-4.2-10.7-9.9-10.7z"/>
			<path id="&lt;Compound Path&gt;" fill-rule="evenodd" class="s0" d="m1240.4 595c-2.8 3-6.8 4.4-12.3 4.4h-11.2v-30.3h11.3c5.7 0 9.3 1.3 12.3 4.5 2.6 2.8 4.1 6.6 4.1 10.6 0 4-1.5 7.9-4.2 10.8zm-5.6-19c-1.6-1.2-3.9-1.8-7.2-1.8h-4.6v20.1h4.6c6.9 0 10.7-3.6 10.7-10.1 0-3.4-1.3-6.6-3.5-8.2z"/>
			<path id="&lt;Path&gt;" class="s0" d="m1300.8 597.8c-2.2 1.5-4.8 2.2-8.5 2.2-3.8 0-6.3-0.6-8.6-2.2-3.1-2.1-4.2-4.6-4.2-10.2v-18.5h5.8v18.8c0 4.5 2.3 6.8 7.2 6.8 4.4 0 6.7-2.5 6.7-6.8v-18.8h5.8v18.5c0 5.6-1 8-4.2 10.2z"/>
			<path id="&lt;Path&gt;" class="s0" d="m1363.4 576.1q-2.9-2.2-6.9-2.2c-5.9 0-10.1 4.2-10.1 9.9 0 6.5 4.4 10.8 11 10.8 2.1 0 3.9-0.4 6.6-1.4l1.1 4.9c-1.9 0.8-2.7 1.1-4.1 1.4-1.5 0.3-3.1 0.6-4.9 0.6-4.7 0-8.1-1.3-10.9-3.9-3.3-2.8-5.1-7.4-5.1-12.1 0-4.4 1.6-8.4 4.6-11.3 3-3 6.4-4.2 11.4-4.2 3.9 0 6.9 0.9 9.5 2.8z"/>
			<path id="&lt;Path&gt;" class="s0" d="m1413.3 574v25.4h-5.8v-25.4h-9.1v-4.9h24v4.9z"/>
			<path id="&lt;Path&gt;" class="s0" d="m1456.6 569.1h5.7v30.3h-5.7z"/>
			<path id="&lt;Path&gt;" class="s0" d="m1511.7 600.3h-4l-11.3-31.2h6.4l6.9 20.5 0.1 0.4 0.1 0.5 0.1 0.6v-0.3c0-0.5 0-0.6 0.1-0.8l0.2-0.4 6.6-20.5h6.1z"/>
			<path id="&lt;Compound Path&gt;" fill-rule="evenodd" class="s0" d="m1572.7 599.4l-2.4-7.5h-10.1l-2.5 7.5h-6.1l11-30.3h5.2l11 30.3zm-7.6-23.4l-3.4 11h7z"/>
			<path id="&lt;Path&gt;" class="s0" d="m601.9 345.1h33.6v175.8h-33.6z"/>
			<path id="&lt;Path&gt;" class="s0" d="m803.9 386.9c-18.6-8.3-33.8-12.5-45.5-12.5-15.8 0-25.9 6.4-25.9 16.2 0 7.5 4.3 12 16.8 18.7 26.9 14.3 44.5 25.6 52.8 33.8 7.4 7.5 11.9 19.2 11.9 31.5 0 31.4-22.9 49.8-61.8 49.8-5.3 0-10.6-0.5-15.7-1.1-12.5-1.8-18.4-3.7-36.8-12.2-2.4-1.1-6.4-3-11.4-5.3l14.1-31c12.8 7 18.1 9.6 25.1 12.3 8.7 3.2 18.3 5 25.3 5 15.4 0 25.5-6.9 25.5-17.5 0-7.5-4-12.6-15.4-19l-27.2-15.4c-31.2-17.9-40.8-29.6-40.8-48.8 0-8.8 2.7-17.8 7-24.5 2.9-4.5 7.4-9 13-13.1 12.8-8.7 23.7-11.7 44.3-11.7 11.7 0 22.1 1.4 33 4.5 8.5 2.7 13.3 4.6 25 10.2z"/>
			<path id="&lt;Compound Path&gt;" fill-rule="evenodd" class="s0" d="m971 520.9l-13.9-43.4h-58.9l-14.4 43.4h-35.2l63.7-175.8h30.1l63.7 175.8zm-43.4-135.6l-20.3 63.7h40.8z"/>
			<path id="&lt;Path&gt;" class="s0" d="m1176.8 518.5c-18.6 4.6-29.6 5.9-44.3 5.9-58.3 0-98.8-37.3-98.8-91.7 0-26.6 10.1-49.8 29.1-67.1 18.1-16.6 38.3-23.5 68.7-23.5 12.8 0 25.6 1.4 36.7 4 8.6 2.2 13.9 4 26.2 9.4l-8 27.9c-6.4-2.4-11.2-4-14.4-5-12.5-4.3-25.1-6.4-36.2-6.4-39.5 0-66.9 24.2-66.9 59.1 0 36 30.1 63.5 69.2 63.5 8 0 12.6-0.8 23-3.8v-48.5h33.6v71.9c-8 1.9-13.9 3.5-17.9 4.3z"/>
			<path id="&lt;Path&gt;" class="s0" d="m1259.8 520.9v-175.8h107.1v28.5h-73.5v43.4h60.2v28.5h-60.2v46.9h77v28.5z"/>
			<path id="&lt;Path&gt;" class="s0" d="m1543.4 522.5l-75.4-113.8c-0.5-0.7-1.9-3.1-3.8-6.9-1.3-2.1-1.8-3.5-2.1-3.7-1.1-2.1-1.6-3.2-2.4-6.1v128.9h-32v-175.8h38.7l73.8 115.6c0.3 0.5 1 1.9 1.9 3.7 0.8 1.9 1.3 3 1.6 3.5l1.5 4.5 1.6 3.2v-130.5h31.7v177.4z"/>
			<path id="&lt;Path&gt;" class="s1" d="m544 619.8c-2.1 0.4-5.3-2.4-7.6-4.8-42-52-66.5-20.4-105.1-37.9-14.8-6.7-28.4-21.5-28.1-41.7 10.8 2.4 22.4 2.2 33.8-1.3 27.8-8.6 45.7-34.1 46.1-61.7 10.3 1.9 20 6.2 27.9 12.3 22.8 17.5 40.8 38.2 38 124.4-0.5 6.8-1.8 10.1-5 10.7z"/>
			<path id="&lt;Path&gt;" class="s2" d="m379.6 525.3c-10 9.4-22.6 15.7-35.4 17.9-28.3 4.6-55.8 3.8-115.6-54.7 0 0-2.6-2.7-3.1-3.2-5.4-5.4-7.4-8.6-5.6-11.6 1.7-2.5 9.1-2.3 11.8-2.2q0.4 0.1 0.8 0.1c0 0 0.2 0 0.2 0 64.6 3.4 58.9-35.9 98.1-52.2 14.4-5.9 33.2-6.1 47.9 5.6q-2.5 2.2-4.9 4.6c-24.9 26.2-23.9 67.7 2.3 92.6 1.1 1.1 2.3 2.1 3.5 3.1z"/>
			<path id="&lt;Path&gt;" class="s3" d="m504.3 417.1c-0.9 14.5-8.2 30.5-23.2 39-6.3-20.9-22.5-38.3-44.9-45-16.7-5.1-33.7-3.2-48.3 3.7-4.2-13.2-4.4-27.5-0.6-40.2 8.2-27.5 21-51.8 100.2-79.8l-0.1 0.1c10.4-3.1 15.2-3.9 17.1-0.3 0.9 1.5-0.1 4.4-1.4 7-0.9 1.6-1.9 3.2-2.7 4.8q-0.3 0.3-0.3 0.3h0.1c-30.7 55.9 6.7 68.1 4.1 110.4z"/>
			<path id="&lt;Path&gt;" class="s0" d="m436.2 411.1c22.4 6.7 38.6 24.1 44.9 45-12.4 6.9-30 8.8-53.7 0.6-20.5-7.1-33.7-23.5-39.5-41.9 14.5-6.9 31.6-8.8 48.3-3.7z"/>
		</g>
	</g>
</svg>