<svg version="1.2" xmlns="http://www.w3.org/2000/svg" viewBox="0 0 1808 912" width="100%" height="100%">
	<title>pdvsa-ai</title>
	<style>
		.s0 { fill: #fff } 
		.s1 { fill: #fff } 
	</style>
	<g id="Capa 1">
		<g id="&lt;Group&gt;">
			<g id="&lt;Group&gt;">
				<path id="&lt;Path&gt;" class="s0" d="m555.1 518.5l-85.8 85.9c-7.6-8.9-13.4-18.5-18.4-28.6l57.2-57.3-57.2-57.2c5-10.2 10.8-19.7 18.4-28.6z"/>
				<path id="&lt;Path&gt;" class="s0" d="m492.8 517.9l-46.4 46.4c-10.8-29.9-10.8-62.3 0-92.2z"/>
				<path id="&lt;Path&gt;" class="s1" d="m513.2 637.4l57.2-57.2 57.2 57.2c-11.4 5.7-23.5 9.6-35.6 11.5l-21.6-21.6-21.6 21.6c-12.1-1.9-24.2-5.8-35.6-11.5z"/>
				<path id="&lt;Path&gt;" class="s0" d="m627.6 399l-57.2 57.2-57.2-57.2c11.4-5.7 23.5-9.5 35.6-11.4l21.6 21.6 21.6-21.6c12.1 1.9 24.2 5.7 35.6 11.4z"/>
				<path id="Forma 1" class="s0" d="m634 511h1v4h-1z"/>
				<path id="&lt;Path&gt;" class="s0" d="m663.8 425.1l-93.4 93.4 93.4 93.5c-7.6 8.3-16.5 14.6-26 20.3l-67.4-67.4-67.4 67.4c-8.9-5.7-17.8-12-26.1-20.3l93.5-94.1-93.5-93.5c7.6-8.2 16.6-14.6 26.1-20.3l67.4 67.4 67.4-67.4c9.5 5.7 18.4 12.7 26 21z"/>
				<path id="&lt;Path&gt;" class="s0" d="m585.6 518.5l85.9-86.4c7.6 8.9 13.3 18.4 18.4 28.6l-57.2 57.2 57.2 57.2c-5.1 10.2-10.8 19.7-18.4 28.6z"/>
				<path id="&lt;Path&gt;" class="s1" d="m648 518.5l46.4-46.4c10.8 29.9 10.8 62.3 0 92.2z"/>
				<path id="&lt;Path&gt; copy" class="s0" d="m513.2 637.4l57.2-57.2 57.2 57.2c-11.4 5.7-23.5 9.6-35.6 11.5l-21.6-21.6-21.6 21.6c-12.1-1.9-24.2-5.8-35.6-11.5z"/>
				<path id="&lt;Path&gt; copy 2" class="s0" d="m648 518.5l46.4-46.4c10.8 29.9 10.8 62.3 0 92.2z"/>
				<path id="&lt;Compound Path&gt;" fill-rule="evenodd" class="s0" d="m759.9 456.2h64.3c14 0 24.1 3.2 31.1 10.2 7 6.4 10.2 15.9 10.2 28.6 0 12.7-3.8 22.3-11.5 29.3-7.6 6.9-19 10.8-34.9 10.8h-20.4v46.4h-38.8zm38.8 52.7h9.6c7.6 0 12.7-1.2 15.9-3.8 3.1-2.5 4.4-5.7 4.4-10.1 0-3.9-1.3-7-3.8-10.2-2.5-2.6-7.6-3.8-14.6-3.8h-11.5z"/>
				<path id="&lt;Compound Path&gt;" fill-rule="evenodd" class="s0" d="m932.2 456.2c11.4 0 20.3 1.3 27.3 4.5q10.5 4.7 17.2 13.3c4.4 5.7 7.6 12.7 10.1 19.7 1.9 7.7 3.2 15.9 3.2 24.2 0 13.3-1.3 23.5-4.4 31.1-3.2 7.7-7 13.4-12.7 18.5-5.1 5.1-11.5 8.3-17.2 10.2-8.3 2.5-15.9 3.1-22.9 3.1h-57.2v-124.6zm-18.5 96h9.6c8.2 0 14-0.6 17.1-2.5 3.2-1.9 6.4-5.1 8.3-9.6 1.9-4.4 3.2-11.4 3.2-21.6 0-13.3-1.9-22.2-6.4-27.3-4.4-5.1-11.4-7.6-21.6-7.6h-10.2z"/>
				<path id="&lt;Path&gt;" class="s0" d="m984.3 456.2h40.7l28 89.7 27.9-89.7h38.8l-46.4 124.6h-41.3z"/>
				<path id="&lt;Path&gt;" class="s0" d="m1116.5 539.5l36.9-2.5c0.7 5.7 2.6 10.8 5.1 13.3q5.7 7.7 17.2 7.7c5.7 0 9.5-1.3 12.7-3.9 3.2-2.5 4.4-5.7 4.4-8.9 0-3.1-1.2-6.3-4.4-8.9-2.6-2.5-9.5-5.1-19.7-7q-25.8-5.7-36.3-15.2c-7-6.4-10.8-14.6-10.8-24.2 0-6.3 1.9-12.7 5.8-18.4 3.8-5.7 9.5-10.2 16.5-13.4 7.6-3.1 17.8-5.1 30.5-5.1 15.9 0 28 3.2 36.2 8.9q12.4 8.6 15.3 28.7l-36.2 1.9c-1.3-5.8-3.2-9.6-6.4-12.1-3.2-2.6-7.6-3.8-12.7-3.8-4.5 0-7.6 0.6-10.2 2.5-2.5 1.9-3.2 4.5-3.2 7 0 1.9 0.7 3.8 2.6 5.1 1.9 1.9 6.3 3.2 12.7 4.4 17.2 3.9 29.2 7.7 36.2 10.8 7 3.9 12.8 8.3 15.9 14 3.2 5.8 5.1 11.5 5.1 18.5 0 8.2-1.9 15.2-6.3 22.2-4.5 7-10.8 12.1-18.5 15.3-8.2 3.2-17.8 5.1-29.9 5.1-20.9 0-36.2-3.8-43.8-12.1-8.9-7-13.4-17.2-14.7-29.9z"/>
				<path id="&lt;Compound Path&gt;" fill-rule="evenodd" class="s0" d="m1318.7 560.5h-43.8l-6.4 20.3h-39.4l47-124.6h42l47 124.6h-40.6zm-8.3-27.3l-14-45.1-13.4 45.1z"/>
				<path id="&lt;Path&gt;" class="s1" d="m575.5 585.9h-10.2l5.1-5.1z"/>
				<path id="&lt;Path&gt;" class="s1" d="m565.3 622.8h10.2l-5.1 5.1z"/>
			</g>
		</g>
	</g>
</svg>