<?xml version="1.0" encoding="UTF-8"?><svg id="Capa_2" xmlns="http://www.w3.org/2000/svg" viewBox="0 0 85.04 29.82"><defs><style>.cls-1{fill:#fff;}</style></defs><g id="Capa_1-2"><g><polygon class="cls-1" points="16.23 14.95 23.29 8.03 30.41 15.03 23.38 21.93 16.23 14.95"/><polygon class="cls-1" points="8.08 22.84 15.12 15.92 22.24 22.92 15.2 29.82 8.08 22.84"/><polygon class="cls-1" points="0 14.95 7.03 8.03 14.15 15.03 7.12 21.93 0 14.95"/><polygon class="cls-1" points="8.08 6.9 15.12 0 22.26 6.98 15.2 13.87 8.08 6.9"/><polygon class="cls-1" points="27.61 22.91 27.61 6.92 31.49 6.92 31.49 13.06 34.14 13.06 34.14 6.92 38.05 6.92 38.05 22.91 34.14 22.91 34.14 16.27 31.49 16.27 31.49 22.91 27.61 22.91"/><path class="cls-1" d="M58.68,16.65h3.82v2.43c0,.95-.26,1.79-.79,2.43-.53,.64-1.25,1.08-2.05,1.34-.86,.32-1.66,.45-2.52,.45-1.19,0-2.17-.2-2.97-.51-.74-.38-1.33-.89-1.66-1.67-.33-.7-.53-1.65-.53-2.73v-6.92c0-1.48,.41-2.63,1.12-3.53,.74-.96,2.13-1.4,4.03-1.4,.86,0,1.59,.12,2.25,.32,.65,.12,1.27,.44,1.66,.84,.47,.38,.86,.9,1.07,1.45,.27,.52,.38,1.22,.38,2.05v1.28h-3.91v-1.02c0-.64-.12-1.21-.32-1.54-.27-.31-.6-.52-.98-.52-.47,0-.8,.14-1.06,.32-.27,.26-.33,.64-.33,1.21v8.14c0,.89,.4,1.33,1.25,1.33s1.39-.5,1.45-1.54l.09-.69v-1.54Z"/><polygon class="cls-1" points="76.38 22.91 76.38 6.92 80.35 6.92 80.35 19.72 85.04 19.72 85.04 22.91 76.38 22.91"/><path class="cls-1" d="M70.86,11.09c0-.74-.16-1.06-.34-1.26-.24-.31-.46-.4-1-.4-.46,0-.67,.1-.94,.34-.23,.17-.45,.5-.45,1.32v7.45c0,.93,.17,1.12,.32,1.34,.22,.3,.48,.54,1.06,.54s.83-.2,1.03-.46c.19-.23,.33-.59,.33-1.53v-7.33Zm3.88,5.17c0,1.61-.04,2.75-.13,3.43-.08,.67-.34,1.28-.78,1.83-.43,.56-1.02,.98-1.77,1.28-.74,.3-1.61,.45-2.6,.45-.94,0-1.78-.14-2.53-.41-.74-.29-1.34-.71-1.8-1.27-.46-.56-.73-1.17-.81-1.83-.09-.66-.13-1.81-.13-3.47v-2.74c0-1.61,.04-2.75,.12-3.42,.08-.67,.34-1.29,.78-1.84,.44-.55,1.03-.98,1.78-1.28,.74-.3,1.61-.44,2.6-.44s1.78,.14,2.53,.42c.75,.28,1.35,.7,1.81,1.26,.46,.56,.73,1.17,.81,1.83,.09,.66,.13,1.82,.13,3.47v2.74Z"/><path class="cls-1" d="M46.53,11.13c0-.75-.16-1.06-.33-1.26-.24-.31-.47-.39-1.01-.39-.46,0-.67,.1-.93,.34-.24,.16-.46,.49-.46,1.31v7.45c0,.93,.17,1.12,.32,1.34,.23,.29,.48,.53,1.06,.53s.83-.2,1.03-.46c.18-.24,.32-.6,.32-1.54v-7.33Zm3.88,5.17c0,1.61-.05,2.75-.13,3.42-.08,.67-.34,1.28-.78,1.84-.43,.55-1.02,.98-1.77,1.28-.74,.3-1.61,.44-2.6,.44s-1.79-.14-2.53-.42c-.75-.28-1.35-.7-1.8-1.27s-.73-1.17-.81-1.84c-.08-.66-.13-1.81-.13-3.46v-2.74c0-1.61,.04-2.75,.12-3.42,.09-.67,.35-1.29,.78-1.84,.44-.55,1.04-.98,1.78-1.28,.74-.3,1.61-.45,2.6-.45,.94,0,1.78,.14,2.52,.43,.75,.28,1.35,.69,1.81,1.26,.46,.56,.73,1.17,.82,1.84,.08,.66,.13,1.82,.13,3.46v2.74Z"/><rect class="cls-1" x="23.26" y="24.88" width="61.71" height="2.6"/></g></g></svg>