<?xml version="1.0" encoding="UTF-8"?><svg id="Capa_2" xmlns="http://www.w3.org/2000/svg" viewBox="0 0 419.4 419.3"><defs><style>.cls-1{fill:#fff;}.cls-2,.cls-3{fill:#4c8c69;}.cls-3{fill-rule:evenodd;}</style></defs><g id="Capa_1-2"><path id="_Path_" class="cls-1" d="M419.4,399.7c0,10.8-8.9,19.6-19.7,19.6H19.7c-10.8,0-19.7-8.8-19.7-19.6V19.7C0,8.8,8.9,0,19.7,0H399.7c10.8,0,19.7,8.8,19.7,19.7V399.7Z"/><path id="_Compound_Path_" class="cls-3" d="M274.6,378.9h-19.4l-13.3-26.1h-12.3v26.1h-17.2v-72.4h36.6c13.4,0,24.6,7,25.5,21.2,.07,.53,.1,1.1,.1,1.7,0,10.9-4.8,17.7-14.3,21.3l14.3,28.2Zm-17.6-49.1c0-7.5-4-10.6-10.6-10.6h-16.8v21.4h16.8c6.9,0,10.6-3.6,10.6-10.8Z"/><path id="_Path_-2" class="cls-2" d="M96.9,370.1c-1.9,4.8-7.6,8.8-12.7,8.8h-10.2l7.8-20.4-29.7-52h9.8c5.2,0,11.5,3.6,14,8.1l13.6,23.5,12-31.6h19.5l-24.1,63.6Z"/><path id="_Compound_Path_-2" class="cls-3" d="M143.5,359.5l-4,10.6c-1.8,4.8-7.4,8.8-12.5,8.8h-9.2l27.4-72.4h21.1c5.1,0,10.8,3.9,12.6,8.7l24.2,63.7h-18.4l-7.4-19.4h-33.8Zm18.9-39.3c-1.1-2.9-2.9-2.9-4,0l-10.3,27.1h24.6l-10.3-27.1Z"/><path id="_Compound_Path_-3" class="cls-3" d="M306,359.5l-7.4,19.4h-18.4l24.1-63.7c1.9-4.8,7.6-8.7,12.7-8.7h21.1l27.4,72.4h-9.2c-5.1,0-10.7-4-12.5-8.8l-4-10.6h-33.8m4.6-12.2h24.5l-10.2-27.1c-1.1-2.9-2.9-2.9-4,0l-10.3,27.1Z"/><path id="_Compound_Path_-4" class="cls-3" d="M358.1,266.5c-5.7,8.8-12.5,17.1-36.7,16.7H98c-24.1,.4-30.9-7.9-36.7-16.7-9.9-15.3-3.6-31.2-.5-37.6,4.9-9.9,13.4-26.8,14.9-32.5,0,0,5.2-13-8.6-15.1-5.8-.9-9.6-5.1-9.9-10.6v-6.4c.1-.9,.8-1.6,1.7-1.7h22.7c.3,0,15.9,1.7,16,20.6,.5,32.4-.2,36.6,8.6,38.1,.9,0,1.6-.7,1.6-1.6v-1c0-17.1,13.9-31,31.1-31,8.7,0,16.6,3.6,22.2,9.4,.2,.3,.8,.8,1.4,.8,.7,0,1.2-.5,1.4-.8,5.7-5.8,13.6-9.4,22.3-9.4s16.6,3.6,22.2,9.4c.3,.3,.8,.8,1.5,.8,.6,0,1.2-.5,1.4-.8,5.6-5.8,13.5-9.4,22.2-9.4s16.6,3.6,22.3,9.4c.2,.3,.8,.8,1.4,.8s1.2-.5,1.4-.8c5.7-5.8,13.5-9.4,22.3-9.4,17.1,0,31,13.9,31,31v1c0,.8,.6,1.5,1.4,1.5,8.7-1.4,8-5.7,8.4-38,.2-18.9,15.7-20.6,16.1-20.6h22.7c.9,.1,1.6,.8,1.6,1.7l.1,6.4c-.3,5.5-4.1,9.7-9.9,10.6-13.8,2.1-8.7,15.1-8.7,15.1,1.6,5.7,10.1,22.6,15,32.5,3.1,6.4,9.4,22.3-.5,37.6h0Zm-171.9-66.4c-10.3,0-18.6,8.3-18.6,18.6s8.3,18.7,18.6,18.7,18.6-8.4,18.6-18.7-8.3-18.6-18.6-18.6Zm94.7,0c-10.3,0-18.7,8.3-18.7,18.6s8.4,18.7,18.7,18.7,18.6-8.4,18.6-18.7-8.3-18.6-18.6-18.6Zm-142,0c-10.3,0-18.7,8.3-18.7,18.6s8.4,18.7,18.7,18.7,18.6-8.4,18.6-18.7-8.4-18.6-18.6-18.6Zm94.6,0c-10.3,0-18.6,8.3-18.6,18.6s8.3,18.7,18.6,18.7,18.7-8.4,18.7-18.7-8.4-18.6-18.7-18.6Zm-59.1-98.1c0-42.6,28.4-70.4,28.4-70.4,.8-.6,3-.5,5-.5h31.7c-16.1,14.1-26.2,49.4-26.2,70.9s10.1,56.8,26.2,70.9h-31.7c-2,0-4.2,.1-5-.5,0,0-28.4-27.8-28.4-70.4Zm68.4,0c0-43.1,28.5-70.4,28.5-70.4,.7-.6,3-.5,4.9-.5h31.9c-16.2,14.1-26.2,49.4-26.2,70.9s10,56.8,26.2,70.9h-31.9c-1.9,0-4.2,.1-4.9-.5,0,0-28.5-27.3-28.5-70.4Zm-137,0c0-43.1,28.5-70.4,28.5-70.4,.7-.6,3.1-.5,4.9-.5h31.9c-16.1,14.1-26.1,49.4-26.1,70.9s10,56.8,26.1,70.9h-31.9c-1.8,0-4.2,.1-4.9-.5,0,0-28.5-27.3-28.5-70.4Z"/></g></svg>