<?xml version="1.0" encoding="UTF-8"?><svg id="Capa_2" xmlns="http://www.w3.org/2000/svg" xmlns:xlink="http://www.w3.org/1999/xlink" viewBox="0 0 85.04 16.6"><defs><style>.cls-1{fill:#fff;}.cls-2{clip-path:url(#clippath);}</style><clipPath id="clippath"><path class="cls-1" d="M8.74,3.88s-.08,.04-.09,.08c0,.04,.04,.08,.08,.09,1.83,.08,3.46,1.11,4.26,2.69,.58,1.15,.65,2.44,.22,3.65-.44,1.2-1.33,2.17-2.53,2.73-.69,.32-1.43,.48-2.15,.48-1.85,0-3.62-.99-4.48-2.7-.16-.31-.28-.63-.36-.96-.07-.3-.12-.6-.13-.9,0-.04-.04-.08-.09-.08h0s-.09,.04-.08,.09c.01,.31,.06,.63,.14,.93,.09,.34,.21,.68,.37,1,.89,1.76,2.72,2.79,4.63,2.79,.75,0,1.51-.16,2.23-.49,1.24-.57,2.16-1.58,2.62-2.83,.45-1.25,.37-2.59-.23-3.78-.82-1.64-2.51-2.71-4.41-2.79h0Z"/></clipPath></defs><g id="Capa_1-2"><g><path class="cls-1" d="M4.14,12.89l-.05-.02c-1.21-.94-1.9-2.35-1.89-3.89,.01-1.53,.72-2.94,1.94-3.86,.04-.03,.09-.02,.12,.01,.03,.04,.02,.09-.01,.12-1.18,.89-1.86,2.25-1.87,3.73-.01,1.48,.65,2.85,1.82,3.76,.04,.03,.04,.08,.01,.12l-.07,.03Z"/><g><path class="cls-1" d="M8.74,3.88s-.08,.04-.09,.08c0,.04,.04,.08,.08,.09,1.83,.08,3.46,1.11,4.26,2.69,.58,1.15,.65,2.44,.22,3.65-.44,1.2-1.33,2.17-2.53,2.73-.69,.32-1.43,.48-2.15,.48-1.85,0-3.62-.99-4.48-2.7-.16-.31-.28-.63-.36-.96-.07-.3-.12-.6-.13-.9,0-.04-.04-.08-.09-.08h0s-.09,.04-.08,.09c.01,.31,.06,.63,.14,.93,.09,.34,.21,.68,.37,1,.89,1.76,2.72,2.79,4.63,2.79,.75,0,1.51-.16,2.23-.49,1.24-.57,2.16-1.58,2.62-2.83,.45-1.25,.37-2.59-.23-3.78-.82-1.64-2.51-2.71-4.41-2.79h0Z"/><g class="cls-2"><rect class="cls-1" x="3.4" y="3.88" width="10.44" height="9.88"/></g></g><path class="cls-1" d="M8.89,2.72c-.65,0-1.3,.12-1.92,.36-1.27,.49-2.27,1.43-2.81,2.65-.54,1.21-.55,2.56-.04,3.78,.51,1.23,1.49,2.19,2.75,2.7,.65,.27,1.34,.4,2.02,.4,1.15,0,2.28-.37,3.21-1.09,.04-.03,.04-.08,.01-.12-.02-.02-.04-.03-.07-.03-.02,0-.04,0-.05,.02-.9,.69-1.99,1.05-3.1,1.05-.66,0-1.32-.13-1.95-.38-1.22-.5-2.16-1.43-2.66-2.61-.49-1.18-.48-2.48,.04-3.65,.52-1.17,1.48-2.08,2.71-2.56,.6-.23,1.22-.35,1.85-.35,.66,0,1.32,.13,1.95,.39,.33,.13,.64,.3,.93,.5,.26,.18,.5,.38,.72,.6,.02,.02,.04,.03,.06,.03,.02,0,.04,0,.06-.02,.03-.03,.04-.09,0-.12-.23-.23-.47-.44-.74-.62-.3-.2-.62-.38-.96-.52-.65-.27-1.33-.4-2.02-.4"/><path class="cls-1" d="M2.25,7.11c0-1.23,1.04-2.23,2.31-2.23s2.31,1,2.31,2.23-1.04,2.22-2.31,2.22-2.31-1-2.31-2.22"/><path class="cls-1" d="M7.48,5.96c0-1.23,1.04-2.23,2.31-2.23s2.31,1,2.31,2.23-1.04,2.22-2.31,2.22-2.31-1-2.31-2.22"/><path class="cls-1" d="M9.33,12.24c-.1-.93,.6-1.77,1.57-1.86,.97-.1,1.83,.58,1.94,1.51,.1,.93-.6,1.76-1.57,1.86-.97,.1-1.83-.58-1.94-1.51"/><path class="cls-1" d="M7.76,2.88c0-.94,.79-1.7,1.76-1.7s1.76,.76,1.76,1.7-.79,1.69-1.76,1.69-1.76-.76-1.76-1.69"/><path class="cls-1" d="M3.49,14.17c0-.94,.79-1.7,1.76-1.7s1.76,.76,1.76,1.7-.79,1.69-1.76,1.69-1.76-.76-1.76-1.69"/><path class="cls-1" d="M6.9,10.58c0-.32,.27-.58,.6-.58s.6,.26,.6,.58-.27,.58-.6,.58-.6-.26-.6-.58"/><path class="cls-1" d="M14.81,4.45s-.08-.03-.09-.08C14.43,2.08,12.4,.27,10,.17c-.05,0-.09-.04-.08-.09,0-.05,.04-.08,.09-.08,2.49,.1,4.59,1.97,4.89,4.35,0,.04-.03,.09-.08,.09h-.01Z"/><path class="cls-1" d="M11.6,10.51c0-1.07,.9-1.93,2.01-1.93s2.01,.87,2.01,1.93-.9,1.93-2.01,1.93-2.01-.87-2.01-1.93"/><path class="cls-1" d="M13.19,3.65c0-.71,.6-1.29,1.34-1.29s1.34,.58,1.34,1.29-.6,1.29-1.34,1.29-1.34-.58-1.34-1.29"/><path class="cls-1" d="M4.36,2.88c0-.32,.27-.58,.6-.58s.6,.26,.6,.58-.27,.58-.6,.58-.6-.26-.6-.58"/><path class="cls-1" d="M10.18,16.57c-.22-.09-.32-.33-.23-.53,.09-.21,.34-.31,.55-.22,.22,.09,.32,.32,.23,.53-.09,.21-.34,.31-.55,.22"/><path class="cls-1" d="M8,13.51c0-.71,.6-1.29,1.34-1.29s1.34,.58,1.34,1.29-.6,1.29-1.34,1.29-1.34-.58-1.34-1.29"/><path class="cls-1" d="M1.14,11.17c0-.71,.6-1.29,1.34-1.29s1.34,.58,1.34,1.29-.6,1.29-1.34,1.29-1.34-.58-1.34-1.29"/><path class="cls-1" d="M22.11,7.88h1.36c.2,0,.22,.03,.22,.24v1.87c0,.16-.03,.21-.16,.26-.55,.22-1.04,.32-1.69,.32-1.88,0-2.68-1.07-2.68-2.59s.78-2.64,2.71-2.64c.8,0,1.28,.18,1.59,.39,.17,.12,.2,.31,.2,.37,0,.1-.02,.15-.11,.11-.37-.2-.86-.41-1.65-.41-1.6,0-2.16,.87-2.16,2.18,0,1.23,.52,2.12,2.1,2.12,.35,0,.82-.03,1.32-.25v-1.53h-.87c-.24,0-.38-.15-.38-.34,0-.1,.04-.11,.19-.11"/><path class="cls-1" d="M25.14,8.95v1.32c0,.17-.03,.2-.21,.2h-.1c-.17,0-.21-.03-.21-.2v-2.92c0-.13,0-.18,.1-.18,.3,0,.42,.12,.42,.4v.23c.19-.52,.53-.71,.96-.71s.54,.16,.54,.39c0,.11-.01,.14-.12,.12-.16-.04-.25-.06-.41-.06-.65,0-.96,.53-.97,1.41"/><path class="cls-1" d="M29.53,10.1v-.09c-.21,.29-.59,.51-1.14,.51-.85,0-1.19-.48-1.19-1.25v-1.92c0-.13,0-.18,.1-.18,.3,0,.41,.12,.41,.4v1.69c0,.46,.22,.79,.8,.79,.65,0,.96-.36,1.02-.86v-1.85c0-.13,0-.18,.1-.18,.3,0,.42,.12,.42,.4v2.75c0,.13,0,.18-.1,.18-.3,0-.42-.12-.42-.4"/><path class="cls-1" d="M32.74,10.06c.8,0,1.19-.53,1.19-1.23s-.39-1.25-1.18-1.25c-.84,0-1.19,.62-1.19,1.25s.33,1.23,1.19,1.23m-1.16-.11v1.96c0,.17-.03,.2-.21,.2h-.1c-.17,0-.21-.03-.21-.2V7.35c0-.14,0-.18,.1-.18,.3,0,.42,.12,.42,.4v.17c.24-.36,.64-.61,1.27-.61,1.04,0,1.62,.7,1.62,1.71s-.57,1.69-1.63,1.69c-.62,0-1.03-.24-1.27-.58"/><path class="cls-1" d="M36.88,10.08c.79,0,1.22-.51,1.22-1.25s-.43-1.27-1.22-1.27-1.24,.53-1.24,1.27,.44,1.25,1.24,1.25m0-2.96c1.13,0,1.77,.68,1.77,1.71s-.64,1.69-1.77,1.69-1.78-.66-1.78-1.69,.63-1.71,1.78-1.71"/><path class="cls-1" d="M39.5,10.28V5.66c0-.21,.04-.24,.24-.24h2.53c.13,0,.16,0,.16,.09,0,.19-.15,.36-.5,.36h-1.9v1.75h1.82c.13,0,.16,0,.16,.09,0,.19-.15,.36-.5,.36h-1.47v1.95h2.17c.16,0,.19,.03,.19,.17v.11c0,.14-.03,.17-.19,.17h-2.49c-.18,0-.21-.03-.21-.19"/><path class="cls-1" d="M45.77,10.47h-.11c-.17,0-.21-.03-.21-.2v-1.83c0-.51-.21-.88-.84-.88s-.92,.38-.97,.91v1.8c0,.17-.03,.2-.21,.2h-.1c-.17,0-.21-.03-.21-.2v-2.92c0-.13,0-.18,.1-.18,.3,0,.41,.12,.41,.4v.05c.2-.28,.56-.5,1.11-.5,.87,0,1.22,.5,1.22,1.28v1.87c0,.17-.04,.2-.21,.2"/><path class="cls-1" d="M47.35,8.65h2.19c-.02-.67-.36-1.1-1.09-1.1-.68,0-1.03,.42-1.1,1.1m0,.41c.06,.77,.51,1.01,1.22,1.01,.61,0,.93-.13,1.31-.28,.1-.04,.16-.01,.16,.08,0,.16-.09,.33-.3,.41-.27,.13-.72,.24-1.24,.24-1.04,0-1.71-.45-1.71-1.63s.59-1.78,1.66-1.78,1.6,.66,1.6,1.64c0,.16-.04,.29-.28,.29h-2.42Z"/><path class="cls-1" d="M51.4,8.95v1.32c0,.17-.03,.2-.21,.2h-.1c-.17,0-.21-.03-.21-.2v-2.92c0-.13,0-.18,.1-.18,.3,0,.41,.12,.41,.4v.23c.18-.52,.53-.71,.96-.71s.54,.16,.54,.39c0,.11-.01,.14-.12,.12-.16-.04-.25-.06-.41-.06-.65,0-.96,.53-.97,1.41"/><path class="cls-1" d="M54.83,7.58c-.79,0-1.18,.55-1.18,1.26s.38,1.23,1.19,1.23c.85,0,1.19-.61,1.19-1.23s-.35-1.26-1.2-1.26m-1.36,4.29c-.19-.09-.28-.2-.28-.37,0-.13,.06-.15,.18-.09,.26,.12,.68,.28,1.3,.28s1.33-.19,1.33-1.41v-.33c-.23,.35-.64,.59-1.27,.59-1.04,0-1.63-.68-1.63-1.68s.6-1.72,1.62-1.72c.62,0,1.04,.25,1.28,.61v-.13c0-.3,.12-.43,.41-.43,.1,0,.1,.04,.1,.2v2.96c0,1.45-.88,1.78-1.8,1.78-.65,0-1.04-.13-1.24-.24"/><path class="cls-1" d="M58.09,7.57v2.7c0,.17-.03,.2-.2,.2h-.11c-.17,0-.21-.03-.21-.2v-2.92c0-.13,0-.18,.1-.18,.3,0,.42,.12,.42,.4m-.09-2.05c.09-.12,.13-.13,.27-.13h.27c.11,0,.14,.06,.04,.16l-.72,.73c-.06,.06-.1,.07-.2,.07h-.24c-.06,0-.08-.03-.04-.08l.6-.74Z"/><path class="cls-1" d="M61.25,9.13c-.31-.05-.7-.06-.97-.06-.56,0-.91,.06-.91,.49s.28,.55,.75,.55c.62,0,.92-.17,1.13-.33v-.65Zm-1.07-.46c.31,0,.72,.02,1.07,.06v-.43c0-.7-.57-.76-1-.76-.36,0-.7,.06-.93,.13-.19,.05-.21,.03-.21-.06,0-.19,.08-.3,.26-.36,.19-.06,.6-.14,.98-.14,.5,0,1.44,.12,1.44,1.12v2.08c0,.13,0,.18-.1,.18-.27,0-.4-.1-.42-.33-.2,.14-.57,.34-1.26,.34-.77,0-1.14-.32-1.14-.96s.44-.88,1.33-.88"/><path class="cls-1" d="M63.48,8.06v1.98h1.22c.87,0,1.21-.4,1.21-.99,0-.66-.42-.98-1.21-.98h-1.22Zm0-2.2v1.77h1.13c.61,0,.93-.33,.93-.89,0-.49-.25-.88-1.02-.88h-1.04Zm-.31,4.61c-.17,0-.21-.03-.21-.19V5.66c0-.2,.04-.24,.24-.24h1.45c1.03,0,1.45,.56,1.45,1.25,0,.65-.3,1-.77,1.14,.76,.12,1.14,.52,1.14,1.27,0,.83-.52,1.39-1.67,1.39h-1.62Z"/><path class="cls-1" d="M68.88,10.08c.79,0,1.22-.51,1.22-1.25s-.43-1.27-1.22-1.27-1.24,.53-1.24,1.27,.44,1.25,1.24,1.25m0-2.96c1.13,0,1.77,.68,1.77,1.71s-.64,1.69-1.77,1.69-1.78-.66-1.78-1.69,.63-1.71,1.78-1.71"/><path class="cls-1" d="M73,7.58c-.79,0-1.18,.55-1.18,1.26s.39,1.23,1.19,1.23c.85,0,1.19-.61,1.19-1.23s-.36-1.26-1.2-1.26m-1.36,4.29c-.19-.09-.28-.2-.28-.37,0-.13,.06-.15,.18-.09,.26,.12,.68,.28,1.3,.28s1.33-.19,1.33-1.41v-.33c-.23,.35-.64,.59-1.27,.59-1.04,0-1.63-.68-1.63-1.68s.6-1.72,1.62-1.72c.62,0,1.04,.25,1.28,.61v-.13c0-.3,.12-.43,.41-.43,.1,0,.1,.04,.1,.2v2.96c0,1.45-.88,1.78-1.8,1.78-.65,0-1.04-.13-1.25-.24"/><path class="cls-1" d="M77.32,10.08c.79,0,1.22-.51,1.22-1.25s-.43-1.27-1.22-1.27-1.24,.53-1.24,1.27,.44,1.25,1.24,1.25m0-2.96c1.13,0,1.77,.68,1.77,1.71s-.64,1.69-1.77,1.69-1.78-.66-1.78-1.69,.63-1.71,1.78-1.71"/><path class="cls-1" d="M80.62,6.38v.78h.9c.14,0,.16,.02,.16,.17v.11c0,.15-.02,.16-.16,.16h-.9v1.85c0,.48,.27,.61,.49,.61,.2,0,.36-.05,.51-.13,.08-.03,.12-.02,.12,.11,0,.09-.01,.15-.05,.21-.11,.16-.34,.26-.72,.26-.59,0-.88-.34-.88-1.05v-1.86h-.42c-.14,0-.16-.01-.16-.16v-.11c0-.14,.02-.17,.16-.17h.42v-.24c0-.51,.17-.73,.42-.73,.1,0,.11,.04,.11,.18"/><path class="cls-1" d="M83.81,5.52c.09-.12,.13-.13,.27-.13h.27c.11,0,.14,.06,.04,.16l-.72,.73c-.06,.06-.1,.07-.2,.07h-.24c-.06,0-.08-.03-.04-.08l.6-.74Zm.7,3.61c-.31-.05-.7-.06-.97-.06-.56,0-.91,.06-.91,.49s.28,.55,.75,.55c.62,0,.92-.17,1.13-.33v-.65Zm-1.07-.46c.31,0,.72,.02,1.07,.06v-.43c0-.7-.57-.76-1-.76-.36,0-.7,.06-.93,.13-.19,.05-.21,.03-.21-.06,0-.19,.08-.3,.26-.36,.19-.06,.6-.14,.98-.14,.5,0,1.44,.12,1.44,1.12v2.08c0,.13,0,.18-.1,.18-.27,0-.4-.1-.42-.33-.2,.14-.57,.34-1.26,.34-.77,0-1.14-.32-1.14-.96s.45-.88,1.33-.88"/><path class="cls-1" d="M.27,4.61c-.22-.09-.32-.33-.23-.54,.09-.21,.34-.31,.56-.23,.22,.09,.33,.33,.23,.54-.09,.21-.34,.31-.56,.23"/></g></g></svg>