<?xml version="1.0" encoding="UTF-8"?>
<svg id="Capa_2" data-name="Capa 2" xmlns="http://www.w3.org/2000/svg" viewBox="0 0 370 170">
  <defs>
    <style>
      .cls-1 {
        fill: #fff;
      }
    </style>
  </defs>
  <g id="Capa_2-2" data-name="Capa 2-2">
    <g>
      <path class="cls-1" d="m173.24,95.71c-3.2-.49-5.26-.97-7.38-1.24-2.09-.27-2.73-.24-3.29-.24s-2.09.18-2.09.66,1.09.93,2.62,1.66c.12.07.24.11.32.18h.97c2.09,0,3.35,1.26,3.35,2.83s-1.32,2.83-3.41,2.83h-6.56v-5.66h3.56c-.35-.09-.71-.2-1.03-.33-.76-.31-2.38-.91-2.76-3.43,0,0,.12-.07.12-.18s-.15-.15-.29-.15c-.44,0-1.23-.07-1.88-.66h-5.5v14.23c1.76.2,3.32.4,4.35.62,1.41.29,2.53.55,3.41.8v-.44h6.56c6.7,0,10.7-3.41,10.7-7.59,0-1.35-.44-2.63-1.23-3.74-.18-.02-.38-.04-.59-.09l.06-.04Zm-23.19,11.5v7.19h7.76v-5.62c-.76-.2-1.56-.4-2.12-.53-1.21-.29-2.62-.62-5.64-1.04Zm15.79-14.51s.47.2,1.09.2c.56,0,1.38-.11,2.2-.24-.56-.18-1.15-.31-1.76-.42-.38.13-.71.31-.97.51,0,0-.41-.07-.53-.09-.12-.04-.15-.04-.18-.02,0,.02.06.07.15.09v-.02Zm1.88.91c-.26-.02-1.23-.18-1.23-.15,0,0,.65.18,1.21.24.56.09,1.59.31,2.26.38.62.07,1.91.24,2.62.38-.53-.42-1.09-.82-1.76-1.15-1.23.13-2.88.31-3.09.31Zm130.82,15.86v-17.52h-7.76v22.46h19.23v-4.93h-11.47Zm-26.02-18.05c-9.5,0-14.55,5.66-14.55,11.68,0,6.42,5.32,11.86,14.7,11.86s14.58-5.66,14.58-11.68c0-6.42-5.32-11.86-14.7-11.86h-.03Zm.29,18.83c-3.35,0-7.23-1.75-7.23-7.23,0-4.09,2.68-6.88,6.91-6.88,3.29,0,7.06,1.97,7.06,7.23,0,4-2.68,6.88-6.73,6.88Zm-79.67-18.63s.06.02.09.04c.26.13,1.18.6,1.62.82.41.22.91.53,1.09.66.21.15.73.53.5.8-.06.07-.15.07-.88-.31s-1.32-.8-1.91-1.04c-1.85-.8-3.17-.97-3.79-.91-.32.04-.88.09-1.88.09h-1c-6.73,1.31-10.32,6.19-10.32,11.35,0,6.42,5.09,11.86,14.08,11.86,6.61,0,10.14-1.88,12.85-4.49l-4.7-2.88c-1.73,1.79-4.53,2.65-7.23,2.65-3.82,0-7.23-1.75-7.47-5.07h19.46c.06-.58.12-1.17.12-1.75,0-7.5-5.14-11-10.58-11.81l-.03-.02Zm-8.88,9.12c0-2.96,2.88-4.89,5.85-4.89,2.32,0,5.85,1.35,5.85,4.89h-11.7Zm71.58-1.62c0-3.92-4-7.15-10.67-7.15h-14.32v22.46h7.76v-8.19h2.79l6.44,8.19h8.91l-7.11-8.72c3.94-1.13,6.2-3.63,6.2-6.59Zm-10.67,2.7h-6.56v-5.18h6.61c2.09,0,3.35,1.17,3.35,2.61s-1.32,2.57-3.41,2.57Zm-23.37-8.65s-.65.04-1.88-.66c-.38-.22-.79-.4-1.18-.53h-1.65s.09.04.12.09c.44.35.79.77.94,1.22.15.46.12,1.02.06,1.04-.18.04-.44-.62-.71-1.13-.24-.44-.73-.91-1.73-1.22h-1.68c.09.15.21.33.26.42.12.18.29.4.44.71.18.31.35.77.18,1.15,0,0-.44.09-1.29-1.13-.44-.62-.82-.95-1.26-1.15h-7.73v4.93h7.82v17.52h7.76v-17.52h7.82v-4.93h-8.38c.73.33,1.53.75,2.12,1.19h-.03Z"/>
      <path class="cls-1" d="m73.96,91.42c6.26,0,13.14,3.32,13.14,11.99,0,.58-.06,1.17-.12,1.75h-19.46c.24,3.32,3.65,5.07,7.47,5.07,2.68,0,5.5-.86,7.23-2.65l4.7,2.88c-2.68,2.61-6.2,4.49-12.85,4.49-9.03,0-14.08-5.44-14.08-11.86,0-6.02,4.91-11.68,13.96-11.68m-6.32,9.29h11.7c0-3.54-3.53-4.89-5.85-4.89-3,0-5.85,1.92-5.85,4.89m6.32-8.83c-4.06,0-7.5,1.17-9.91,3.41-2.23,2.04-3.44,4.8-3.44,7.81s1.26,6,3.53,8.05c2.44,2.19,5.88,3.36,9.97,3.36,6.59,0,9.79-1.95,11.96-3.96l-3.76-2.28c-1.73,1.55-4.44,2.46-7.32,2.46-3.82,0-7.79-1.7-8.08-5.51v-.49h19.52c.03-.42.09-.86.09-1.28,0-8.52-6.73-11.53-12.52-11.53m-6.94,9.29v-.46c0-3.36,3.29-5.35,6.47-5.35,2.5,0,6.47,1.46,6.47,5.35v.46h-12.96.03Z"/>
      <path class="cls-1" d="m157.31,107.04c-1.5-.38-5.03-.88-7.06-1.17-2.06-.29-7.06-.75-12.29-.93-5.38-.18-7.79-.15-12.96.11-.15,0-.32,0-.5.02,0,.09.03.2.06.29.18,0,.32,0,.5-.02,2.97-.18,8.26-.31,11.85-.18,3.47.11,13.73.88,17.52,1.64,5.59,1.11,6.53,1.99,6.26,2.28-.47.46-3.47-.44-4.97-.82s-3.29-.77-8.17-1.35-12.29-.55-12.73-.55c-.29,0-.29-.4-.29-.53,0-.24.18-.46.12-.49-.06-.02-.32.2-.32.53,0,.35.18.51.18.51,0,0-3.67.11-6.23.4-.56.07-1.68.2-3,.35.03.09.09.15.15.24,2.94-.31,5.73-.6,7.26-.69,4.5-.27,7.03-.07,12.88.38,6.82.53,10.14,1.57,11.7,1.97.91.22,3.47,1.06,3.91.07.38-.84-2.26-1.66-3.79-2.04l-.06-.02Zm-53-3.76s.88-1.79,3.67-1.79c1.44,0,1.79.33,1.79.33,0,0,.88,2.08,3.56,3.03,1.41.51,3.12.71,4.82.77,0-.11-.06-.22-.09-.33h-.24c-5.2-.31-8.23-2.23-8.23-6.02,0-.4.03-.8.15-1.17-.15-.15-.26-.29-.41-.42-.12.35-.21.77-.21,1.24,0,1.24.35,2.3.35,2.3,0,0-.47-.09-1.5-.09-1.41,0-3.7.66-3.7,2.19l.03-.04Zm102.8-45.35c.24-.35.41-.69.91-.86.15-.04.26-.07.41-.07-.12.04-.24.07-.32.13-.26.13-.56.4-.53.64,0,.18.06.44.24.62.09.15.26.27.5.35.26.09.59.13.85.13.24,0,.65-.07.91-.27.38-.27.44-.75.26-1.02-.09-.11-.12-.18-.12-.18.09.04.21.07.29.09.03,0,.06-.02.03-.04-.18-.15-.53-.35-.79-.46-.53-.2-1.15-.27-1.79-.2-.56.07-1.35.8-1.09,1.19.03.07.21,0,.26-.09l-.03.02Zm1.68-.8h0c-.44.2-.59.62-.41.95.21.4.79.46,1.29.4.21-.02.35-.09.47-.18-.09.13-.24.24-.47.31-.29.07-.65.04-.94,0-.38-.04-.65-.24-.79-.49-.15-.35-.03-.62.35-.84.15-.09.32-.13.5-.15Zm-94.25,50.73s-.44-.24-.44-.97c0-.6.82-.97,1.21-1.13.18-.09.35-.15.35-.18,0,0-.24.04-.41.11-.47.15-1.38.53-1.47,1.17s.24,1,.24,1c0,0-2.23,0-4.15-.55-1.91-.58-7.14-1.9-7.85-6.97-.18-1.26.12-3.12.53-4.51,0-.02,0-.04.03-.09-.21.02-.41.07-.59.11v.09c-.32,1.22-.68,2.72-.44,4.45.44,3.19,2.56,5.88,7.85,7.28.09.02,3.65.88,9.73.33-.06-.09-.09-.18-.15-.29-2.47.15-3.47.2-4.41.13l-.03.02Zm91.16-40.69c.62.64,2.03.84,3,.66.88-.15,1.59-.62,1.76-1.28.03-.11.06-.22.06-.35,0-.66-.94-2.39-3.06-2.01h-.06s-.97.18-1.26.46c-.62.42-.91.97-.82,1.53,0,.33.15.69.44.97l-.06.02Zm.88-2.61s.65-.27.94-.27h.26c.41.02.97.09,1.26.18.09.02.21.09.29.15-.09-.04-.18-.09-.29-.11,0,0-.06,0,0,.02.76.44,1.12.88,1.06,1.64,0,.07,0,.15-.03.22-.18.49-.68.86-1.32,1.04-.82.2-1.91,0-2.59-.35-.82-.46-.68-1.62.44-2.46l-.03-.07Zm-1.79-.69s.06-.11.09-.18c0-.04,0-.07.03-.11.09-.24.06-.58-.12-.75-.24-.24-.73-.38-1.23-.38-.94,0-1.65.31-1.53.77-.15.69.59,1.13,1.53,1.13.5,0,1-.15,1.23-.51v.02Zm-1.23.2c-.79.07-1.38-.29-1.44-.82.09-.38.68-.66,1.41-.62.38,0,.88.09,1.03.31,0,.02.03.07.06.11.03.2,0,.42-.03.6-.15.31-.62.4-1,.42h-.03Zm18.64-5.11s-.06-.22-.15-.31c0-.04-.06-.09-.12-.11h0c-.09-.07-.21-.11-.29-.07-.44.04-.82.49-.56.77.38.44,1.15.2,1.12-.29Zm-13.23,17.15c3.56-1.28,5-5.13,5.91-7.85.15-.24.53-.64.79-1.08s.21-.62,1.53-1.84c2.5-2.28,5.97-2.99,5.73-5.42,0,0,.62-.73.62-1.22s-.65-1.02-.65-1.02c-1.32-.93-2.62-1.02-3.06-1.11-1.26-.27-3.62-.18-4.76-.4-1.62-.33-3.15-1.17-5.59-1.17s-4.56,1-6.09,1.79c-1.5.8-3.5,2.1-3.7,2.23-.24.13-1.91,1.08-2.23,1.31,0,0-8.85-.44-8.85,1.39,0,.58,1.12,1.73-.18,1.68-1.29-.04-5.5,0-4.5,1.08,1,1.08,1.53,1.48-.41,1.35s-5.23.2-3.5,1.59c.62.51,1.29,1.04-.82.82-2.12-.24-5.44-.24-3.76,1.42.82.82,1.38,1.35-1.03,1.04-2.44-.31-5.14.2-3.59,1.48.82.69,1.59,1.28-.91.82-2.47-.46-4.23-.24-3.15,1.08.71.88.53.95-.82.75s-3.94-.22-2.7,1.08c.71.75.24,1.15-1.21,1.15s-2.73-.18-2.73.71-.65.97-2.38,1.46c-.79.22-5.32,1.5-8.97,2.32-5.62,1.28-16.02,1.02-27.43,3.25-8.82,1.73-13.91,5.22-15.46,6.7-.12.11-.24.24-.38.35.24,0,.47.02.71.04.12-.11.24-.22.35-.33,3.17-2.72,7.14-4.58,11.85-5.66,6.35-1.48,9.17-1.95,13.85-2.32,10.7-.86,13.41-1.15,18.05-1.75,3.23-.42,5.62-1.35,10.88-1.35,3.41,0,3.53,2.43,2.91,4.2-.5,1.42-1.65,4.25-2.18,5.11-.53.86-.71,1.5-.47,1.7s1.85.55,3.88-.42c2.03-.97,4.15-1.97,4.5-1.57.15.18-.68.88-1.73,1.24-1.03.35-1.76.58-1.79.64,0,0-.5.09-.68.11-.18,0-.32.02-.32.04s.91.07,1.68-.04c.76-.11,2.47-.44,3.65-.73s2.47-.24,2.5-.11c.06.13-.32.49-1.88.77-1.56.29-3.23.51-4.09,1.22,0,0-.41-.07-.53-.09-.12-.04-.15-.04-.18-.02,0,.02.06.07.15.09s.47.2,1.09.2,1.62-.15,2.53-.31c.94-.15,3.88-.55,5.03-.69s2.73-.42,3.12-.04c.15.13.15.35-1.53.69s-3.29.51-4.17.64c-.88.11-3.94.46-4.2.44-.26-.02-1.23-.18-1.23-.15,0,0,.65.18,1.21.24.56.09,1.59.31,2.26.38s2.09.29,2.76.4c.65.11,1.76.31,2.73.71s1.26.69,1.26.69c0,0-.24.33-3.44-.15-3.2-.49-5.26-.97-7.38-1.24-2.09-.27-2.73-.24-3.29-.24s-2.09.18-2.09.66,1.09.93,2.62,1.66c1.53.75,1.35.91,1.23,1.06-.09.13-.24.29-1.79-.51-.41-.22-1.5-.4-2.23-.71-.76-.31-2.38-.91-2.76-3.43,0,0,.12-.07.12-.18s-.15-.15-.29-.15c-.76,0-2.76-.22-2.76-3.34s1.38-3.76,3.47-5.33c.24-.18.32-.22.24-.31s-.26-.02-.47.11c-.53.42-2.82,1.79-3.41,3.76,0,0-1.26.53-3.17.53s-3.65-.84-4.5-3.05c0,0-.09-.33-.18-.31-.12,0-.12.15-.06.33s.41,3.27,4.7,3.45c1.35.07,2.68-.22,3.09-.44,0,0-.44,2.32.38,3.81,0,0-4.06-.15-6.14-.18-2.09-.02-8.08-.15-8.08-.15,0,0,2.56-.75,2.94-4.07.38-3.3-1.65-4.18-1.65-4.18,0,0,1.76,1.53,1.18,4.4-.44,2.21-2.44,3.89-4.09,3.78,0,0-2.47-.07-4.94-.18-2.47-.09-4.56-.13-4.56-.13,0,0,1.38-1.31,1.38-3.5s-1.65-3.27-1.65-3.27c0,0,1.41,1.15,1.15,3.27-.26,2.12-.91,2.81-1.12,2.99s-.5.35-.65.53c0,0-4.79-.29-9.11.62,0,0,.88-.58.88-2.41s-1.76-2.99-1.76-2.99c0,0,1.29.93,1.29,2.99,0,1.22-.59,1.97-.76,2.15-.15.18-.24.24-.09.38,0,0-2.85.38-5.56,1.79-.12.07-.53.27-1.12.66.09.07.18.13.29.2.15-.11.32-.22.5-.31,2.47-1.5,5.91-2.19,8.58-2.41,4.79-.42,9.5-.22,11.14-.2s8.08.31,12.08.42c4,.11,10.11.31,10.11.31.94.97,2.15.77,2.15.77,0,0,0,.71.59,1.81s1.88,1.73,2.18,1.81c.29.09,1.71.42,2.35.66s2.06,1.13,2.47.62c.56-.64-.65-1.22-1.44-1.62s-2.35-1.11-2.26-1.37c.12-.27.97-.4,2.5-.29,2.65.18,8.5,1.19,10.47,1.5,1.97.31,3.03,0,3.06-.24,0-.27-.94-.84-1.82-1.13-.88-.29-3.38-.75-4.59-.86-1.21-.13-2.12-.2-2.12-.2,2.38-.02,4.44-.35,6.26-.62,1.82-.27,3.15-.58,3.15-1.17s-1.68-.51-1.68-.51c-1.5.11-4.38.51-4.38.51-.65.11-4.29.86-5.06.77,0,0,.91-.44,2.76-.73.73-.11,2.06-.38,2.59-.69,0,0,3.17-.42,4.79-.58s3.82-.13,3.82-.13c4.47,2.04,7.17,1.44,9.32,1.39s4.41,1.44,5.06,1.84c.53.31,1.03.53,1.32.38.47-.24-.09-.88-.41-1.19-.24-.22-1.12-.69-1.5-.86-.41-.18-1.09-.46-1.09-.46,1.73-.18,3.17.84,4.12,1.39s1.35.58,1.59.42c.56-.4-.94-1.31-1.71-1.77-1-.6-2.18-.64-2.18-.64.21-.02,1.88-.38,3.65.18,2.32.73,1.85-.11,1.59-.38-.29-.29-1.56-.97-3.67-.97-2.97,0-3.59.64-6.88.46-1.68-.09-3.47-.84-3.47-.84,1.73-.24,4.17-.8,6.7-1.75,4.47-1.68,6.03-3.16,6.03-3.16,1.29,2.57,2.65,4.78,4.35,5.95,1.71,1.17,3.29,1.13,5.64,1.28,2.65.15,3.15.4,4.32,1.77.82.95,1.18,1.02,1.44.91.24-.11.24-.91.09-1.26-.18-.35-.91-1.35-.91-1.35.41,0,2.7.44,3.09,1.57.38,1.13.76,1.28.97,1.24.24-.04.24-.69.09-1.37-.15-.69-.97-1.39-.97-1.39.44,0,1.65.55,2.65,1,1,.46,2.12.66,2.29.46.18-.2-.41-.51-.73-.73s-1.29-.82-2.76-1.46c-1.5-.66-3.44-.73-6.14-1.15-3.94-.62-4.97-.97-6.03-2.08-1.06-1.13-1.47-3.43-1.62-5.2-.24-2.72-.82-4.05-.82-4.05.26-.88,0-1.81-.15-2.15,1.56.33,3.29.2,4.88-.38l.15-.2Zm-53.97,4.03c3.97-1.15,4.67-.97,4.82-2.04.06-.51.32-.69,2.12-.69,2.79,0,2.47-.95,1.94-1.48s-.24-1.02,1.53-.71c2.29.4,2.82.04,2.15-.97s-.06-1.28,1.71-.91c3.23.69,3.5-.11,2.35-.95-.68-.49-.32-1.73,2.03-1.33,3.44.6,3.56-.44,2.73-1.08s-1.38-1.84,2.15-1.39c3.56.44,3.15-.4,2.47-1.04-.5-.49-1.18-1.62,1.71-1.35,4,.38,3.15-.51,2.53-1.22-1.32-1.5,1.88-1.15,3.5-1.08s1.44-1.02.94-1.66c-1.18-1.55,6.61-1.35,6.61-1.35,0,0-3,1.53-6.09,3.34-3.09,1.79-10.08,5.95-15.11,8.52-5.03,2.57-11.08,4.89-15.43,6.42-4.32,1.53-10.05,2.35-10.05,2.35,0,0,1.44-.2,5.38-1.35l.03-.02Zm49.77,3.58c.15,1.02.68,4.2,2.18,5.09,1.5.88,4.7,1.35,7.35,1.75,2.65.4,3.29.6,4.2.91.88.31,2.38.97,3.29,1.68,0,0-.65.04-1.88-.66-.97-.55-2.06-.84-2.65-.75,0,0-.71-.55-1.53-.6,0,0,1.03.55,1.47.88.44.35.79.77.94,1.22.15.46.12,1.02.06,1.04-.18.04-.44-.62-.71-1.13-.35-.64-1.23-1.33-3.41-1.48,0,0,0-.04-.06-.09-.03-.04-.03-.09-.12-.09-.06,0-.06.09,0,.13.03.07.29.55.44.73.12.18.29.4.44.71.18.31.35.77.18,1.15,0,0-.44.09-1.29-1.13-.82-1.22-1.5-1.33-2.73-1.46-2.2-.24-4-.07-5.64-.66-1.65-.6-2.56-1.7-3.06-2.37-.5-.64-1.47-2.3-1.73-2.72s-.62-1.35-.79-1.55c0,0,1.44-.93,2.56-2.19,1.12-1.26,1.65-2.32,1.76-2.7,0,0,.65,3.3.76,4.31l-.03-.02Zm-4.26-9.47h0c.68,1.02,1.76,1.73,3,2.1.09.18.26.6.26,1.26,0,3.08-2.82,5.02-4.5,6.35-1.68,1.31-3,2.12-6.53,3.45-3.53,1.33-7,1.75-7,1.75-3.65-1.55-4.29-3.69-4.56-4.73-.97-3.63,10.26-6.02,13.76-6.95,3.79-1.02,4.5-2.65,3.44-5.31,0-.07-.12-.22-.29-.18-.18.04-.21.15-.18.22.76,2.37.12,3.69-2.5,4.58-1.09.35-2.2.58-3.29.91-2.09.62-4.26,1.24-6.23,2.04-5.06,2.08-6.23,3.32-4.56,6.33s6.09,4.58,9.64,4.58,2.76-.53,6.03-.53c1.65,0,2.88.46,3.35.93.5.46-.68.15-1.32,0-.68-.18-1.76-.62-4.09-.09-.21.04-.56-.02-.68-.07,0,0,0,.18,1.15.31,1.12.13,1.73.53,2.47.93.91.51,1.41,1,1.18,1.17-.21.18-1.5-.51-2.18-1-.73-.53-2.32-1.02-3.56-.71l-.18-.07c-.09-.02-.12-.07-.18-.04-.03,0-.03.07.24.2s1.18.6,1.62.82c.41.22.91.53,1.09.66.21.15.73.53.5.8-.06.07-.15.07-.88-.31s-1.32-.8-1.91-1.04c-1.85-.8-3.17-.97-3.79-.91-.32.04-.88.09-1.88.09s-4.17.2-8.82-2.7-4.73-5.24-4.73-5.46c0-.66.32-2.85,2.68-4.85,2.35-2.01,4.2-3.32,5.23-3.98,1.06-.69,2.62-1.64,2.7-1.7s.21-.18.09-.27c-.12-.11-.26-.04-.41.04-.12.09-2.32,1.48-2.73,1.73-.38.24-3.03,2.08-3.94,2.81-.91.73-2.47,2.23-3.06,3.03-.59.77-1.21,2.19-1.21,3.27s1.15,2.48,2.23,3.54c1.09,1.06,2.62,2.1,4.38,3.12,0,0-1.94-.07-4,.18-2.09.24-3.7.55-3.7.55.12-.07,0-.04.09-.09s.12-.18.12-.18c.06-.18-.53-.38-.97-.38-.85.02-1.5.15-2.44.29-.94.15-2.47.53-2.47.53,0,0,3-.97,2.38-1.79-.15-.2-.73-.51-3.62.84-2.88,1.33-4.15,1.39-4.44,1.04s.09-1.08.59-1.79c.5-.69,1.5-2.83,1.85-4.12.35-1.28,1.09-3.12-.53-4.38-1.59-1.24-6.14-.62-7.38-.35,0,0,1.23-.42,1.97-.62s4.32-1.06,6.85-2.06c2.53-1.02,6.41-2.68,8.38-3.65s10.35-5.42,10.94-5.75,7.97-4.47,9-5.11c1.03-.64,6.64-3.78,7.23-4.14.59-.33,2.85-1.7,3.7-2.15.82-.42,2.65-1.73,5.56-1.73s4.17.77,5.62.97,3.65.27,4.97.51c1.32.24,3.2.71,3.2,1.84s-1.97,1.86-3.38,2.32c-1.41.46-3.44.95-4.62,1.19s-2.85.62-4.47.62-2.03-.6-2.06-.64c-.03-.04-.06-.09-.12-.07-.06,0,0,.11,0,.13s.29.93,2.59.93,4.97-.66,6.47-1.13c1.5-.46,3.12-.93,3.7-1.24.59-.31,1.03-.49,1.38-.86,0,0-.21.91-.91,1.59-1.65,1.59-5.29,3.21-6.64,5.44h0c-.68.95-1.18,1.99-2.38,2.72-2.32,1.39-6.29,1.92-8.85.8h0c2.23,1.04,4.88.86,7.26.22,1.21-.33,2.03-.8,2.68-1.37-.76,1.35-1.26,2.79-2.18,4.07-2.23,3.1-8.41,4.03-11.08.73l-.15-.07Z"/>
      <path class="cls-1" d="m103.57,91.42c5.79,0,9.91,2.26,12.17,5.58l-5.85,2.21c-1.38-2.15-3.82-3.05-6.03-3.05-4.17,0-6.73,2.79-6.73,6.88,0,5.49,3.76,7.23,7.06,7.23,2.56,0,4.53-1.08,5.67-2.83l5.73,2.3c-2.26,3.1-6.26,5.27-11.88,5.27-9.03,0-14.08-5.44-14.08-11.86,0-6.02,4.91-11.68,13.96-11.68m0,.46c-4.06,0-7.47,1.17-9.91,3.41-2.2,2.04-3.44,4.82-3.44,7.81,0,3.14,1.26,6,3.53,8.05,2.44,2.19,5.88,3.36,9.94,3.36,4.73,0,8.61-1.64,11.02-4.6l-4.62-1.84c-1.32,1.73-3.41,2.65-5.94,2.65-3.7,0-7.67-2.01-7.67-7.7,0-4.45,2.88-7.35,7.35-7.35,2.62,0,4.91,1.08,6.29,2.9l4.73-1.79c-2.38-3.16-6.38-4.91-11.35-4.91"/>
      <path class="cls-1" d="m131.82,91.42c9.38,0,14.7,5.44,14.7,11.86,0,.73-.15,1.68-.29,2.39-2.53-.24-5.03-.42-7.56-.49.09-.51.21-1.26.21-1.81,0-5.27-3.76-7.23-7.06-7.23-4.23,0-6.94,2.79-6.94,6.88,0,5.49,3.88,7.23,7.23,7.23,2.62,0,4.67-1.19,5.79-3.14.12-.2.26-.53.35-.75,1.97.07,4.56.18,7.64.42-.15.4-.41,1-.59,1.37-2.03,3.87-6.56,6.79-13.38,6.79-9.38,0-14.7-5.44-14.7-11.86,0-6.02,5.09-11.68,14.58-11.68m0,.46c-9.58,0-13.96,5.82-13.96,11.22,0,3.14,1.29,6,3.67,8.03,2.56,2.19,6.14,3.36,10.41,3.36,5.97,0,10.64-2.37,12.79-6.48.12-.22.35-.77.47-1.06-2.15-.15-4.32-.29-6.44-.35-.09.15-.21.58-.29.69-1.26,2.17-3.59,3.41-6.35,3.41-3.79,0-7.85-2.01-7.85-7.7,0-4.38,3.03-7.35,7.56-7.35,3.82,0,7.67,2.39,7.67,7.7,0,.42-.12,1.24-.18,1.68,2.5.27,3.32.22,6.29.46.09-.51.29-1.62.29-2.23,0-3.12-1.29-5.97-3.67-8.03-2.56-2.19-6.14-3.36-10.38-3.36"/>
    </g>
  </g>
</svg>