<?xml version="1.0" encoding="UTF-8"?><svg id="Capa_2" xmlns="http://www.w3.org/2000/svg" viewBox="0 0 85.04 27.09"><defs><style>.cls-1{fill:#fff;}</style></defs><g id="Capa_2-2"><g><path class="cls-1" d="M38.52,18.39c-1.09-.22-1.79-.44-2.51-.56-.71-.12-.93-.11-1.12-.11s-.71,.08-.71,.3,.37,.42,.89,.75c.04,.03,.08,.05,.11,.08h.33c.71,0,1.14,.57,1.14,1.28s-.45,1.28-1.16,1.28h-2.23v-2.56h1.21c-.12-.04-.24-.09-.35-.15-.26-.14-.81-.41-.94-1.55,0,0,.04-.03,.04-.08s-.05-.07-.1-.07c-.15,0-.42-.03-.64-.3h-1.87v6.43c.6,.09,1.13,.18,1.48,.28,.48,.13,.86,.25,1.16,.36v-.2h2.23c2.28,0,3.64-1.54,3.64-3.43,0-.61-.15-1.19-.42-1.69-.06-.01-.13-.02-.2-.04Zm-7.89,5.2v3.25h2.64v-2.54c-.26-.09-.53-.18-.72-.24-.41-.13-.89-.28-1.92-.47Zm5.37-6.56s.16,.09,.37,.09c.19,0,.47-.05,.75-.11-.19-.08-.39-.14-.6-.19-.13,.06-.24,.14-.33,.23,0,0-.14-.03-.18-.04-.04-.02-.05-.02-.06-.01,0,.01,.02,.03,.05,.04Zm.64,.41c-.09-.01-.42-.08-.42-.07,0,0,.22,.08,.41,.11,.19,.04,.54,.14,.77,.17,.21,.03,.65,.11,.89,.17-.18-.19-.37-.37-.6-.52-.42,.06-.98,.14-1.05,.14Zm44.5,7.17v-7.92h-2.64v10.15h6.54v-2.23h-3.9Zm-8.85-8.16c-3.23,0-4.95,2.56-4.95,5.28,0,2.9,1.81,5.36,5,5.36s4.96-2.56,4.96-5.28c0-2.9-1.81-5.36-5-5.36Zm.1,8.51c-1.14,0-2.46-.79-2.46-3.27,0-1.85,.91-3.11,2.35-3.11,1.12,0,2.4,.89,2.4,3.27,0,1.81-.91,3.11-2.29,3.11Zm-27.1-8.42s.02,.01,.03,.02c.09,.06,.4,.27,.55,.37,.14,.1,.31,.24,.37,.3,.07,.07,.25,.24,.17,.36-.02,.03-.05,.03-.3-.14-.25-.17-.45-.36-.65-.47-.63-.36-1.08-.44-1.29-.41-.11,.02-.3,.04-.64,.04-.08,0-.19,0-.34,0-2.29,.59-3.51,2.8-3.51,5.13,0,2.9,1.73,5.36,4.79,5.36,2.25,0,3.45-.85,4.37-2.03l-1.6-1.3c-.59,.81-1.54,1.2-2.46,1.2-1.3,0-2.46-.79-2.54-2.29h6.62c.02-.26,.04-.53,.04-.79,0-3.39-1.75-4.97-3.6-5.34Zm-3.02,4.12c0-1.34,.98-2.21,1.99-2.21,.79,0,1.99,.61,1.99,2.21h-3.98Zm24.35-.73c0-1.77-1.36-3.23-3.63-3.23h-4.87v10.15h2.64v-3.7h.95l2.19,3.7h3.03l-2.42-3.94c1.34-.51,2.11-1.64,2.11-2.98Zm-3.63,1.22h-2.23v-2.34h2.25c.71,0,1.14,.53,1.14,1.18s-.45,1.16-1.16,1.16Zm-7.95-3.91s-.22,.02-.64-.3c-.13-.1-.27-.18-.4-.24h-.56s.03,.02,.04,.04c.15,.16,.27,.35,.32,.55,.05,.21,.04,.46,.02,.47-.06,.02-.15-.28-.24-.51-.08-.2-.25-.41-.59-.55h-.57c.03,.07,.07,.15,.09,.19,.04,.08,.1,.18,.15,.32,.06,.14,.12,.35,.06,.52,0,0-.15,.04-.44-.51-.15-.28-.28-.43-.43-.52h-2.63v2.23h2.66v7.92h2.64v-7.92h2.66v-2.23h-2.85c.25,.15,.52,.34,.72,.54Z"/><path class="cls-1" d="M4.75,16.45c2.13,0,4.47,1.5,4.47,5.42,0,.26-.02,.53-.04,.79H2.56c.08,1.5,1.24,2.29,2.54,2.29,.91,0,1.87-.39,2.46-1.2l1.6,1.3c-.91,1.18-2.11,2.03-4.37,2.03-3.07,0-4.79-2.46-4.79-5.36,0-2.72,1.67-5.28,4.75-5.28m-2.15,4.2h3.98c0-1.6-1.2-2.21-1.99-2.21-1.02,0-1.99,.87-1.99,2.21m2.15-3.99c-1.38,0-2.55,.53-3.37,1.54-.76,.92-1.17,2.17-1.17,3.53s.43,2.71,1.2,3.64c.83,.99,2,1.52,3.39,1.52,2.24,0,3.33-.88,4.07-1.79l-1.28-1.03c-.59,.7-1.51,1.11-2.49,1.11-1.3,0-2.65-.77-2.75-2.49v-.22s.21,0,.21,0h6.43c.01-.19,.03-.39,.03-.58,0-3.85-2.29-5.21-4.26-5.21m-2.36,4.2v-.21c0-1.52,1.12-2.42,2.2-2.42,.85,0,2.2,.66,2.2,2.42v.21H2.39Z"/><path class="cls-1" d="M33.1,23.51c-.51-.17-1.71-.4-2.4-.53-.7-.13-2.4-.34-4.18-.42-1.83-.08-2.65-.07-4.41,.05-.05,0-.11,0-.17,.01,0,.04,.01,.09,.02,.13,.06,0,.11,0,.17-.01,1.01-.08,2.81-.14,4.03-.08,1.18,.05,4.67,.4,5.96,.74,1.9,.5,2.22,.9,2.13,1.03-.16,.21-1.18-.2-1.69-.37-.51-.17-1.12-.35-2.78-.61-1.66-.26-4.18-.25-4.33-.25-.1,0-.1-.18-.1-.24,0-.11,.06-.21,.04-.22-.02-.01-.11,.09-.11,.24,0,.16,.06,.23,.06,.23,0,0-1.25,.05-2.12,.18-.19,.03-.57,.09-1.02,.16,.01,.04,.03,.07,.05,.11,1-.14,1.95-.27,2.47-.31,1.53-.12,2.39-.03,4.38,.17,2.32,.24,3.45,.71,3.98,.89,.31,.1,1.18,.48,1.33,.03,.13-.38-.77-.75-1.29-.92Zm-18.03-1.7s.3-.81,1.25-.81c.49,0,.61,.15,.61,.15,0,0,.3,.94,1.21,1.37,.48,.23,1.06,.32,1.64,.35,0-.05-.02-.1-.03-.15-.03,0-.05,0-.08,0-1.77-.14-2.8-1.01-2.8-2.72,0-.18,.01-.36,.05-.53-.05-.07-.09-.13-.14-.19-.04,.16-.07,.35-.07,.56,0,.56,.12,1.04,.12,1.04,0,0-.16-.04-.51-.04-.48,0-1.26,.3-1.26,.99ZM50.04,1.31c.08-.16,.14-.31,.31-.39,.05-.02,.09-.03,.14-.03-.04,.02-.08,.03-.11,.06-.09,.06-.19,.18-.18,.29,0,.08,.02,.2,.08,.28,.03,.07,.09,.12,.17,.16,.09,.04,.2,.06,.29,.06,.08,0,.22-.03,.31-.12,.13-.12,.15-.34,.09-.46-.03-.05-.04-.08-.04-.08,.03,.02,.07,.03,.1,.04,.01,0,.02-.01,.01-.02-.06-.07-.18-.16-.27-.21-.18-.09-.39-.12-.61-.09-.19,.03-.46,.36-.37,.54,.01,.03,.07,0,.09-.04Zm.57-.36s0,0,0,0c-.15,.09-.2,.28-.14,.43,.07,.18,.27,.21,.44,.18,.07-.01,.12-.04,.16-.08-.03,.06-.08,.11-.16,.14-.1,.03-.22,.02-.32,0-.13-.02-.22-.11-.27-.22-.05-.16-.01-.28,.12-.38,.05-.04,.11-.06,.17-.07ZM18.55,23.88s-.15-.11-.15-.44c0-.27,.28-.44,.41-.51,.06-.04,.12-.07,.12-.08,0,0-.08,.02-.14,.05-.16,.07-.47,.24-.5,.53-.03,.29,.08,.45,.08,.45,0,0-.76,0-1.41-.25-.65-.26-2.43-.86-2.67-3.15-.06-.57,.04-1.41,.18-2.04,0-.01,0-.02,.01-.04-.07,.01-.14,.03-.2,.05,0,.01,0,.03,0,.04-.11,.55-.23,1.23-.15,2.01,.15,1.44,.87,2.66,2.67,3.29,.03,.01,1.24,.4,3.31,.15-.02-.04-.03-.08-.05-.13-.84,.07-1.18,.09-1.5,.06ZM49.56,5.49c.21,.29,.69,.38,1.02,.3,.3-.07,.54-.28,.6-.58,.01-.05,.02-.1,.02-.16,0-.3-.32-1.08-1.04-.91,0,0-.01,0-.02,0,0,0-.33,.08-.43,.21-.21,.19-.31,.44-.28,.69,0,.15,.05,.31,.15,.44Zm.3-1.18s.22-.12,.32-.12c.04,0,.07,0,.09,0,.14,.01,.33,.04,.43,.08,.03,.01,.07,.04,.1,.07-.03-.02-.06-.04-.1-.05,0,0-.02,0,0,.01,.26,.2,.38,.4,.36,.74,0,.03,0,.07-.01,.1-.06,.22-.23,.39-.45,.47-.28,.09-.65,0-.88-.16-.28-.21-.23-.73,.15-1.11Zm-.61-.31s.02-.05,.03-.08c0-.02,0-.03,.01-.05,.03-.11,.02-.26-.04-.34-.08-.11-.25-.17-.42-.17-.32,0-.56,.14-.52,.35-.05,.31,.2,.51,.52,.51,.17,0,.34-.07,.42-.23Zm-.42,.09c-.27,.03-.47-.13-.49-.37,.03-.17,.23-.3,.48-.28,.13,0,.3,.04,.35,.14,0,.01,.01,.03,.02,.05,.01,.09,0,.19-.01,.27-.05,.14-.21,.18-.34,.19Zm6.34-2.31s-.02-.1-.05-.14c0-.02-.02-.04-.04-.05,0,0,0,0,0,0-.03-.03-.07-.05-.1-.03-.15,.02-.28,.22-.19,.35,.13,.2,.39,.09,.38-.13Zm-4.5,7.75c1.21-.58,1.7-2.32,2.01-3.55,.05-.11,.18-.29,.27-.49,.09-.2,.07-.28,.52-.83,.85-1.03,2.03-1.35,1.95-2.45,0,0,.21-.33,.21-.55s-.22-.46-.22-.46c-.45-.42-.89-.46-1.04-.5-.43-.12-1.23-.08-1.62-.18-.55-.15-1.07-.53-1.9-.53s-1.55,.45-2.07,.81c-.51,.36-1.19,.95-1.26,1.01-.08,.06-.65,.49-.76,.59,0,0-3.01-.2-3.01,.63,0,.26,.38,.78-.06,.76-.44-.02-1.87,0-1.53,.49,.34,.49,.52,.67-.14,.61-.66-.06-1.78,.09-1.19,.72,.21,.23,.44,.47-.28,.37-.72-.11-1.85-.11-1.28,.64,.28,.37,.47,.61-.35,.47-.83-.14-1.75,.09-1.22,.67,.28,.31,.54,.58-.31,.37-.84-.21-1.44-.11-1.07,.49,.24,.4,.18,.43-.28,.34s-1.34-.1-.92,.49c.24,.34,.08,.52-.41,.52s-.93-.08-.93,.32-.22,.44-.81,.66c-.27,.1-1.81,.68-3.05,1.05-1.91,.58-5.45,.46-9.33,1.47-3,.78-4.73,2.36-5.26,3.03-.04,.05-.08,.11-.13,.16,.08,0,.16,.01,.24,.02,.04-.05,.08-.1,.12-.15,1.08-1.23,2.43-2.07,4.03-2.56,2.16-.67,3.12-.88,4.71-1.05,3.64-.39,4.56-.52,6.14-.79,1.1-.19,1.91-.61,3.7-.61,1.16,0,1.2,1.1,.99,1.9-.17,.64-.56,1.92-.74,2.31-.18,.39-.24,.68-.16,.77,.08,.09,.63,.25,1.32-.19,.69-.44,1.41-.89,1.53-.71,.05,.08-.23,.4-.59,.56-.35,.16-.6,.26-.61,.29,0,0-.17,.04-.23,.05-.06,0-.11,.01-.11,.02,0,.01,.31,.03,.57-.02,.26-.05,.84-.2,1.24-.33,.4-.13,.84-.11,.85-.05,.02,.06-.11,.22-.64,.35-.53,.13-1.1,.23-1.39,.55,0,0-.14-.03-.18-.04-.04-.02-.05-.02-.06-.01,0,.01,.02,.03,.05,.04,.03,.01,.16,.09,.37,.09s.55-.07,.86-.14c.32-.07,1.32-.25,1.71-.31,.39-.06,.93-.19,1.06-.02,.05,.06,.05,.16-.52,.31-.57,.15-1.12,.23-1.42,.29-.3,.05-1.34,.21-1.43,.2-.09-.01-.42-.08-.42-.07,0,0,.22,.08,.41,.11,.19,.04,.54,.14,.77,.17,.23,.03,.71,.13,.94,.18,.22,.05,.6,.14,.93,.32,.33,.18,.43,.31,.43,.31,0,0-.08,.15-1.17-.07-1.09-.22-1.79-.44-2.51-.56-.71-.12-.93-.11-1.12-.11s-.71,.08-.71,.3,.37,.42,.89,.75c.52,.34,.46,.41,.42,.48-.03,.06-.08,.13-.61-.23-.14-.1-.51-.18-.76-.32-.26-.14-.81-.41-.94-1.55,0,0,.04-.03,.04-.08s-.05-.07-.1-.07c-.26,0-.94-.1-.94-1.51s.47-1.7,1.18-2.41c.08-.08,.11-.1,.08-.14-.03-.04-.09-.01-.16,.05-.18,.19-.96,.81-1.16,1.7,0,0-.43,.24-1.08,.24s-1.24-.38-1.53-1.38c0,0-.03-.15-.06-.14-.04,0-.04,.07-.02,.15,.02,.08,.14,1.48,1.6,1.56,.46,.03,.91-.1,1.05-.2,0,0-.15,1.05,.13,1.72,0,0-1.38-.07-2.09-.08-.71-.01-2.75-.07-2.75-.07,0,0,.87-.34,1-1.84,.13-1.49-.56-1.89-.56-1.89,0,0,.6,.69,.4,1.99-.15,1-.83,1.76-1.39,1.71,0,0-.84-.03-1.68-.08-.84-.04-1.55-.06-1.55-.06,0,0,.47-.59,.47-1.58s-.56-1.48-.56-1.48c0,0,.48,.52,.39,1.48-.09,.96-.31,1.27-.38,1.35-.07,.08-.17,.16-.22,.24,0,0-1.63-.13-3.1,.28,0,0,.3-.26,.3-1.09s-.6-1.35-.6-1.35c0,0,.44,.42,.44,1.35,0,.55-.2,.89-.26,.97-.05,.08-.08,.11-.03,.17,0,0-.97,.17-1.89,.81-.04,.03-.18,.12-.38,.3,.03,.03,.06,.06,.1,.09,.05-.05,.11-.1,.17-.14,.84-.68,2.01-.99,2.92-1.09,1.63-.19,3.23-.1,3.79-.09,.56,.01,2.75,.14,4.11,.19,1.36,.05,3.44,.14,3.44,.14,.32,.44,.73,.35,.73,.35,0,0,0,.32,.2,.82,.2,.5,.64,.78,.74,.82,.1,.04,.58,.19,.8,.3,.22,.11,.7,.51,.84,.28,.19-.29-.22-.55-.49-.73-.27-.18-.8-.5-.77-.62,.04-.12,.33-.18,.85-.13,.9,.08,2.89,.54,3.56,.68,.67,.14,1.03,0,1.04-.11,0-.12-.32-.38-.62-.51-.3-.13-1.15-.34-1.56-.39-.41-.06-.72-.09-.72-.09,.81-.01,1.51-.16,2.13-.28,.62-.12,1.07-.26,1.07-.53s-.57-.23-.57-.23c-.51,.05-1.49,.23-1.49,.23-.22,.05-1.46,.39-1.72,.35,0,0,.31-.2,.94-.33,.25-.05,.7-.17,.88-.31,0,0,1.08-.19,1.63-.26,.55-.07,1.3-.06,1.3-.06,1.52,.92,2.44,.65,3.17,.63,.73-.02,1.5,.65,1.72,.83,.18,.14,.35,.24,.45,.17,.16-.11-.03-.4-.14-.54-.08-.1-.38-.31-.51-.39-.14-.08-.37-.21-.37-.21,.59-.08,1.08,.38,1.4,.63,.32,.25,.46,.26,.54,.19,.19-.18-.32-.59-.58-.8-.34-.27-.74-.29-.74-.29,.07-.01,.64-.17,1.24,.08,.79,.33,.63-.05,.54-.17-.1-.13-.53-.44-1.25-.44-1.01,0-1.22,.29-2.34,.21-.57-.04-1.18-.38-1.18-.38,.59-.11,1.42-.36,2.28-.79,1.52-.76,2.05-1.43,2.05-1.43,.44,1.16,.9,2.16,1.48,2.69,.58,.53,1.12,.51,1.92,.58,.9,.07,1.07,.18,1.47,.8,.28,.43,.4,.46,.49,.41,.08-.05,.08-.41,.03-.57-.06-.16-.31-.61-.31-.61,.14,0,.92,.2,1.05,.71,.13,.51,.26,.58,.33,.56,.08-.02,.08-.31,.03-.62-.05-.31-.33-.63-.33-.63,.15,0,.56,.25,.9,.45,.34,.21,.72,.3,.78,.21,.06-.09-.14-.23-.25-.33-.11-.1-.44-.37-.94-.66-.51-.3-1.17-.33-2.09-.52-1.34-.28-1.69-.44-2.05-.94-.36-.51-.5-1.55-.55-2.35-.08-1.23-.28-1.83-.28-1.83,.09-.4,0-.82-.05-.97,.53,.15,1.12,.09,1.66-.17Zm-18.36,1.82c1.35-.52,1.59-.44,1.64-.92,.02-.23,.11-.31,.72-.31,.95,0,.84-.43,.66-.67-.18-.24-.08-.46,.52-.32,.78,.18,.96,.02,.73-.44-.23-.46-.02-.58,.58-.41,1.1,.31,1.19-.05,.8-.43-.23-.22-.11-.78,.69-.6,1.17,.27,1.21-.2,.93-.49-.28-.29-.47-.83,.73-.63,1.21,.2,1.07-.18,.84-.47-.17-.22-.4-.73,.58-.61,1.36,.17,1.07-.23,.86-.55-.45-.68,.64-.52,1.19-.49,.55,.03,.49-.46,.32-.75-.4-.7,2.25-.61,2.25-.61,0,0-1.02,.69-2.07,1.51-1.05,.81-3.43,2.69-5.14,3.85-1.71,1.16-3.77,2.21-5.25,2.9-1.47,.69-3.42,1.06-3.42,1.06,0,0,.49-.09,1.83-.61Zm16.93,1.62c.05,.46,.23,1.9,.74,2.3,.51,.4,1.6,.61,2.5,.79,.9,.18,1.12,.27,1.43,.41,.3,.14,.81,.44,1.12,.76,0,0-.22,.02-.64-.3-.33-.25-.7-.38-.9-.34,0,0-.24-.25-.52-.27,0,0,.35,.25,.5,.4,.15,.16,.27,.35,.32,.55,.05,.21,.04,.46,.02,.47-.06,.02-.15-.28-.24-.51-.12-.29-.42-.6-1.16-.67,0,0,0-.02-.02-.04-.01-.02-.01-.04-.04-.04-.02,0-.02,.04,0,.06,.01,.03,.1,.25,.15,.33,.04,.08,.1,.18,.15,.32,.06,.14,.12,.35,.06,.52,0,0-.15,.04-.44-.51-.28-.55-.51-.6-.93-.66-.75-.11-1.36-.03-1.92-.3-.56-.27-.87-.77-1.04-1.07-.17-.29-.5-1.04-.59-1.23-.09-.19-.21-.61-.27-.7,0,0,.49-.42,.87-.99,.38-.57,.56-1.05,.6-1.22,0,0,.22,1.49,.26,1.95Zm-1.45-4.28s0,0,0,0c.23,.46,.6,.78,1.02,.95,.03,.08,.09,.27,.09,.57,0,1.39-.96,2.27-1.53,2.87-.57,.59-1.02,.96-2.22,1.56-1.2,.6-2.38,.79-2.38,.79-1.24-.7-1.46-1.67-1.55-2.14-.33-1.64,3.49-2.72,4.68-3.14,1.29-.46,1.53-1.2,1.17-2.4,0-.03-.04-.1-.1-.08-.06,.02-.07,.07-.06,.1,.26,1.07,.04,1.67-.85,2.07-.37,.16-.75,.26-1.12,.41-.71,.28-1.45,.56-2.12,.92-1.72,.94-2.12,1.5-1.55,2.86,.57,1.36,2.07,2.07,3.28,2.07s.94-.24,2.05-.24c.56,0,.98,.21,1.14,.42,.17,.21-.23,.07-.45,0-.23-.08-.6-.28-1.39-.04-.07,.02-.19-.01-.23-.03,0,0,0,.08,.39,.14,.38,.06,.59,.24,.84,.42,.31,.23,.48,.45,.4,.53-.07,.08-.51-.23-.74-.45-.25-.24-.79-.46-1.21-.32,0,0-.04-.02-.06-.03-.03-.01-.04-.03-.06-.02-.01,0-.01,.03,.08,.09,.09,.06,.4,.27,.55,.37,.14,.1,.31,.24,.37,.3,.07,.07,.25,.24,.17,.36-.02,.03-.05,.03-.3-.14-.25-.17-.45-.36-.65-.47-.63-.36-1.08-.44-1.29-.41-.11,.02-.3,.04-.64,.04s-1.42,.09-3-1.22c-1.58-1.31-1.61-2.37-1.61-2.47,0-.3,.11-1.29,.91-2.19,.8-.91,1.43-1.5,1.78-1.8,.36-.31,.89-.74,.92-.77,.03-.03,.07-.08,.03-.12-.04-.05-.09-.02-.14,.02-.04,.04-.79,.67-.93,.78-.13,.11-1.03,.94-1.34,1.27-.31,.33-.84,1.01-1.04,1.37-.2,.35-.41,.99-.41,1.48s.39,1.12,.76,1.6c.37,.48,.89,.95,1.49,1.41,0,0-.66-.03-1.36,.08-.71,.11-1.26,.25-1.26,.25,.04-.03,0-.02,.03-.04,.03-.02,.04-.08,.04-.08,.02-.08-.18-.17-.33-.17-.29,.01-.51,.07-.83,.13-.32,.07-.84,.24-.84,.24,0,0,1.02-.44,.81-.81-.05-.09-.25-.23-1.23,.38-.98,.6-1.41,.63-1.51,.47-.1-.16,.03-.49,.2-.81,.17-.31,.51-1.28,.63-1.86,.12-.58,.37-1.41-.18-1.98-.54-.56-2.09-.28-2.51-.16,0,0,.42-.19,.67-.28,.25-.09,1.47-.48,2.33-.93,.86-.46,2.18-1.21,2.85-1.65,.67-.44,3.52-2.45,3.72-2.6s2.71-2.02,3.06-2.31c.35-.29,2.26-1.71,2.46-1.87,.2-.15,.97-.77,1.26-.97,.28-.19,.9-.78,1.89-.78s1.42,.35,1.91,.44c.49,.09,1.24,.12,1.69,.23,.45,.11,1.09,.32,1.09,.83s-.67,.84-1.15,1.05c-.48,.21-1.17,.43-1.57,.54-.4,.11-.97,.28-1.52,.28s-.69-.27-.7-.29c-.01-.02-.02-.04-.04-.03-.02,0,0,.05,0,.06,0,.01,.1,.42,.88,.42s1.69-.3,2.2-.51c.51-.21,1.06-.42,1.26-.56,.2-.14,.35-.22,.47-.39,0,0-.07,.41-.31,.72-.56,.72-1.8,1.45-2.26,2.46h0c-.23,.43-.4,.9-.81,1.23-.79,.63-2.14,.87-3.01,.36,0,0,0,0,0,0,.76,.47,1.66,.39,2.47,.1,.41-.15,.69-.36,.91-.62-.26,.61-.43,1.26-.74,1.84-.76,1.4-2.86,1.82-3.77,.33Z"/><path class="cls-1" d="M14.82,16.45c1.97,0,3.37,1.02,4.14,2.52l-1.99,1c-.47-.97-1.3-1.38-2.05-1.38-1.42,0-2.29,1.26-2.29,3.11,0,2.48,1.28,3.27,2.4,3.27,.87,0,1.54-.49,1.93-1.28l1.95,1.04c-.77,1.4-2.13,2.38-4.04,2.38-3.07,0-4.79-2.46-4.79-5.36,0-2.72,1.67-5.28,4.75-5.28m0,.21c-1.38,0-2.54,.53-3.37,1.54-.75,.92-1.17,2.18-1.17,3.53,0,1.42,.43,2.71,1.2,3.64,.83,.99,2,1.52,3.38,1.52,1.61,0,2.93-.74,3.75-2.08l-1.57-.83c-.45,.78-1.16,1.2-2.02,1.2-1.26,0-2.61-.91-2.61-3.48,0-2.01,.98-3.32,2.5-3.32,.89,0,1.67,.49,2.14,1.31l1.61-.81c-.81-1.43-2.17-2.22-3.86-2.22"/><path class="cls-1" d="M24.43,16.45c3.19,0,5,2.46,5,5.36,0,.33-.05,.76-.1,1.08-.86-.11-1.71-.19-2.57-.22,.03-.23,.07-.57,.07-.82,0-2.38-1.28-3.27-2.4-3.27-1.44,0-2.36,1.26-2.36,3.11,0,2.48,1.32,3.27,2.46,3.27,.89,0,1.59-.54,1.97-1.42,.04-.09,.09-.24,.12-.34,.67,.03,1.55,.08,2.6,.19-.05,.18-.14,.45-.2,.62-.69,1.75-2.23,3.07-4.55,3.07-3.19,0-5-2.46-5-5.36,0-2.72,1.73-5.28,4.96-5.28m0,.21c-3.26,0-4.75,2.63-4.75,5.07,0,1.42,.44,2.71,1.25,3.63,.87,.99,2.09,1.52,3.54,1.52,2.03,0,3.62-1.07,4.35-2.93,.04-.1,.12-.35,.16-.48-.73-.07-1.47-.13-2.19-.16-.03,.07-.07,.26-.1,.31-.43,.98-1.22,1.54-2.16,1.54-1.29,0-2.67-.91-2.67-3.48,0-1.98,1.03-3.32,2.57-3.32,1.3,0,2.61,1.08,2.61,3.48,0,.19-.04,.56-.06,.76,.85,.12,1.13,.1,2.14,.21,.03-.23,.1-.73,.1-1.01,0-1.41-.44-2.7-1.25-3.63-.87-.99-2.09-1.52-3.53-1.52"/></g></g></svg>