<?xml version="1.0" standalone="yes"?>
<svg xmlns="http://www.w3.org/2000/svg" width="355" height="142">
<path style="fill:none; stroke:none;" d="M0 0L0 142L355 142L355 0L0 0z"/>
<path style="fill:#fff; stroke:none;" d="M302 26L303 27L302 26z"/>
<path style="fill:#fff; stroke:none;" d="M302 27C298.81 35.2682 295.298 40.7459 302 48C309.819 42.307 307.569 33.8933 302 27z"/>
<path style="fill:#fff; stroke:none;" d="M301 28L302 29L301 28z"/>
<path style="fill:#fff; stroke:none;" d="M303 28L304 29L303 28z"/>
<path style="fill:#fff; stroke:none;" d="M300 30L301 31L300 30z"/>
<path style="fill:#fff; stroke:none;" d="M304 30L305 31L304 30z"/>
<path style="fill:#fff; stroke:none;" d="M299 33L300 34L299 33z"/>
<path style="fill:#fff; stroke:none;" d="M305 33L306 34L305 33M298 36L299 37L298 36z"/>
<path style="fill:#fff; stroke:none;" d="M297 38L298 39L297 38z"/>
<path style="fill:#fff; stroke:none;" d="M307 38L308 39L307 38z"/>
<path style="fill:#fff; stroke:none;" d="M296 41L297 42L296 41z"/>
<path style="fill:#fff; stroke:none;" d="M308 41L309 42L308 41z"/>
<path style="fill:#fff; stroke:none;" d="M294 43L295 44L294 43M310 43L311 44L310 43z"/>
<path style="fill:#fff; stroke:none;" d="M291 44L292 45L291 44z"/>
<path style="fill:#fff; stroke:none;" d="M280 50C288.029 53.7548 293.886 56.5731 301 50C295.238 42.5638 286.787 44.5217 280 50z"/>
<path style="fill:#fff; stroke:none;" d="M295 44L296 45L295 44M309 44L310 45L309 44z"/>
<path style="fill:#fff; stroke:none;" d="M304 49C310.034 57.2867 316.999 53.5634 325 50C318.059 44.7526 310.808 43.2925 304 49z"/>
<path style="fill:#fff; stroke:none;" d="M312 44L313 45L312 44z"/>
<path style="fill:#fff; stroke:none;" d="M289 45L290 46L289 45z"/>
<path style="fill:#fff; stroke:none;" d="M296 45L297 46L296 45z"/>
<path style="fill:#fff; stroke:none;" d="M305 45L306 46L305 45z"/>
<path style="fill:#fff; stroke:none;" d="M308 45L309 46L308 45z"/>
<path style="fill:#fff; stroke:none;" d="M315 45L316 46L315 45z"/>
<path style="fill:#fff; stroke:none;" d="M286 46L287 47L286 46z"/>
<path style="fill:#fff; stroke:none;" d="M304 46L305 47L304 46z"/>
<path style="fill:#fff; stroke:none;" d="M318 46L319 47L318 46z"/>
<path style="fill:#fff; stroke:none;" d="M301 47L302 48L301 47z"/>
<path style="fill:#fff; stroke:none;" d="M303 47L304 48L303 47z"/>
<path style="fill:#fff; stroke:none;" d="M320 47L321 48L320 47z"/>
<path style="fill:#fff; stroke:none;" d="M281 48L282 49L281 48z"/>
<path style="fill:#fff; stroke:none;" d="M323 48L324 49L323 48z"/>
<path style="fill:#fff; stroke:none;" d="M279 49L280 50L279 49M325 49L326 50L325 49z"/>
<path style="fill:#fff; stroke:none;" d="M280 50L281 51L280 50z"/>
<path style="fill:#fff; stroke:none;" d="M300 50L301 51L300 50z"/>
<path style="fill:#fff; stroke:none;" d="M304 50L305 51L304 50z"/>
<path style="fill:#fff; stroke:none;" d="M324 50L325 51L324 50z"/>
<path style="fill:#fff; stroke:none;" d="M283 51L284 52L283 51z"/>
<path style="fill:#fff; stroke:none;" d="M299 51L300 52L299 51z"/>
<path style="fill:#fff; stroke:none;" d="M321 51L322 52L321 51z"/>
<path style="fill:#fff; stroke:none;" d="M285 52L286 53L285 52z"/>
<path style="fill:#fff; stroke:none;" d="M318 52L319 53L318 52z"/>
<path style="fill:#fff; stroke:none;" d="M319 52L320 53L319 52z"/>
<path style="fill:#fff; stroke:none;" d="M288 53L289 54L288 53z"/>
<path style="fill:#fff; stroke:none;" d="M316 53L317 54L316 53z"/>
<path style="fill:#fff; stroke:none;" d="M291 54L292 55L291 54M313 54L314 55L313 54z"/>
<path style="fill:#fff; stroke:none;" d="M293.667 55.3333C293.222 55.7779 294.278 55.7222 294.333 55.6667C294.778 55.2223 293.722 55.2777 293.667 55.3333z"/>
<path style="fill:#fff; stroke:none;" d="M302 55L303 56L302 55z"/>
<path style="fill:#fff; stroke:none;" d="M310.667 55.3333C310.222 55.7779 311.278 55.7221 311.333 55.6667C311.778 55.2223 310.722 55.2777 310.667 55.3333z"/>
<path style="fill:#fff; stroke:none;" d="M302 56C293.943 69.8048 284.466 84.9802 279 100C283.302 100 289.961 98.7613 293.786 101.028C298.088 103.576 300.164 111.584 302 116C305.404 111.786 306.086 105.071 310.39 101.603C314.123 98.5972 321.491 100 326 100C323.545 91.495 317.896 83.7994 313.781 76C310.292 69.3884 307.351 61.2934 302 56z"/>
<path style="fill:#fff; stroke:none;" d="M304 58L305 59L304 58z"/>
<path style="fill:#fff; stroke:none;" d="M305 60L306 61L305 60M298 62L299 63L298 62z"/>
<path style="fill:#fff; stroke:none;" d="M306 62L307 63L306 62z"/>
<path style="fill:#fff; stroke:none;" d="M27 64L27 85C29.153 79.8692 29.153 69.1308 27 64z"/>
<path style="fill:#fff; stroke:none;" d="M28 64C31.6975 65.5515 36.0168 65 40 65C36.3025 63.4485 31.9832 64 28 64z"/>
<path style="fill:#fff; stroke:none;" d="M297 64L298 65L297 64z"/>
<path style="fill:#fff; stroke:none;" d="M307 64L308 65L307 64z"/>
<path style="fill:#fff; stroke:none;" d="M28 65L28 85L33 85L33 77C35.5848 76.9766 38.5353 77.1974 40.8519 75.821C44.1671 73.8511 44.9879 68.3842 41.5664 66.0278C38.2922 63.7729 31.8044 65 28 65z"/>
<path style="fill:#fff; stroke:none;" d="M296 66L297 67L296 66M43 67L44 68L43 67z"/>
<path style="fill:#fff; stroke:none;" d="M68 67C71.6975 68.5515 76.0168 68 80 68C76.3025 66.4485 71.9832 67 68 67M135 67C138.697 68.5515 143.017 68 147 68C143.303 66.4485 138.983 67 135 67z"/>
<path style="fill:#fff; stroke:none;" d="M212 67C213.248 67.6848 213.548 67.7488 215 68C213.752 67.3152 213.452 67.2512 212 67z"/>
<path style="fill:#fff; stroke:none;" d="M33 68C34.769 68.7789 36.0359 68.9124 38 69C36.231 68.2211 34.9641 68.0876 33 68z"/>
<path style="fill:#fff; stroke:none;" d="M67 68L67 85C68.8826 80.5135 68.8826 72.4865 67 68z"/>
<path style="fill:#fff; stroke:none;" d="M68 68C71.6975 69.5515 76.0168 69 80 69C76.3025 67.4485 71.9832 68 68 68z"/>
<path style="fill:#fff; stroke:none;" d="M80 68L80 72C80.7102 70.2405 80.7102 69.7595 80 68z"/>
<path style="fill:#fff; stroke:none;" d="M101 68L101 85C102.883 80.5136 102.883 72.4865 101 68z"/>
<path style="fill:#fff; stroke:none;" d="M102 68C104.89 69.2129 107.874 68.9983 111 69C108.11 67.787 105.126 68.0017 102 68z"/>
<path style="fill:#fff; stroke:none;" d="M111 68L112 69L111 68z"/>
<path style="fill:#fff; stroke:none;" d="M135 68C139.25 69.7834 144.214 67.7023 147 72C147.683 70.494 147.826 69.6852 148 68L135 68z"/>
<path style="fill:#fff; stroke:none;" d="M166 68L166 86C167.952 81.349 167.952 72.651 166 68z"/>
<path style="fill:#fff; stroke:none;" d="M167 68C168.769 68.7789 170.036 68.9124 172 69C170.231 68.2211 168.964 68.0876 167 68M179 68C180.506 68.683 181.315 68.8259 183 69C181.494 68.317 180.685 68.1741 179 68z"/>
<path style="fill:#fff; stroke:none;" d="M183 68L183 85C184.883 80.5135 184.883 72.4865 183 68z"/>
<path style="fill:#fff; stroke:none;" d="M209 68L210 69L209 68z"/>
<path style="fill:#fff; stroke:none;" d="M220 84L220 82L219 81C216.838 81.5199 214.3 82.5145 212.108 81.6119C208.842 80.2671 207.746 76.0062 210.449 73.5378C212.791 71.3991 217.069 72.4325 220 72L220 70C217.469 69.0522 214.772 68.0128 212.001 68.3187C203.977 69.2042 201.6 79.7411 208.109 84.2577C211.882 86.8763 216.158 85.6209 220 84z"/>
<path style="fill:#fff; stroke:none;" d="M215.667 68.3333C215.222 68.7777 216.278 68.7222 216.333 68.6667C216.778 68.2222 215.722 68.2778 215.667 68.3333z"/>
<path style="fill:#fff; stroke:none;" d="M217 68L218 69L217 68z"/>
<path style="fill:#fff; stroke:none;" d="M244.667 68.3333C244.222 68.7777 245.278 68.7222 245.333 68.6667C245.778 68.2222 244.722 68.2778 244.667 68.3333z"/>
<path style="fill:#fff; stroke:none;" d="M246.015 68.537C234.098 71.3467 239.705 88.3797 250.996 85.5517C262.742 82.6097 257.796 65.7595 246.015 68.537z"/>
<path style="fill:#fff; stroke:none;" d="M252 68L253 69L252 68z"/>
<path style="fill:#fff; stroke:none;" d="M295 68L296 69L295 68z"/>
<path style="fill:#fff; stroke:none;" d="M33 69L33 73C35.2049 72.9059 36.8941 72.6438 39 72L39 70C36.8941 69.3562 35.2049 69.0941 33 69z"/>
<path style="fill:#fff; stroke:none;" d="M38 69L39 70L38 69z"/>
<path style="fill:#fff; stroke:none;" d="M68 69L68 85L80 85L80 82L72 82L72 78L80 78L80 75L72 75L72 71L80 71L80 69L68 69M102 69L102 85L105 85L105 78C108.496 80.95 110.223 84.2452 115 85C114.377 83.0719 113.462 81.0626 113.563 78.9954C113.689 76.4177 115.49 73.8188 113.953 71.3179C111.823 67.8512 105.425 69 102 69z"/>
<path style="fill:#fff; stroke:none;" d="M113 69L114 70L113 69z"/>
<path style="fill:#fff; stroke:none;" d="M135 69L135 85C136.812 80.6811 136.812 73.3189 135 69z"/>
<path style="fill:#fff; stroke:none;" d="M136 69L136 85L147 85L147 82L139 82L139 78L147 78L147 75L139 75L139 72L147 72L147 69L136 69M167 69L167 85L170 85L170 74C174.554 78.4118 175.94 84.4562 183 85L183 69L179 69L179 79C175.647 74.0314 173.437 69.4893 167 69z"/>
<path style="fill:#fff; stroke:none;" d="M172 69L173 70L172 69z"/>
<path style="fill:#fff; stroke:none;" d="M207 69L208 70L207 69z"/>
<path style="fill:#fff; stroke:none;" d="M242 69L243 70L242 69M254 69L255 70L254 69z"/>
<path style="fill:#fff; stroke:none;" d="M206 70L207 71L206 70z"/>
<path style="fill:#fff; stroke:none;" d="M294 70L295 71L294 70z"/>
<path style="fill:#fff; stroke:none;" d="M72 71C74.6127 72.0977 77.1645 71.9928 80 72C77.3873 70.9023 74.8355 71.0072 72 71z"/>
<path style="fill:#fff; stroke:none;" d="M106 71C107.506 71.683 108.315 71.8259 110 72C108.494 71.317 107.685 71.1741 106 71z"/>
<path style="fill:#fff; stroke:none;" d="M205 71L206 72L205 71z"/>
<path style="fill:#fff; stroke:none;" d="M212.667 71.3333C212.222 71.7777 213.278 71.7223 213.333 71.6667C213.778 71.2222 212.722 71.2778 212.667 71.3333z"/>
<path style="fill:#fff; stroke:none;" d="M240 71L241 72L240 71z"/>
<path style="fill:#fff; stroke:none;" d="M247 71C248.248 71.6848 248.548 71.7488 250 72C248.752 71.3152 248.452 71.2512 247 71z"/>
<path style="fill:#fff; stroke:none;" d="M256 71L257 72L256 71z"/>
<path style="fill:#fff; stroke:none;" d="M311 71L312 72L311 71z"/>
<path style="fill:#fff; stroke:none;" d="M105 72L105 76C105.71 74.2405 105.71 73.7595 105 72z"/>
<path style="fill:#fff; stroke:none;" d="M106 72L106 75L111 75L111 72L106 72z"/>
<path style="fill:#fff; stroke:none;" d="M139 72C139.854 75.9871 143.489 75 147 75L139 72z"/>
<path style="fill:#fff; stroke:none;" d="M174 72L175 73L174 72z"/>
<path style="fill:#fff; stroke:none;" d="M210 72L211 73L210 72z"/>
<path style="fill:#fff; stroke:none;" d="M218 72L219 73L218 72z"/>
<path style="fill:#fff; stroke:none;" d="M239 72L240 73L239 72z"/>
<path style="fill:#fff; stroke:none;" d="M245 72L246 73L245 72z"/>
<path style="fill:#fff; stroke:none;" d="M246.148 73.0471C240.697 76.0438 245.697 84.0077 250.682 80.9529C255.389 78.0687 251.296 70.2171 246.148 73.0471z"/>
<path style="fill:#fff; stroke:none;" d="M251 72L252 73L251 72M204 73L205 74L204 73M209 73L210 74L209 73z"/>
<path style="fill:#fff; stroke:none;" d="M217 73L218 74L217 73z"/>
<path style="fill:#fff; stroke:none;" d="M244 73L245 74L244 73z"/>
<path style="fill:#fff; stroke:none;" d="M252 73L253 74L252 73z"/>
<path style="fill:#fff; stroke:none;" d="M312 73L313 74L312 73z"/>
<path style="fill:#fff; stroke:none;" d="M43 74L44 75L43 74z"/>
<path style="fill:#fff; stroke:none;" d="M72 74C74.6127 75.0977 77.1645 74.9928 80 75C77.3873 73.9023 74.8355 74.0072 72 74z"/>
<path style="fill:#fff; stroke:none;" d="M147 74L147 79C147.83 76.9695 147.83 76.0305 147 74z"/>
<path style="fill:#fff; stroke:none;" d="M170 74L170 85C171.429 81.5965 171.134 77.6357 172 74L170 74z"/>
<path style="fill:#fff; stroke:none;" d="M253 74L254 75L253 74z"/>
<path style="fill:#fff; stroke:none;" d="M42 75L43 76L42 75z"/>
<path style="fill:#fff; stroke:none;" d="M106 75C107.506 75.683 108.315 75.8259 110 76C108.494 75.317 107.685 75.1741 106 75z"/>
<path style="fill:#fff; stroke:none;" d="M171 75L172 76L171 75z"/>
<path style="fill:#fff; stroke:none;" d="M176 75L177 76L176 75z"/>
<path style="fill:#fff; stroke:none;" d="M203 75L203 79C203.71 77.2405 203.71 76.7595 203 75z"/>
<path style="fill:#fff; stroke:none;" d="M208 75L208 79C208.71 77.2405 208.71 76.7595 208 75z"/>
<path style="fill:#fff; stroke:none;" d="M238 75L238 78C238.696 76.4463 238.696 76.5537 238 75z"/>
<path style="fill:#fff; stroke:none;" d="M253 75L253 79C253.71 77.2405 253.71 76.7595 253 75z"/>
<path style="fill:#fff; stroke:none;" d="M258 75L258 78C258.696 76.4463 258.696 76.5537 258 75z"/>
<path style="fill:#fff; stroke:none;" d="M291 75L292 76L291 75z"/>
<path style="fill:#fff; stroke:none;" d="M313 75L314 76L313 75z"/>
<path style="fill:#fff; stroke:none;" d="M40 76L41 77L40 76M172 76L173 77L172 76z"/>
<path style="fill:#fff; stroke:none;" d="M33 77C34.506 77.683 35.3148 77.8259 37 78C35.494 77.317 34.6852 77.1741 33 77z"/>
<path style="fill:#fff; stroke:none;" d="M290 77L291 78L290 77z"/>
<path style="fill:#fff; stroke:none;" d="M314 77L315 78L314 77z"/>
<path style="fill:#fff; stroke:none;" d="M72 78C74.6127 79.0977 77.1645 78.9928 80 79C77.3873 77.9023 74.8355 78.0072 72 78z"/>
<path style="fill:#fff; stroke:none;" d="M105 78L105 85C106.009 82.767 106.405 80.3956 107 78L105 78z"/>
<path style="fill:#fff; stroke:none;" d="M139 78C141.613 79.0977 144.165 78.9928 147 79C144.387 77.9023 141.835 78.0072 139 78z"/>
<path style="fill:#fff; stroke:none;" d="M173 78L174 79L173 78z"/>
<path style="fill:#fff; stroke:none;" d="M178 78L179 79L178 78z"/>
<path style="fill:#fff; stroke:none;" d="M107 79L108 80L107 79z"/>
<path style="fill:#fff; stroke:none;" d="M112 79L113 80L112 79z"/>
<path style="fill:#fff; stroke:none;" d="M139 79L139 82C139.696 80.4463 139.696 80.5537 139 79z"/>
<path style="fill:#fff; stroke:none;" d="M140 79L140 82L148 82C145.668 81.0155 143.543 81.0187 141 81C143.106 80.3562 144.795 80.0941 147 80C144.668 79.0155 142.543 79.0187 140 79z"/>
<path style="fill:#fff; stroke:none;" d="M174 79L175 80L174 79z"/>
<path style="fill:#fff; stroke:none;" d="M253 79L254 80L253 79z"/>
<path style="fill:#fff; stroke:none;" d="M289 79L290 80L289 79z"/>
<path style="fill:#fff; stroke:none;" d="M315 79L316 80L315 79z"/>
<path style="fill:#fff; stroke:none;" d="M204 80L205 81L204 80z"/>
<path style="fill:#fff; stroke:none;" d="M209 80L210 81L209 80z"/>
<path style="fill:#fff; stroke:none;" d="M217 80L218 81L217 80z"/>
<path style="fill:#fff; stroke:none;" d="M239 80L240 81L239 80z"/>
<path style="fill:#fff; stroke:none;" d="M244 80L245 81L244 80z"/>
<path style="fill:#fff; stroke:none;" d="M252 80L253 81L252 80z"/>
<path style="fill:#fff; stroke:none;" d="M257 80L258 81L257 80z"/>
<path style="fill:#fff; stroke:none;" d="M72 81C74.8897 82.2129 77.8741 81.9983 81 82C78.1103 80.787 75.1259 81.0017 72 81z"/>
<path style="fill:#fff; stroke:none;" d="M108 81L109 82L108 81z"/>
<path style="fill:#fff; stroke:none;" d="M113 81L114 82L113 81z"/>
<path style="fill:#fff; stroke:none;" d="M210 81L211 82L210 81z"/>
<path style="fill:#fff; stroke:none;" d="M216 81L217 82L216 81z"/>
<path style="fill:#fff; stroke:none;" d="M245 81L246 82L245 81z"/>
<path style="fill:#fff; stroke:none;" d="M251 81L252 82L251 81M288 81L289 82L288 81z"/>
<path style="fill:#fff; stroke:none;" d="M80 82L80 85C80.6961 83.4463 80.6961 83.5537 80 82z"/>
<path style="fill:#fff; stroke:none;" d="M147 82L147 85C147.696 83.4463 147.696 83.5537 147 82z"/>
<path style="fill:#fff; stroke:none;" d="M176 82L177 83L176 82M205 82L206 83L205 82z"/>
<path style="fill:#fff; stroke:none;" d="M212 82C213.248 82.6848 213.548 82.7488 215 83C213.752 82.3152 213.452 82.2512 212 82M220 82L221 83L220 82z"/>
<path style="fill:#fff; stroke:none;" d="M240 82L241 83L240 82z"/>
<path style="fill:#fff; stroke:none;" d="M247 82C248.248 82.6848 248.548 82.7488 250 83C248.752 82.3152 248.452 82.2512 247 82z"/>
<path style="fill:#fff; stroke:none;" d="M256 82L257 83L256 82z"/>
<path style="fill:#fff; stroke:none;" d="M317 82L318 83L317 82z"/>
<path style="fill:#fff; stroke:none;" d="M206 83L207 84L206 83z"/>
<path style="fill:#fff; stroke:none;" d="M241 83L242 84L241 83z"/>
<path style="fill:#fff; stroke:none;" d="M255 83L256 84L255 83z"/>
<path style="fill:#fff; stroke:none;" d="M110 84L111 85L110 84z"/>
<path style="fill:#fff; stroke:none;" d="M115 84L111 85C112.553 85.8905 116.08 86.6156 115 84z"/>
<path style="fill:#fff; stroke:none;" d="M207 84L208 85L207 84z"/>
<path style="fill:#fff; stroke:none;" d="M242 84L243 85L242 84z"/>
<path style="fill:#fff; stroke:none;" d="M254 84L255 85L254 84z"/>
<path style="fill:#fff; stroke:none;" d="M318 84L319 85L318 84z"/>
<path style="fill:#fff; stroke:none;" d="M28 85C29.769 85.7789 31.0359 85.9124 33 86C31.231 85.2211 29.9641 85.0876 28 85z"/>
<path style="fill:#fff; stroke:none;" d="M68 85C71.9587 86.6611 76.7366 86 81 86C77.0413 84.3389 72.2634 85 68 85z"/>
<path style="fill:#fff; stroke:none;" d="M102 85C103.506 85.683 104.315 85.8259 106 86C104.494 85.317 103.685 85.1741 102 85M135 85C138.959 86.6611 143.737 86 148 86C144.041 84.3389 139.263 85 135 85M167 85C168.506 85.683 169.315 85.8259 171 86C169.494 85.317 168.685 85.1741 167 85M178 85C179.769 85.779 181.036 85.9124 183 86C181.231 85.2211 179.964 85.0876 178 85z"/>
<path style="fill:#fff; stroke:none;" d="M209 85L210 86L209 85z"/>
<path style="fill:#fff; stroke:none;" d="M216 85L217 86L216 85M244.667 85.3333C244.222 85.7778 245.278 85.7222 245.333 85.6667C245.778 85.2223 244.722 85.2778 244.667 85.3333z"/>
<path style="fill:#fff; stroke:none;" d="M252 85L253 86L252 85z"/>
<path style="fill:#fff; stroke:none;" d="M319 86L320 87L319 86z"/>
<path style="fill:#fff; stroke:none;" d="M284 88L285 89L284 88z"/>
<path style="fill:#fff; stroke:none;" d="M320 88L321 89L320 88z"/>
<path style="fill:#fff; stroke:none;" d="M283 90L284 91L283 90z"/>
<path style="fill:#fff; stroke:none;" d="M321 90L322 91L321 90z"/>
<path style="fill:#fff; stroke:none;" d="M282 92L283 93L282 92z"/>
<path style="fill:#fff; stroke:none;" d="M281 94L282 95L281 94z"/>
<path style="fill:#fff; stroke:none;" d="M324 95L325 96L324 95z"/>
<path style="fill:#fff; stroke:none;" d="M280 96L281 97L280 96z"/>
<path style="fill:#fff; stroke:none;" d="M325 97L326 98L325 97z"/>
<path style="fill:#fff; stroke:none;" d="M326 99L327 100L326 99z"/>
<path style="fill:#fff; stroke:none;" d="M278 100C282.974 102.087 289.638 101 295 101C290.026 98.9128 283.362 100 278 100M310 100C314.974 102.087 321.638 101 327 101C322.026 98.9128 315.362 100 310 100z"/>
<path style="fill:#fff; stroke:none;" d="M295 101L296 102L295 101z"/>
<path style="fill:#fff; stroke:none;" d="M296 103L297 104L296 103z"/>
<path style="fill:#fff; stroke:none;" d="M308 103L309 104L308 103z"/>
<path style="fill:#fff; stroke:none;" d="M297 105L298 106L297 105z"/>
<path style="fill:#fff; stroke:none;" d="M307 105L308 106L307 105z"/>
<path style="fill:#fff; stroke:none;" d="M306 107L307 108L306 107z"/>
<path style="fill:#fff; stroke:none;" d="M305 109L306 110L305 109z"/>
<path style="fill:#fff; stroke:none;" d="M299 110L300 111L299 110z"/>
<path style="fill:#fff; stroke:none;" d="M300 112L301 113L300 112z"/>
<path style="fill:#fff; stroke:none;" d="M304 112L305 113L304 112z"/>
<path style="fill:#fff; stroke:none;" d="M301 114L302 115L301 114z"/>
<path style="fill:#fff; stroke:none;" d="M303 114L304 115L303 114z"/>
</svg>
