<?xml version="1.0" encoding="UTF-8"?>
<svg id="Capa_2" data-name="Capa 2" xmlns="http://www.w3.org/2000/svg" viewBox="0 0 278.7 157.32">
  <defs>
    <style>
      .cls-1 {
        fill: #fff;
      }
    </style>
  </defs>
  <g id="Capa_1-2" data-name="Capa 1">
    <g>
      <path class="cls-1" d="m0,87c.7-2.7,1.41-5.39,2.09-8.1,2.33-9.2,6.58-15.82,14.55-22.18-3.01,8.52-3.84,16.6-1.76,24.88,3.54,14.03,16.26,25.46,30.55,27.32,15.19,1.98,30-5.13,37.21-18.06,3.23-5.8,5.64-12.1,9.27-17.61,8.35-12.7,22.23-11.94,29.22,1.51,1.88,3.61,3.19,7.77,3.69,11.8,4.31,34.53-19.5,64.92-54.69,70.12C37.33,161.52,6.65,138.55.87,104.83.7,103.86.29,102.94,0,102c0-5,0-10,0-15Z"/>
      <path class="cls-1" d="m85,0c2.4,2.53,5.69,4.68,6.97,7.68,1.81,4.24-1.25,9.16-5.5,10.84-4.32,1.71-9.23-.06-11.63-4.19-2.3-3.96-1.35-9.24,2.3-12.09,1.16-.91,2.57-1.5,3.86-2.24,1.33,0,2.67,0,4,0Z"/>
      <path class="cls-1" d="m70.6,91.28c-17.29,2.64-35.8-11.71-38.53-29.87-2.64-17.49,6.06-33.48,22.2-40.65,5.63-2.5,11.3-2.99,16.6.79,4.18,2.98,5.93,7.36,4.97,12.26-.62,3.15-2.01,6.44-3.93,9.01-11.68,15.59-12.45,31.34-1.4,47.53.15.23.07.62.09.93Z"/>
      <path class="cls-1" d="m77.73,93.04c-5.76,10.84-23.18,16.86-36.53,12.86-19.38-5.8-29.69-25.21-23.61-44.55,2.93-9.32,8.07-17.28,15.43-23.99-5.77,14.94-5.44,29.19,4.9,41.92,10.24,12.6,23.82,16.78,39.81,13.76Z"/>
      <path class="cls-1" d="m264.83,116.53c.22,7.2-5.74,13.41-13.04,13.59-7.46.18-13.51-5.41-13.79-12.77-.29-7.55,5.66-13.81,13.2-13.91,7.26-.1,13.4,5.79,13.62,13.09Zm-20.26.05c-.15,3.75,3.04,7.06,6.82,7.07,3.52.01,6.58-3.02,6.71-6.65.13-3.63-2.66-6.72-6.29-6.98-3.81-.27-7.09,2.69-7.24,6.56Z"/>
      <path class="cls-1" d="m225.87,130.12c-7.51.11-12.76-3.55-14.59-9.05-1.86-5.56.1-11.63,4.85-15.09,4.63-3.36,11.05-3.65,15.29-.13,1.3,1.07,1.51,3.45,2.22,5.24-1.75.09-3.83.85-5.18.16-3.75-1.91-7.04-2.15-9.84,1.24-2.29,2.77-2.33,5.89.05,8.65,2.84,3.31,6.08,3.25,9.84,1.18,1.25-.69,3.37.21,5.09.38-.62,1.67-.76,3.98-1.96,4.87-2.03,1.51-4.73,2.12-5.77,2.55Z"/>
      <path class="cls-1" d="m156.98,105.37c2.39-.7,4.1-1.36,5.87-1.7,5.88-1.11,12.03,2.49,12.86,8.28.75,5.23.39,10.63.35,15.95,0,.7-1.01,1.39-1.55,2.09-.65-.8-1.81-1.56-1.86-2.39-.22-3.82-.1-7.66-.17-11.49-.11-5.54-3.23-9.14-7.78-9.07-4.61.07-7.6,3.62-7.69,9.23-.06,3.67.12,7.34-.12,10.99-.06.96-1.3,1.84-1.99,2.75-.57-.87-1.63-1.73-1.64-2.6-.11-11.5-.13-23,.01-34.49.01-.93,1.33-1.85,2.04-2.77.56.9,1.55,1.79,1.59,2.71.18,3.98.08,7.97.08,12.52Z"/>
      <path class="cls-1" d="m193.16,130.16c-7.44-.05-13.19-5.88-13.19-13.36,0-7.41,5.88-13.29,13.29-13.3,7.56,0,13.7,6.16,13.58,13.65-.11,7.24-6.23,13.05-13.67,13Zm.38-3.97c5.28-.07,9.43-4.35,9.28-9.57-.14-5.12-4.69-9.51-9.7-9.36-5.15.15-9.35,4.58-9.26,9.76.09,5.27,4.29,9.25,9.67,9.17Z"/>
      <path class="cls-1" d="m274.98,107.63c0,3.65-.02,7.31,0,10.96.02,2.36-.77,4.99,2.65,6.09.66.21,1.37,2.63.93,3.34-.63,1.01-2.37,2.05-3.5,1.91-3.64-.45-6.23-2.57-6.3-6.49-.18-9.79-.25-19.59-.06-29.38.03-1.34,1.84-2.64,2.83-3.96,1.14,1.36,3.13,2.64,3.27,4.09.43,4.44.16,8.95.17,13.43Z"/>
      <path class="cls-1" d="m72.03,13.79c-2.73,1.51-4.16,2.95-5.4,2.8-1.11-.13-2.98-2.25-2.78-3.07.32-1.34,1.95-3.06,3.23-3.25,1.07-.16,2.44,1.63,4.95,3.52Z"/>
      <path class="cls-1" d="m109.63,60.09c-1.56-2.81-2.96-4.2-2.85-5.45.1-1.09,2.15-3,2.9-2.81,1.32.34,3.01,1.88,3.22,3.14.18,1.09-1.49,2.49-3.27,5.13Z"/>
    </g>
  </g>
</svg>