<?xml version="1.0" standalone="yes"?>
<svg xmlns="http://www.w3.org/2000/svg" width="300" height="284">
<path style="fill:none; stroke:none;" d="M0 0L0 200C2.6306 194.711 4.0549 189.869 11 191L12 184L18 184C17.5149 190.095 15.8452 196.026 14.5995 202C14.1093 204.351 13.7989 207.509 11.5718 208.932C9.82523 210.048 7.83627 209.381 6 209C4.04489 210.815 2.40037 209.863 0 209L0 284L142 284L188 284C195.354 284 203.654 285.081 210.907 283.852C216.061 282.978 218.311 276.243 220.127 272C224.354 262.125 225.809 250.216 221.934 240C220.312 235.722 218.521 231.493 214 230C213.74 224.13 208.466 219.534 203 218C202.265 214.08 199.767 212.898 196 212L197 210C192.35 207.631 188.278 203.758 184 200.709C170.86 191.345 159.751 181.493 148.41 170.148C144.616 166.354 138.822 168.352 136 164C132.594 165.538 128.904 168.055 125 167.677C115.82 166.789 114.857 156.455 118.533 150.001C122.118 143.707 129.696 142.72 133 137L121 137C121.741 129.811 127.917 127.091 129.683 120.83C132.788 109.817 131.801 98.1533 135.515 87C147.832 50.0204 179.568 13.7459 217 1C211.293 -1.39487 203.154 0 197 0L153 0L0 0z"/>
<path style="fill:#fff; stroke:none;" d="M130 122C135.857 121.225 140.949 120 147 120L146 122C152.25 123.289 154.471 127.832 153.71 134C152.38 144.777 149.007 155.074 149 166L145 166C159.377 188.985 185.921 199.796 205 218.039C213.596 226.259 222.897 236.497 223.907 249C225.009 262.654 218.439 271.802 214 284C248.195 268.688 267.965 234.243 276.873 199C279.627 188.105 281.996 177.322 282 166C282.007 149.084 281.872 132.358 269.826 119.004C248.273 95.1102 201.61 100.911 190.904 66C185.12 47.1382 199.989 24.8174 211.374 11.1698C214.542 7.37292 218.155 4.05264 221 0C207.2 1.38312 192.426 12.0702 182 20.6158C151.527 45.593 130.026 81.99 130 122z"/>
<path style="fill:none; stroke:none;" d="M214 8C220.428 6.16235 226.314 2.98749 233 2C229.341 5.00494 226.385 7.88528 224 12C230.154 9.62943 236.39 7.53989 243 7C236.742 15.1493 230.38 22.3045 226.453 32C223.72 38.7453 222.036 45.7142 222.001 53C221.937 66.3151 223.343 78.8549 233.093 88.9599C242.672 98.8872 256.183 102.899 268 109.309C283.504 117.719 297.402 132.693 299 151C300.875 146.531 300 140.809 300 136L300 106L300 0L241 0C230.141 0 220.96 -1.84628 214 8z"/>
<path style="fill:#13427f; stroke:none;" d="M229 2L230 3L229 2z"/>
<path style="fill:#fff; stroke:none;" d="M223 279C227.376 280.162 231.53 276.403 235 273.964C245.038 266.906 253.583 257.857 260.844 248C276.394 226.888 285.276 203.705 289.586 178C292.983 157.748 291.264 136.224 277.384 120.039C257.384 96.7184 217.034 100.292 206.9 67C201.599 49.5835 210.267 29.0364 220.671 15.1698C224.164 10.5139 228.65 6.75677 232 2C225.684 3.46109 217.403 5.48157 212.3 9.64893C207.819 13.3086 204.557 19.1102 201.601 24C192.277 39.4253 183.809 60.4019 195.638 77C213.189 101.626 249.865 97.7118 269.826 120.001C282.972 134.679 284.299 156.464 281.424 175C276.9 204.175 267.671 232.58 248.996 256C241.915 264.88 233.276 273.882 223 279z"/>
<path style="fill:#113373; stroke:none;" d="M232 2L233 3L232 2z"/>
<path style="fill:#113679; stroke:none;" d="M226 3L227 4L226 3z"/>
<path style="fill:#133374; stroke:none;" d="M231 3L232 4L231 3z"/>
<path style="fill:#13427f; stroke:none;" d="M223 4L224 5L223 4z"/>
<path style="fill:#113373; stroke:none;" d="M220 5L221 6L220 5z"/>
<path style="fill:#13427f; stroke:none;" d="M218 6L219 7L218 6z"/>
<path style="fill:#c5e6f9; stroke:none;" d="M256 104C248.361 97.6703 239.021 94.7144 232.185 86.9961C217.736 70.6826 219.659 45.2488 229.109 27C232.904 19.6705 239.112 14.1043 243 7C236.604 7.2789 228.309 8.68079 223.093 12.6489C218.875 15.858 216.182 21.3858 213.784 26C206.377 40.2556 202.645 58.8427 209.518 74C215.592 87.396 228.985 94.0112 242 99.061C246.668 100.872 251.037 103.145 256 104z"/>
<path style="fill:#113373; stroke:none;" d="M225 9L226 10L225 9z"/>
<path style="fill:#13427f; stroke:none;" d="M224 10L225 11L224 10z"/>
<path style="fill:#113679; stroke:none;" d="M223 11L224 12L223 11z"/>
<path style="fill:#80b757; stroke:none;" d="M239 11L240 12L239 11M193 12L194 13L193 12z"/>
<path style="fill:#4398cd; stroke:none;" d="M221 13L222 14L221 13z"/>
<path style="fill:#68afda; stroke:none;" d="M219 16L220 17L219 16M217 19L218 20L217 19z"/>
<path style="fill:#80b757; stroke:none;" d="M232 20L233 21L232 20z"/>
<path style="fill:#93c9ea; stroke:none;" d="M216 21L217 22L216 21z"/>
<path style="fill:#4398cd; stroke:none;" d="M215 22L216 23L215 22z"/>
<path style="fill:#53a4d6; stroke:none;" d="M214 24L215 25L214 24z"/>
<path style="fill:#5da9d7; stroke:none;" d="M213 26L214 27L213 26z"/>
<path style="fill:#80b757; stroke:none;" d="M228 27L229 28L228 27M173 28L174 29L173 28z"/>
<path style="fill:#5da9d7; stroke:none;" d="M212 28L213 29L212 28z"/>
<path style="fill:#4a9dd0; stroke:none;" d="M211 30L212 31L211 30z"/>
<path style="fill:#80b757; stroke:none;" d="M168 33L169 34L168 33z"/>
<path style="fill:#73b6df; stroke:none;" d="M210 33L211 34L210 33z"/>
<path style="fill:#80b757; stroke:none;" d="M225 34L226 35L225 34z"/>
<path style="fill:#4398cd; stroke:none;" d="M209 35L210 36L209 35z"/>
<path style="fill:#80b757; stroke:none;" d="M224 37L225 38L224 37z"/>
<path style="fill:#7fbee3; stroke:none;" d="M208.333 38.6667C208.278 38.7222 208.222 39.7778 208.667 39.3333C208.722 39.2778 208.778 38.2223 208.333 38.6667z"/>
<path style="fill:#88c3e6; stroke:none;" d="M207.333 42.6667C207.278 42.7222 207.222 43.7778 207.667 43.3333C207.722 43.2777 207.778 42.2223 207.333 42.6667z"/>
<path style="fill:#0a5396; stroke:none;" d="M191.333 45.6667C191.278 45.7222 191.222 46.7778 191.667 46.3333C191.722 46.2777 191.778 45.2222 191.333 45.6667z"/>
<path style="fill:#68afda; stroke:none;" d="M206 46L206 49C206.696 47.4463 206.696 47.5537 206 46z"/>
<path style="fill:#3490c9; stroke:none;" d="M205 51L205 60C206.256 57.0059 206.256 53.9941 205 51z"/>
<path style="fill:#73a438; stroke:none;" d="M151.333 53.6667C151.278 53.7222 151.222 54.7778 151.667 54.3333C151.722 54.2778 151.778 53.2222 151.333 53.6667z"/>
<path style="fill:#4a9dd0; stroke:none;" d="M206 64L206 67C206.696 65.4463 206.696 65.5537 206 64z"/>
<path style="fill:#80b757; stroke:none;" d="M222 67L223 68L222 67z"/>
<path style="fill:#7fbee3; stroke:none;" d="M207 68L208 69L207 68M208 71L209 72L208 71z"/>
<path style="fill:#4398cd; stroke:none;" d="M209 74L210 75L209 74z"/>
<path style="fill:#88c3e6; stroke:none;" d="M211 77L212 78L211 77z"/>
<path style="fill:#4a9dd0; stroke:none;" d="M212 79L213 80L212 79z"/>
<path style="fill:#7fbee3; stroke:none;" d="M213 80L214 81L213 80z"/>
<path style="fill:#80b757; stroke:none;" d="M135 86L136 87L135 86z"/>
<path style="fill:#68afda; stroke:none;" d="M221 88L222 89L221 88z"/>
<path style="fill:#73b6df; stroke:none;" d="M224 90L225 91L224 90z"/>
<path style="fill:#53a4d6; stroke:none;" d="M227 92L228 93L227 92z"/>
<path style="fill:#68afda; stroke:none;" d="M229 93L230 94L229 93z"/>
<path style="fill:#73b6df; stroke:none;" d="M231 94L232 95L231 94z"/>
<path style="fill:#68afda; stroke:none;" d="M233 95L234 96L233 95z"/>
<path style="fill:#80b757; stroke:none;" d="M241 95L242 96L241 95z"/>
<path style="fill:#5da9d7; stroke:none;" d="M235 96L236 97L235 96z"/>
<path style="fill:#80b757; stroke:none;" d="M132 97L133 98L132 97z"/>
<path style="fill:#4398cd; stroke:none;" d="M237 97L238 98L237 97z"/>
<path style="fill:#73b6df; stroke:none;" d="M240 98L241 99L240 98z"/>
<path style="fill:#4a9dd0; stroke:none;" d="M242 99L243 100L242 99z"/>
<path style="fill:#93c9ea; stroke:none;" d="M243 99L244 100L243 99z"/>
<path style="fill:#68afda; stroke:none;" d="M245 100L246 101L245 100z"/>
<path style="fill:#4398cd; stroke:none;" d="M247 101L248 102L247 101z"/>
<path style="fill:#73b6df; stroke:none;" d="M250 102L251 103L250 102z"/>
<path style="fill:#53a4d6; stroke:none;" d="M252 103L253 104L252 103z"/>
<path style="fill:#80b757; stroke:none;" d="M256 103L257 104L256 103z"/>
<path style="fill:#88c3e6; stroke:none;" d="M255 104L256 105L255 104z"/>
<path style="fill:#cef0fd; stroke:none;" d="M256 104C262.712 109.619 270.802 114.949 278 120C278.726 117.821 278.439 118.22 280 119C276.235 111.295 264.221 105.465 256 104z"/>
<path style="fill:#7fbee3; stroke:none;" d="M257 105L258 106L257 105M259 106L260 107L259 106z"/>
<path style="fill:#73a438; stroke:none;" d="M37 107C41.2165 108.769 46.4588 108 51 108C46.7835 106.231 41.5411 107 37 107M71 107C74.4324 108.44 78.2998 108 82 108C78.5676 106.56 74.7002 107 71 107z"/>
<path style="fill:#88c3e6; stroke:none;" d="M261 107L262 108L261 107z"/>
<path style="fill:#fff; stroke:none;" d="M12 167C15.6354 167 22.2414 168.265 25.2978 165.972C28.0133 163.935 28.5431 159.094 29 156L39 156L37 166C41.8531 167.435 46.9643 167 52 167L52 108C47.7192 108 39.2753 106.375 35.6991 109.028C31.8094 111.913 30.1699 120.644 28.3966 125C22.9691 138.333 14.4451 152.8 12 167M58 167L71 167C72.581 147.133 81.1417 127.94 82 108C78.877 108 73.3396 106.963 70.7384 109.028C67.1863 111.847 66.7962 121.779 66.1242 126C63.9356 139.747 59.786 153.17 58 167z"/>
<path style="fill:#8cce27; stroke:none;" d="M36 111C40.6551 109.892 45.2389 110 50 110L50 165L39 165C42.6975 166.552 47.0168 166 51 166L51 109C46.5689 109 39.0883 107.466 36 111z"/>
<path style="fill:#4a9dd0; stroke:none;" d="M264 109L265 110L264 109z"/>
<path style="fill:#7fbee3; stroke:none;" d="M266 110L267 111L266 110z"/>
<path style="fill:#4a9dd0; stroke:none;" d="M267 111L268 112L267 111z"/>
<path style="fill:#7fbee3; stroke:none;" d="M270 113L271 114L270 113z"/>
<path style="fill:#80b757; stroke:none;" d="M275 113L276 114L275 113z"/>
<path style="fill:#5da9d7; stroke:none;" d="M271 114L272 115L271 114z"/>
<path style="fill:#4398cd; stroke:none;" d="M272 115L273 116L272 115z"/>
<path style="fill:#80b757; stroke:none;" d="M279 116L280 117L279 116z"/>
<path style="fill:#c5e6f9; stroke:none;" d="M280 117C279.274 119.179 279.561 118.78 278 118C279.313 123.589 283.238 127.862 285.68 133C289.337 140.694 291.04 148.563 291.83 157C292.652 165.777 290.775 175.442 289.003 184C284.858 204.02 277.485 222.833 266.305 240C260.195 249.382 250.975 257.013 246 267C256.905 262.017 264.996 253.494 272.105 244C289.486 220.787 300 192.043 300 163C300 145.662 294.918 127.537 280 117z"/>
<path style="fill:#07276b; stroke:none;" d="M134 120C137.959 121.661 142.737 121 147 121C143.041 119.339 138.263 120 134 120z"/>
<path style="fill:#4a9dd0; stroke:none;" d="M277 120L278 121L277 120z"/>
<path style="fill:#fff; stroke:none;" d="M113 148L101 148C100.729 149.962 97.5109 161.16 94.1968 155.623C92.9732 153.579 94.0397 150.157 94.4244 148C95.5839 141.497 95.7136 133.112 103 131L103 140C106.062 140 110.854 140.853 113.486 138.972C118.236 135.579 115.717 126.635 111.867 123.703C104.806 118.326 91.7724 120.782 86.9946 128.043C83.4024 133.502 83.0406 140.759 81.8002 147C80.8099 151.982 78.7252 158.039 81.4568 162.815C86.0797 170.897 101.757 169.277 107.66 163.606C111.772 159.656 112.763 153.429 113 148z"/>
<path style="fill:#6c7fa7; stroke:none;" d="M134.667 121.333C134.222 121.778 135.278 121.722 135.333 121.667C135.778 121.222 134.722 121.278 134.667 121.333z"/>
<path style="fill:#bfc7d9; stroke:none;" d="M136 121C138.613 122.098 141.164 121.993 144 122C141.387 120.902 138.836 121.007 136 121z"/>
<path style="fill:#7385ab; stroke:none;" d="M144.667 121.333C144.222 121.778 145.278 121.722 145.333 121.667C145.778 121.222 144.722 121.278 144.667 121.333z"/>
<path style="fill:#697ca6; stroke:none;" d="M183 121C184.506 121.683 185.315 121.826 187 122C185.494 121.317 184.685 121.174 183 121z"/>
<path style="fill:#8d9bbb; stroke:none;" d="M213.667 121.333C213.222 121.778 214.278 121.722 214.333 121.667C214.778 121.222 213.722 121.278 213.667 121.333z"/>
<path style="fill:#e4e8ef; stroke:none;" d="M215 121C217.332 121.985 219.457 121.981 222 122C219.668 121.015 217.543 121.019 215 121z"/>
<path style="fill:#a7b2ca; stroke:none;" d="M222 121C223.248 121.685 223.548 121.749 225 122C223.752 121.315 223.452 121.251 222 121z"/>
<path style="fill:#798aaf; stroke:none;" d="M250.667 121.333C250.222 121.778 251.278 121.722 251.333 121.667C251.778 121.222 250.722 121.278 250.667 121.333z"/>
<path style="fill:#bfc7d9; stroke:none;" d="M252 121C254.052 121.874 255.747 121.953 258 122C255.948 121.126 254.253 121.047 252 121z"/>
<path style="fill:#697ca6; stroke:none;" d="M258.667 121.333C258.222 121.778 259.278 121.722 259.333 121.667C259.778 121.222 258.722 121.278 258.667 121.333z"/>
<path style="fill:#68afda; stroke:none;" d="M278 121L279 122L278 121z"/>
<path style="fill:#fff; stroke:none;" d="M130 122C124.671 126.097 121.357 130.132 121 137C125.113 137 129.04 137.171 133 136C131.826 131.463 131.797 126.242 130 122z"/>
<path style="fill:#63789e; stroke:none;" d="M131 122L132 123L131 122z"/>
<path style="fill:#aeb9cf; stroke:none;" d="M132 122L133 123L132 122z"/>
<path style="fill:#fefefe; stroke:none;" d="M131 123L133 132C136.453 130.305 145.261 129.395 140.509 135.867C138.888 138.075 136.437 139.041 134 140C134.504 142.146 135.119 143.979 136 146L140 145C138.965 153.195 139.726 161.77 148 166C148.085 155.766 151.818 146.116 152.829 136C153.162 132.675 153.858 127.329 151.397 124.653C148.425 121.422 142.957 121.958 139 122.004C136.223 122.036 133.696 122.358 131 123z"/>
<path style="fill:#aeb9cf; stroke:none;" d="M148 122L149 123L148 122z"/>
<path style="fill:#5c719f; stroke:none;" d="M149 122L150 123L149 122z"/>
<path style="fill:#395289; stroke:none;" d="M165 122C168.432 123.44 172.3 123 176 123C172.568 121.56 168.7 122 165 122z"/>
<path style="fill:#9fabc6; stroke:none;" d="M181 122L182 123L181 122z"/>
<path style="fill:#fefefe; stroke:none;" d="M175 128L176 123L165 123C164.398 136.992 160.277 152.392 157 166L168 166C169.737 157.041 171.011 147.848 173.24 139.001C173.841 136.615 175.334 131.383 178.856 132.461C182.214 133.489 180.999 138.558 180.575 141C179.123 149.371 177.068 157.56 176 166L187 166C187.963 153.898 193.862 141.128 192.938 129.004C192.063 117.529 179.911 123.358 175 128z"/>
<path style="fill:#96a4c1; stroke:none;" d="M189 122L190 123L189 122z"/>
<path style="fill:#566c9a; stroke:none;" d="M210 122L211 123L210 122z"/>
<path style="fill:#aeb9cf; stroke:none;" d="M211 122L212 123L211 122z"/>
<path style="fill:#fefefe; stroke:none;" d="M212 122.653C203.26 125.398 202.053 134.218 200.753 142C198.917 152.997 196.039 165.666 211 166.815C213.358 166.996 215.728 166.718 217.999 166.061C229.654 162.689 230.13 149.069 231.572 139C232.151 134.957 233.016 128.832 230.258 125.394C226.665 120.916 217.005 121.081 212 122.653z"/>
<path style="fill:#cdd3e1; stroke:none;" d="M226 122L227 123L226 122z"/>
<path style="fill:#6c7fa7; stroke:none;" d="M227 122L228 123L227 122z"/>
<path style="fill:#5c719f; stroke:none;" d="M247 122L248 123L247 122z"/>
<path style="fill:#aeb9cf; stroke:none;" d="M248 122L249 123L248 122z"/>
<path style="fill:#fefefe; stroke:none;" d="M246 153L236 153C236.01 156.611 235.656 160.659 238.434 163.431C245.499 170.483 261.713 167.229 265.258 157.999C267.685 151.679 265.633 144.594 259.995 140.994C257.16 139.183 252.399 138.29 250.921 134.897C249.474 131.571 253.796 128.503 256.592 130.637C258.137 131.817 257.926 133.313 258 135L268 135C267.988 131.526 268.202 127.978 265.682 125.228C259.351 118.319 243.487 121.653 240.009 130.015C237.41 136.264 239.31 143.115 245.015 146.648C248.056 148.531 253.553 150.071 254.539 154.028C255.27 156.964 251.988 159.666 249.225 158.594C246.852 157.674 246.444 155.148 246 153z"/>
<path style="fill:#8091b3; stroke:none;" d="M262 122L263 123L262 122z"/>
<path style="fill:#88c3e6; stroke:none;" d="M279 122L280 123L279 122z"/>
<path style="fill:#c9d0de; stroke:none;" d="M150 123L151 124L150 123z"/>
<path style="fill:#3d568c; stroke:none;" d="M151 123L152 124L151 123z"/>
<path style="fill:#798aaf; stroke:none;" d="M179 123L180 124L179 123z"/>
<path style="fill:#7385ab; stroke:none;" d="M191 123L192 124L191 123z"/>
<path style="fill:#c4cbdc; stroke:none;" d="M209 123L210 124L209 123z"/>
<path style="fill:#c9d0de; stroke:none;" d="M228 123L229 124L228 123z"/>
<path style="fill:#697ca6; stroke:none;" d="M245 123L246 124L245 123z"/>
<path style="fill:#7385ab; stroke:none;" d="M264 123L265 124L264 123z"/>
<path style="fill:#47704c; stroke:none;" d="M41 124C39.1408 130.811 36.261 137.317 34 144L41 144C41 137.969 43.2847 129.496 41 124z"/>
<path style="fill:#d5e8b9; stroke:none;" d="M131 124L131 127C131.696 125.446 131.696 125.554 131 124z"/>
<path style="fill:#a7b2ca; stroke:none;" d="M178 124L179 125L178 124z"/>
<path style="fill:#798aaf; stroke:none;" d="M192 124L193 125L192 124z"/>
<path style="fill:#8d9bbb; stroke:none;" d="M207 124L208 125L207 124z"/>
<path style="fill:#3d568c; stroke:none;" d="M230 124L231 125L230 124z"/>
<path style="fill:#c4cbdc; stroke:none;" d="M244 124L245 125L244 124z"/>
<path style="fill:#b4bed2; stroke:none;" d="M265 124L266 125L265 124z"/>
<path style="fill:#8d9bbb; stroke:none;" d="M164.333 125.667C164.278 125.722 164.222 126.778 164.667 126.333C164.722 126.278 164.778 125.222 164.333 125.667z"/>
<path style="fill:#b4bed2; stroke:none;" d="M175 125L176 126L175 125z"/>
<path style="fill:#aeb9cf; stroke:none;" d="M177 125L178 126L177 125z"/>
<path style="fill:#b4bed2; stroke:none;" d="M206 125L207 126L206 125z"/>
<path style="fill:#5c719f; stroke:none;" d="M242 125L243 126L242 125z"/>
<path style="fill:#bfc7d9; stroke:none;" d="M266 125L267 126L266 125z"/>
<path style="fill:#5da9d7; stroke:none;" d="M281 125L282 126L281 125z"/>
<path style="fill:#697ca6; stroke:none;" d="M153 126L154 127L153 126z"/>
<path style="fill:#798aaf; stroke:none;" d="M175 126L175 128C176.635 127.455 176.455 127.635 177 126L175 126z"/>
<path style="fill:#96a4c1; stroke:none;" d="M193 126L194 127L193 126z"/>
<path style="fill:#aeb9cf; stroke:none;" d="M205 126L206 127L205 126z"/>
<path style="fill:#96a4c1; stroke:none;" d="M231 126L232 127L231 126z"/>
<path style="fill:#566c9a; stroke:none;" d="M241 126L242 127L241 126z"/>
<path style="fill:#8d9bbb; stroke:none;" d="M267 126L268 127L267 126z"/>
<path style="fill:#b5d981; stroke:none;" d="M131 127L131 130C131.696 128.446 131.696 128.554 131 127z"/>
<path style="fill:#e8ebf1; stroke:none;" d="M153 127L153 133C153.951 130.715 153.951 129.285 153 127z"/>
<path style="fill:#dfe3ec; stroke:none;" d="M164.333 127.667C164.278 127.722 164.222 128.778 164.667 128.333C164.722 128.278 164.778 127.222 164.333 127.667z"/>
<path style="fill:#d8dde8; stroke:none;" d="M193 127L193 131C193.71 129.24 193.71 128.759 193 127z"/>
<path style="fill:#798aaf; stroke:none;" d="M204 127L205 128L204 127z"/>
<path style="fill:#6478a3; stroke:none;" d="M232 128L233 129L232 128z"/>
<path style="fill:#bfc7d9; stroke:none;" d="M240 128L241 129L240 128z"/>
<path style="fill:#798aaf; stroke:none;" d="M268 128L269 129L268 128z"/>
<path style="fill:#73b6df; stroke:none;" d="M283 128L284 129L283 128z"/>
<path style="fill:#8091b3; stroke:none;" d="M137 129C138.506 129.683 139.315 129.826 141 130C139.494 129.317 138.685 129.174 137 129z"/>
<path style="fill:#9fabc6; stroke:none;" d="M203 129L204 130L203 129z"/>
<path style="fill:#c9d0de; stroke:none;" d="M232 129L232 135C232.951 132.715 232.951 131.285 232 129z"/>
<path style="fill:#566c9a; stroke:none;" d="M239 129L240 130L239 129z"/>
<path style="fill:#7385ab; stroke:none;" d="M252 129C253.506 129.683 254.315 129.826 256 130C254.494 129.317 253.685 129.174 252 129z"/>
<path style="fill:#aeb9cf; stroke:none;" d="M256 129L257 130L256 129z"/>
<path style="fill:#e8ebf1; stroke:none;" d="M268 129L268 135C268.951 132.715 268.951 131.285 268 129z"/>
<path style="fill:#7385ab; stroke:none;" d="M135 130L136 131L135 130z"/>
<path style="fill:#163474; stroke:none;" d="M133 140C134.654 139.434 136.378 138.939 137.916 138.081C146.372 133.361 136.125 126.144 133.178 134.995C132.616 136.684 132.858 138.277 133 140z"/>
<path style="fill:#6478a3; stroke:none;" d="M141 130L142 131L141 130z"/>
<path style="fill:#8d9bbb; stroke:none;" d="M163.333 130.667C163.278 130.722 163.222 131.778 163.667 131.333C163.722 131.278 163.778 130.222 163.333 130.667z"/>
<path style="fill:#a7b2ca; stroke:none;" d="M215 130L216 131L215 130z"/>
<path style="fill:#163474; stroke:none;" d="M217 148L219 149C219.086 144.857 222.624 134.956 219.958 131.623C217.832 128.963 214.671 131.943 213.728 134.059C211.538 138.97 209.973 148.574 210.318 153.941C210.545 157.479 214.767 159.065 216.731 155.681C217.981 153.53 217.164 150.34 217 148z"/>
<path style="fill:#b9c2d5; stroke:none;" d="M220 130L221 131L220 130M239 130L240 131L239 130z"/>
<path style="fill:#6c7fa7; stroke:none;" d="M257 130L258 131L257 130z"/>
<path style="fill:#5da9d7; stroke:none;" d="M284 130L285 131L284 130z"/>
<path style="fill:#eaf4da; stroke:none;" d="M132 131L132 134L134 133C133.455 131.365 133.635 131.545 132 131z"/>
<path style="fill:#8091b3; stroke:none;" d="M134 131L135 132L134 131z"/>
<path style="fill:#aeb9cf; stroke:none;" d="M142 131L142 134C142.696 132.446 142.696 132.554 142 131z"/>
<path style="fill:#b4bed2; stroke:none;" d="M177 131C178.248 131.685 178.549 131.749 180 132C178.752 131.315 178.452 131.251 177 131z"/>
<path style="fill:#6478a3; stroke:none;" d="M193.333 131.667C193.278 131.722 193.222 132.778 193.667 132.333C193.722 132.278 193.778 131.222 193.333 131.667z"/>
<path style="fill:#7385ab; stroke:none;" d="M202 131L203 132L202 131z"/>
<path style="fill:#8d9bbb; stroke:none;" d="M214 131L215 132L214 131z"/>
<path style="fill:#395289; stroke:none;" d="M250 131L251 132L250 131z"/>
<path style="fill:#d2d8e4; stroke:none;" d="M258 131L258 134C258.696 132.446 258.696 132.554 258 131z"/>
<path style="fill:#80b757; stroke:none;" d="M292 131L293 132L292 131z"/>
<path style="fill:#d8dde8; stroke:none;" d="M163.333 132.667C163.278 132.722 163.222 133.778 163.667 133.333C163.722 133.278 163.778 132.222 163.333 132.667z"/>
<path style="fill:#c9d0de; stroke:none;" d="M175 132L176 133L175 132z"/>
<path style="fill:#395289; stroke:none;" d="M180 132L181 133L180 132z"/>
<path style="fill:#bfc7d9; stroke:none;" d="M202 132L203 133L202 132z"/>
<path style="fill:#aeb9cf; stroke:none;" d="M221 132L221 135C221.696 133.446 221.696 133.554 221 132z"/>
<path style="fill:#6c7fa7; stroke:none;" d="M238 132L239 133L238 132z"/>
<path style="fill:#96a4c1; stroke:none;" d="M249 132L249 135C249.696 133.446 249.696 133.554 249 132z"/>
<path style="fill:#5da9d7; stroke:none;" d="M285 132L286 133L285 132z"/>
<path style="fill:#8d9bbb; stroke:none;" d="M133 133L134 134L133 133M153 133L153 136C153.696 134.446 153.696 134.554 153 133z"/>
<path style="fill:#96a4c1; stroke:none;" d="M181 133L181 136C181.696 134.446 181.696 134.554 181 133z"/>
<path style="fill:#7385ab; stroke:none;" d="M213 133L214 134L213 133z"/>
<path style="fill:#dfe3ec; stroke:none;" d="M238 133L238 139C238.951 136.715 238.951 135.285 238 133z"/>
<path style="fill:#b5d981; stroke:none;" d="M132 134L133 135L132 134z"/>
<path style="fill:#798aaf; stroke:none;" d="M174 134L175 135L174 134z"/>
<path style="fill:#8091b3; stroke:none;" d="M201.333 134.667C201.278 134.722 201.222 135.778 201.667 135.333C201.722 135.278 201.778 134.222 201.333 134.667z"/>
<path style="fill:#73b6df; stroke:none;" d="M286 134L287 135L286 134z"/>
<path style="fill:#697ca6; stroke:none;" d="M141 135L142 136L141 135z"/>
<path style="fill:#8091b3; stroke:none;" d="M162.333 135.667C162.278 135.722 162.222 136.778 162.667 136.333C162.722 136.278 162.778 135.222 162.333 135.667z"/>
<path style="fill:#96a4c1; stroke:none;" d="M192.333 135.667C192.278 135.722 192.222 136.778 192.667 136.333C192.722 136.278 192.778 135.222 192.333 135.667z"/>
<path style="fill:#c4cbdc; stroke:none;" d="M212 135L212 138C212.696 136.446 212.696 136.554 212 135z"/>
<path style="fill:#697ca6; stroke:none;" d="M232.333 135.667C232.278 135.722 232.222 136.778 232.667 136.333C232.722 136.278 232.778 135.222 232.333 135.667z"/>
<path style="fill:#566c9a; stroke:none;" d="M250 135L251 136L250 135z"/>
<path style="fill:#798aaf; stroke:none;" d="M258 135C261.432 136.44 265.3 136 269 136C265.568 134.56 261.7 135 258 135z"/>
<path style="fill:#cdd3e1; stroke:none;" d="M201.333 136.667C201.278 136.722 201.222 137.778 201.667 137.333C201.722 137.278 201.778 136.222 201.333 136.667z"/>
<path style="fill:#4d6495; stroke:none;" d="M220.333 136.667C220.278 136.722 220.222 137.778 220.667 137.333C220.722 137.278 220.778 136.222 220.333 136.667z"/>
<path style="fill:#6478a3; stroke:none;" d="M251 136L252 137L251 136z"/>
<path style="fill:#032369; stroke:none;" d="M258 136C261.432 137.44 265.3 137 269 137C265.568 135.56 261.7 136 258 136z"/>
<path style="fill:#4d6495; stroke:none;" d="M139 137L140 138L139 137z"/>
<path style="fill:#d8dde8; stroke:none;" d="M162.333 137.667C162.278 137.722 162.222 138.778 162.667 138.333C162.722 138.278 162.778 137.222 162.333 137.667z"/>
<path style="fill:#96a4c1; stroke:none;" d="M173.333 137.667C173.278 137.722 173.222 138.778 173.667 138.333C173.722 138.278 173.778 137.222 173.333 137.667z"/>
<path style="fill:#3d568c; stroke:none;" d="M192.333 137.667C192.278 137.722 192.222 138.778 192.667 138.333C192.722 138.278 192.778 137.222 192.333 137.667z"/>
<path style="fill:#aeb9cf; stroke:none;" d="M252 137L253 138L252 137z"/>
<path style="fill:#465d90; stroke:none;" d="M253 137L254 138L253 137z"/>
<path style="fill:#4a9dd0; stroke:none;" d="M287 137L288 138L287 137z"/>
<path style="fill:#566c9a; stroke:none;" d="M137 138L138 139L137 138z"/>
<path style="fill:#b4bed2; stroke:none;" d="M138 138L139 139L138 138z"/>
<path style="fill:#bfc7d9; stroke:none;" d="M152 138L153 139L152 138z"/>
<path style="fill:#8091b3; stroke:none;" d="M180.333 138.667C180.278 138.722 180.222 139.778 180.667 139.333C180.722 139.278 180.778 138.222 180.333 138.667z"/>
<path style="fill:#566c9a; stroke:none;" d="M212.333 138.667C212.278 138.722 212.222 139.778 212.667 139.333C212.722 139.278 212.778 138.222 212.333 138.667z"/>
<path style="fill:#96a4c1; stroke:none;" d="M220.333 138.667C220.278 138.722 220.222 139.778 220.667 139.333C220.722 139.278 220.778 138.222 220.333 138.667z"/>
<path style="fill:#bfc7d9; stroke:none;" d="M254 138L255 139L254 138z"/>
<path style="fill:#5c719f; stroke:none;" d="M255 138L256 139L255 138z"/>
<path style="fill:#fff; stroke:none;" d="M136 164C136.904 168.217 141.356 167 145 167C143.521 161.971 140.653 157.499 138 153C136.243 154.97 128.782 159.412 130.495 152.993C131.205 150.333 133.978 148.58 136 147L133 139C126.393 141.563 120.539 144.077 117.533 151C114.601 157.754 116.184 167.308 125 167.851C129.145 168.106 132.625 166.12 136 164z"/>
<path style="fill:#5c719f; stroke:none;" d="M134 139L135 140L134 139z"/>
<path style="fill:#96a4c1; stroke:none;" d="M135 139L136 140L135 139z"/>
<path style="fill:#6478a3; stroke:none;" d="M152.333 139.667C152.278 139.722 152.222 140.778 152.667 140.333C152.722 140.278 152.778 139.222 152.333 139.667z"/>
<path style="fill:#465d90; stroke:none;" d="M173.333 139.667C173.278 139.722 173.222 140.778 173.667 140.333C173.722 140.278 173.778 139.222 173.333 139.667z"/>
<path style="fill:#b4bed2; stroke:none;" d="M231.333 139.667C231.278 139.722 231.222 140.778 231.667 140.333C231.722 140.278 231.778 139.222 231.333 139.667z"/>
<path style="fill:#8091b3; stroke:none;" d="M238 139L239 140L238 139z"/>
<path style="fill:#7385ab; stroke:none;" d="M257 139L258 140L257 139z"/>
<path style="fill:#88c3e6; stroke:none;" d="M288 139L289 140L288 139z"/>
<path style="fill:#798aaf; stroke:none;" d="M161.333 140.667C161.278 140.722 161.222 141.778 161.667 141.333C161.722 141.278 161.778 140.222 161.333 140.667z"/>
<path style="fill:#d2d8e4; stroke:none;" d="M180.333 140.667C180.278 140.722 180.222 141.778 180.667 141.333C180.722 141.278 180.778 140.222 180.333 140.667z"/>
<path style="fill:#9fabc6; stroke:none;" d="M191.333 140.667C191.278 140.722 191.222 141.778 191.667 141.333C191.722 141.278 191.778 140.222 191.333 140.667z"/>
<path style="fill:#8091b3; stroke:none;" d="M200.333 140.667C200.278 140.722 200.222 141.778 200.667 141.333C200.722 141.278 200.778 140.222 200.333 140.667z"/>
<path style="fill:#dfe3ec; stroke:none;" d="M220.333 140.667C220.278 140.722 220.222 141.778 220.667 141.333C220.722 141.278 220.778 140.222 220.333 140.667z"/>
<path style="fill:#395289; stroke:none;" d="M238 140L239 141L238 140z"/>
<path style="fill:#798aaf; stroke:none;" d="M259 140L260 141L259 140z"/>
<path style="fill:#697ca6; stroke:none;" d="M231.333 141.667C231.278 141.722 231.222 142.778 231.667 142.333C231.722 142.278 231.778 141.222 231.333 141.667z"/>
<path style="fill:#aeb9cf; stroke:none;" d="M239 141L240 142L239 141z"/>
<path style="fill:#566c9a; stroke:none;" d="M261 141L262 142L261 141z"/>
<path style="fill:#96cb46; stroke:none;" d="M134.333 142.667C134.278 142.722 134.222 143.778 134.667 143.333C134.722 143.278 134.778 142.222 134.333 142.667z"/>
<path style="fill:#d2d8e4; stroke:none;" d="M161.333 142.667C161.278 142.722 161.222 143.778 161.667 143.333C161.722 143.278 161.778 142.222 161.333 142.667z"/>
<path style="fill:#9fabc6; stroke:none;" d="M172.333 142.667C172.278 142.722 172.222 143.778 172.667 143.333C172.722 143.278 172.778 142.222 172.333 142.667z"/>
<path style="fill:#465d90; stroke:none;" d="M191.333 142.667C191.278 142.722 191.222 143.778 191.667 143.333C191.722 143.278 191.778 142.222 191.333 142.667z"/>
<path style="fill:#c9d0de; stroke:none;" d="M200.333 142.667C200.278 142.722 200.222 143.778 200.667 143.333C200.722 143.278 200.778 142.222 200.333 142.667z"/>
<path style="fill:#9fabc6; stroke:none;" d="M211.333 142.667C211.278 142.722 211.222 143.778 211.667 143.333C211.722 143.278 211.778 142.222 211.333 142.667z"/>
<path style="fill:#4d6495; stroke:none;" d="M219.333 142.667C219.278 142.722 219.222 143.778 219.667 143.333C219.722 143.278 219.778 142.222 219.333 142.667z"/>
<path style="fill:#96a4c1; stroke:none;" d="M262 142L263 143L262 142z"/>
<path style="fill:#68afda; stroke:none;" d="M289.333 142.667C289.278 142.722 289.222 143.778 289.667 143.333C289.722 143.278 289.778 142.222 289.333 142.667z"/>
<path style="fill:#96a4c1; stroke:none;" d="M151.333 143.667C151.278 143.722 151.222 144.778 151.667 144.333C151.722 144.278 151.778 143.222 151.333 143.667z"/>
<path style="fill:#798aaf; stroke:none;" d="M179.333 143.667C179.278 143.722 179.222 144.778 179.667 144.333C179.722 144.278 179.778 143.222 179.333 143.667z"/>
<path style="fill:#4d6495; stroke:none;" d="M240 143L241 144L240 143z"/>
<path style="fill:#bfc7d9; stroke:none;" d="M263 143L264 144L263 143z"/>
<path style="fill:#4d6495; stroke:none;" d="M172.333 144.667C172.278 144.722 172.222 145.778 172.667 145.333C172.722 145.278 172.778 144.222 172.333 144.667z"/>
<path style="fill:#566c9a; stroke:none;" d="M211.333 144.667C211.278 144.722 211.222 145.778 211.667 145.333C211.722 145.278 211.778 144.222 211.333 144.667z"/>
<path style="fill:#96a4c1; stroke:none;" d="M219.333 144.667C219.278 144.722 219.222 145.778 219.667 145.333C219.722 145.278 219.778 144.222 219.333 144.667z"/>
<path style="fill:#566c9a; stroke:none;" d="M241 144L242 145L241 144z"/>
<path style="fill:#b9c2d5; stroke:none;" d="M264 144L265 145L264 144z"/>
<path style="fill:#cae4a3; stroke:none;" d="M135 145L136 146L135 145z"/>
<path style="fill:#798aaf; stroke:none;" d="M138 145L139 146L138 145z"/>
<path style="fill:#4d6495; stroke:none;" d="M139.333 145.667C139.278 145.722 139.222 146.778 139.667 146.333C139.722 146.278 139.778 145.222 139.333 145.667z"/>
<path style="fill:#3d568c; stroke:none;" d="M151.333 145.667C151.278 145.722 151.222 146.778 151.667 146.333C151.722 146.278 151.778 145.222 151.333 145.667z"/>
<path style="fill:#7385ab; stroke:none;" d="M160.333 145.667C160.278 145.722 160.222 146.778 160.667 146.333C160.722 146.278 160.778 145.222 160.333 145.667z"/>
<path style="fill:#cdd3e1; stroke:none;" d="M179.333 145.667C179.278 145.722 179.222 146.778 179.667 146.333C179.722 146.278 179.778 145.222 179.333 145.667z"/>
<path style="fill:#9fabc6; stroke:none;" d="M190.333 145.667C190.278 145.722 190.222 146.778 190.667 146.333C190.722 146.278 190.778 145.222 190.333 145.667z"/>
<path style="fill:#032369; stroke:none;" d="M198 145L198 150C198.83 147.969 198.83 147.031 198 145z"/>
<path style="fill:#566c9a; stroke:none;" d="M199 145L199 148C199.696 146.446 199.696 146.554 199 145z"/>
<path style="fill:#b9c2d5; stroke:none;" d="M230 145L230 148C230.696 146.446 230.696 146.554 230 145z"/>
<path style="fill:#8091b3; stroke:none;" d="M265 145L266 146L265 145z"/>
<path style="fill:#5c719f; stroke:none;" d="M136 146L137 147L136 146z"/>
<path style="fill:#163474; stroke:none;" d="M137 146C136.458 148.674 136.493 149.731 138 152C138.644 149.894 138.906 148.205 139 146L137 146z"/>
<path style="fill:#dfe3ec; stroke:none;" d="M219.333 146.667C219.278 146.722 219.222 147.778 219.667 147.333C219.722 147.278 219.778 146.222 219.333 146.667z"/>
<path style="fill:#96a4c1; stroke:none;" d="M244 146L245 147L244 146z"/>
<path style="fill:#88c3e6; stroke:none;" d="M290.333 146.667C290.278 146.722 290.222 147.778 290.667 147.333C290.722 147.278 290.778 146.222 290.333 146.667z"/>
<path style="fill:#47704c; stroke:none;" d="M135 147C133.782 147.982 132.319 148.916 131.394 150.223C125.816 158.1 138.405 159.427 136.916 151.055C136.633 149.462 135.85 148.312 135 147z"/>
<path style="fill:#aeb9cf; stroke:none;" d="M139.333 147.667C139.278 147.722 139.222 148.778 139.667 148.333C139.722 148.278 139.778 147.222 139.333 147.667z"/>
<path style="fill:#c9d0de; stroke:none;" d="M160.333 147.667C160.278 147.722 160.222 148.778 160.667 148.333C160.722 148.278 160.778 147.222 160.333 147.667z"/>
<path style="fill:#a7b2ca; stroke:none;" d="M171.333 147.667C171.278 147.722 171.222 148.778 171.667 148.333C171.722 148.278 171.778 147.222 171.333 147.667z"/>
<path style="fill:#032369; stroke:none;" d="M177 147L177 152C177.83 149.969 177.83 149.03 177 147z"/>
<path style="fill:#4d6495; stroke:none;" d="M190.333 147.667C190.278 147.722 190.222 148.778 190.667 148.333C190.722 148.278 190.778 147.222 190.333 147.667z"/>
<path style="fill:#aeb9cf; stroke:none;" d="M246 147L247 148L246 147z"/>
<path style="fill:#798aaf; stroke:none;" d="M266 147L267 148L266 147z"/>
<path style="fill:#96a4c1; stroke:none;" d="M150.333 148.667C150.278 148.722 150.222 149.778 150.667 149.333C150.722 149.278 150.778 148.222 150.333 148.667z"/>
<path style="fill:#7385ab; stroke:none;" d="M178.333 148.667C178.278 148.722 178.222 149.778 178.667 149.333C178.722 149.278 178.778 148.222 178.333 148.667z"/>
<path style="fill:#c4cbdc; stroke:none;" d="M199.333 148.667C199.278 148.722 199.222 149.778 199.667 149.333C199.722 149.278 199.778 148.222 199.333 148.667z"/>
<path style="fill:#a7b2ca; stroke:none;" d="M210.333 148.667C210.278 148.722 210.222 149.778 210.667 149.333C210.722 149.278 210.778 148.222 210.333 148.667z"/>
<path style="fill:#032369; stroke:none;" d="M217 148L217 153C217.83 150.969 217.83 150.03 217 148z"/>
<path style="fill:#465d90; stroke:none;" d="M230.333 148.667C230.278 148.722 230.222 149.778 230.667 149.333C230.722 149.278 230.778 148.222 230.333 148.667M247 148L248 149L247 148z"/>
<path style="fill:#b4bed2; stroke:none;" d="M248 148L249 149L248 148z"/>
<path style="fill:#eceef4; stroke:none;" d="M266 148L266 153C266.83 150.97 266.83 150.03 266 148z"/>
<path style="fill:#4a9dd0; stroke:none;" d="M290 148L290 151C290.696 149.446 290.696 149.554 290 148z"/>
<path style="fill:#4d6495; stroke:none;" d="M171.333 149.667C171.278 149.722 171.222 150.778 171.667 150.333C171.722 150.278 171.778 149.222 171.333 149.667z"/>
<path style="fill:#7385ab; stroke:none;" d="M218.333 149.667C218.278 149.722 218.222 150.778 218.667 150.333C218.722 150.278 218.778 149.222 218.333 149.667z"/>
<path style="fill:#465d90; stroke:none;" d="M249 149L250 150L249 149z"/>
<path style="fill:#b9c2d5; stroke:none;" d="M250 149L251 150L250 149z"/>
<path style="fill:#3d568c; stroke:none;" d="M150.333 150.667C150.278 150.722 150.222 151.778 150.667 151.333C150.722 151.278 150.778 150.222 150.333 150.667z"/>
<path style="fill:#032369; stroke:none;" d="M158 150L158 154C158.71 152.24 158.71 151.759 158 150z"/>
<path style="fill:#6c7fa7; stroke:none;" d="M159 150L159 153C159.696 151.446 159.696 151.554 159 150z"/>
<path style="fill:#c9d0de; stroke:none;" d="M178.333 150.667C178.278 150.722 178.222 151.778 178.667 151.333C178.722 151.278 178.778 150.222 178.333 150.667z"/>
<path style="fill:#a7b2ca; stroke:none;" d="M189.333 150.667C189.278 150.722 189.222 151.778 189.667 151.333C189.722 151.278 189.778 150.222 189.333 150.667z"/>
<path style="fill:#5c719f; stroke:none;" d="M210.333 150.667C210.278 150.722 210.222 151.778 210.667 151.333C210.722 151.278 210.778 150.222 210.333 150.667z"/>
<path style="fill:#4d6495; stroke:none;" d="M251 150L252 151L251 150z"/>
<path style="fill:#bfc7d9; stroke:none;" d="M252 150L253 151L252 150z"/>
<path style="fill:#566c9a; stroke:none;" d="M138 151L139 152L138 151z"/>
<path style="fill:#032369; stroke:none;" d="M197 151L197 161C198.346 157.793 198.346 154.207 197 151z"/>
<path style="fill:#b9c2d5; stroke:none;" d="M218.333 151.667C218.278 151.722 218.222 152.778 218.667 152.333C218.722 152.278 218.778 151.222 218.333 151.667M229 151L229 154C229.696 152.446 229.696 152.554 229 151z"/>
<path style="fill:#05256a; stroke:none;" d="M236 151C239.163 152.327 242.586 152 246 152C242.837 150.673 239.414 151 236 151z"/>
<path style="fill:#566c9a; stroke:none;" d="M253 151L254 152L253 151z"/>
<path style="fill:#a2c1df; stroke:none;" d="M138 152L139 153L138 152z"/>
<path style="fill:#566c9a; stroke:none;" d="M189.333 152.667C189.278 152.722 189.222 153.778 189.667 153.333C189.722 153.278 189.778 152.222 189.333 152.667z"/>
<path style="fill:#798aaf; stroke:none;" d="M198.333 152.667C198.278 152.722 198.222 153.778 198.667 153.333C198.722 153.278 198.778 152.222 198.333 152.667z"/>
<path style="fill:#6478a3; stroke:none;" d="M236 152C239.743 153.571 243.574 152.257 246 156C246.683 154.494 246.826 153.685 247 152L236 152z"/>
<path style="fill:#c3e191; stroke:none;" d="M138 153L139 154L138 153z"/>
<path style="fill:#96a4c1; stroke:none;" d="M149.333 153.667C149.278 153.722 149.222 154.778 149.667 154.333C149.722 154.278 149.778 153.222 149.333 153.667z"/>
<path style="fill:#8091b3; stroke:none;" d="M170.333 153.667C170.278 153.722 170.222 154.778 170.667 154.333C170.722 154.278 170.778 153.222 170.333 153.667z"/>
<path style="fill:#aeb9cf; stroke:none;" d="M235 153L235 159C235.951 156.715 235.951 155.285 235 153z"/>
<path style="fill:#032369; stroke:none;" d="M254 153L254 157C254.71 155.24 254.71 154.76 254 153z"/>
<path style="fill:#7385ab; stroke:none;" d="M255 153L255 156C255.696 154.446 255.696 154.554 255 153z"/>
<path style="fill:#aeb9cf; stroke:none;" d="M266 153L266 156C266.696 154.446 266.696 154.554 266 153z"/>
<path style="fill:#96a4c1; stroke:none;" d="M177.333 154.667C177.278 154.722 177.222 155.778 177.667 155.333C177.722 155.278 177.778 154.222 177.333 154.667z"/>
<path style="fill:#b4bed2; stroke:none;" d="M198 154L198 159C198.83 156.969 198.83 156.03 198 154z"/>
<path style="fill:#c4cbdc; stroke:none;" d="M209.333 154.667C209.278 154.722 209.222 155.778 209.667 155.333C209.722 155.278 209.778 154.222 209.333 154.667z"/>
<path style="fill:#566c9a; stroke:none;" d="M229 154L230 155L229 154z"/>
<path style="fill:#08599c; stroke:none;" d="M282 154L282 169C283.74 164.852 283.74 158.148 282 154z"/>
<path style="fill:#7fbee3; stroke:none;" d="M291 154L291 166C292.512 162.396 292.512 157.604 291 154z"/>
<path style="fill:#b5d981; stroke:none;" d="M139 155L140 156L139 155z"/>
<path style="fill:#465d90; stroke:none;" d="M149.333 155.667C149.278 155.722 149.222 156.778 149.667 156.333C149.722 156.278 149.778 155.222 149.333 155.667z"/>
<path style="fill:#314c85; stroke:none;" d="M170.333 155.667C170.278 155.722 170.222 156.778 170.667 156.333C170.722 156.278 170.778 155.222 170.333 155.667z"/>
<path style="fill:#6c7fa7; stroke:none;" d="M217 155L218 156L217 155z"/>
<path style="fill:#96a4c1; stroke:none;" d="M158.333 156.667C158.278 156.722 158.222 157.778 158.667 157.333C158.722 157.278 158.778 156.222 158.333 156.667z"/>
<path style="fill:#8091b3; stroke:none;" d="M188.333 156.667C188.278 156.722 188.222 157.778 188.667 157.333C188.722 157.278 188.778 156.222 188.333 156.667z"/>
<path style="fill:#9fabc6; stroke:none;" d="M228 156L229 157L228 156z"/>
<path style="fill:#a7b2ca; stroke:none;" d="M246 156L247 157L246 156z"/>
<path style="fill:#465d90; stroke:none;" d="M266 156L267 157L266 156z"/>
<path style="fill:#b5d981; stroke:none;" d="M140 157L141 158L140 157z"/>
<path style="fill:#a7b2ca; stroke:none;" d="M210 157L211 158L210 157z"/>
<path style="fill:#c9d0de; stroke:none;" d="M216 157L217 158L216 157z"/>
<path style="fill:#465d90; stroke:none;" d="M228 157L229 158L228 157z"/>
<path style="fill:#8d9bbb; stroke:none;" d="M254 157L255 158L254 157z"/>
<path style="fill:#9fabc6; stroke:none;" d="M148.333 158.667C148.278 158.722 148.222 159.778 148.667 159.333C148.722 159.278 148.778 158.222 148.333 158.667z"/>
<path style="fill:#8d9bbb; stroke:none;" d="M169.333 158.667C169.278 158.722 169.222 159.778 169.667 159.333C169.722 159.278 169.778 158.222 169.333 158.667z"/>
<path style="fill:#314c85; stroke:none;" d="M188.333 158.667C188.278 158.722 188.222 159.778 188.667 159.333C188.722 159.278 188.778 158.222 188.333 158.667z"/>
<path style="fill:#bfc7d9; stroke:none;" d="M212 158C213.248 158.685 213.548 158.749 215 159C213.752 158.315 213.452 158.251 212 158z"/>
<path style="fill:#b9c2d5; stroke:none;" d="M227 158L228 159L227 158z"/>
<path style="fill:#bfc7d9; stroke:none;" d="M247 158L248 159L247 158z"/>
<path style="fill:#aeb9cf; stroke:none;" d="M253 158L254 159L253 158z"/>
<path style="fill:#8091b3; stroke:none;" d="M265 158L266 159L265 158z"/>
<path style="fill:#a5d264; stroke:none;" d="M141 159L142 160L141 159z"/>
<path style="fill:#8d9bbb; stroke:none;" d="M176.333 159.667C176.278 159.722 176.222 160.778 176.667 160.333C176.722 160.278 176.778 159.222 176.333 159.667z"/>
<path style="fill:#798aaf; stroke:none;" d="M198 159L199 160L198 159z"/>
<path style="fill:#3d568c; stroke:none;" d="M227 159L228 160L227 159z"/>
<path style="fill:#566c9a; stroke:none;" d="M235 159L236 160L235 159z"/>
<path style="fill:#c9d0de; stroke:none;" d="M249 159C250.248 159.685 250.548 159.749 252 160C250.752 159.315 250.452 159.251 249 159z"/>
<path style="fill:#465d90; stroke:none;" d="M148.333 160.667C148.278 160.722 148.222 161.778 148.667 161.333C148.722 161.278 148.778 160.222 148.333 160.667z"/>
<path style="fill:#395289; stroke:none;" d="M169.333 160.667C169.278 160.722 169.222 161.778 169.667 161.333C169.722 161.278 169.778 160.222 169.333 160.667z"/>
<path style="fill:#3d568c; stroke:none;" d="M198 160L199 161L198 160z"/>
<path style="fill:#8d9bbb; stroke:none;" d="M226 160L227 161L226 160z"/>
<path style="fill:#6c7fa7; stroke:none;" d="M264 160L265 161L264 160z"/>
<path style="fill:#8d9bbb; stroke:none;" d="M157.333 161.667C157.278 161.722 157.222 162.778 157.667 162.333C157.722 162.278 157.778 161.222 157.333 161.667z"/>
<path style="fill:#dfe3ec; stroke:none;" d="M176.333 161.667C176.278 161.722 176.222 162.778 176.667 162.333C176.722 162.278 176.778 161.222 176.333 161.667z"/>
<path style="fill:#8d9bbb; stroke:none;" d="M187.333 161.667C187.278 161.722 187.222 162.778 187.667 162.333C187.722 162.278 187.778 161.222 187.333 161.667z"/>
<path style="fill:#b9c2d5; stroke:none;" d="M199 161L200 162L199 161z"/>
<path style="fill:#bfc7d9; stroke:none;" d="M225 161L226 162L225 161z"/>
<path style="fill:#96a4c1; stroke:none;" d="M236 161L237 162L236 161z"/>
<path style="fill:#a7b2ca; stroke:none;" d="M263 161L264 162L263 161z"/>
<path style="fill:#cae4a3; stroke:none;" d="M143 162L144 163L143 162z"/>
<path style="fill:#294580; stroke:none;" d="M148 162L148 166C148.71 164.241 148.71 163.759 148 162z"/>
<path style="fill:#b9c2d5; stroke:none;" d="M262 162L263 163L262 162z"/>
<path style="fill:#dfe3ec; stroke:none;" d="M157.333 163.667C157.278 163.722 157.222 164.778 157.667 164.333C157.722 164.278 157.778 163.222 157.333 163.667z"/>
<path style="fill:#96a4c1; stroke:none;" d="M168 163L168 166C168.696 164.446 168.696 164.554 168 163z"/>
<path style="fill:#395289; stroke:none;" d="M187.333 163.667C187.278 163.722 187.222 164.778 187.667 164.333C187.722 164.278 187.778 163.222 187.333 163.667z"/>
<path style="fill:#4d6495; stroke:none;" d="M200 163L201 164L200 163z"/>
<path style="fill:#b9c2d5; stroke:none;" d="M223 163L224 164L223 163z"/>
<path style="fill:#9fabc6; stroke:none;" d="M261 163L262 164L261 163z"/>
<path style="fill:#a5d264; stroke:none;" d="M144 164L145 165L144 164z"/>
<path style="fill:#5c719f; stroke:none;" d="M175 164L176 165L175 164z"/>
<path style="fill:#c9d0de; stroke:none;" d="M202 164L203 165L202 164z"/>
<path style="fill:#8091b3; stroke:none;" d="M222 164L223 165L222 164z"/>
<path style="fill:#c9d0de; stroke:none;" d="M239 164L240 165L239 164z"/>
<path style="fill:#5c719f; stroke:none;" d="M260 164L261 165L260 164z"/>
<path style="fill:#cae4a3; stroke:none;" d="M145 165L146 166L145 165z"/>
<path style="fill:#96a4c1; stroke:none;" d="M175 165L176 166L175 165z"/>
<path style="fill:#6c7fa7; stroke:none;" d="M203 165L204 166L203 165z"/>
<path style="fill:#96a4c1; stroke:none;" d="M220 165L221 166L220 165z"/>
<path style="fill:#798aaf; stroke:none;" d="M240 165L241 166L240 165z"/>
<path style="fill:#7385ab; stroke:none;" d="M258 165L259 166L258 165z"/>
<path style="fill:#6c7fa7; stroke:none;" d="M157 166C160.432 167.44 164.3 167 168 167C164.568 165.56 160.7 166 157 166M175 166C178.697 167.552 183.017 167 187 167C183.303 165.448 178.983 166 175 166z"/>
<path style="fill:#4d6495; stroke:none;" d="M205 166L206 167L205 166z"/>
<path style="fill:#8d9bbb; stroke:none;" d="M206 166L207 167L206 166z"/>
<path style="fill:#dfe3ec; stroke:none;" d="M207.667 166.333C207.222 166.778 208.278 166.722 208.333 166.667C208.778 166.222 207.722 166.278 207.667 166.333z"/>
<path style="fill:#9fabc6; stroke:none;" d="M216.667 166.333C216.222 166.778 217.278 166.722 217.333 166.667C217.778 166.222 216.722 166.278 216.667 166.333z"/>
<path style="fill:#5c719f; stroke:none;" d="M218 166L219 167L218 166M242 166L243 167L242 166z"/>
<path style="fill:#d8dde8; stroke:none;" d="M243.667 166.333C243.222 166.778 244.278 166.722 244.333 166.667C244.778 166.222 243.722 166.278 243.667 166.333z"/>
<path style="fill:#c4cbdc; stroke:none;" d="M254 166L255 167L254 166z"/>
<path style="fill:#8d9bbb; stroke:none;" d="M255 166L256 167L255 166z"/>
<path style="fill:#465d90; stroke:none;" d="M256 166L257 167L256 166z"/>
<path style="fill:#d6faff; stroke:none;" d="M298 166L298 174C299.161 171.23 299.161 168.77 298 166z"/>
<path style="fill:#05256a; stroke:none;" d="M175 167C178.697 168.552 183.017 168 187 168C183.303 166.448 178.983 167 175 167z"/>
<path style="fill:#3d568c; stroke:none;" d="M209 167C211.052 167.874 212.747 167.953 215 168C212.948 167.126 211.253 167.047 209 167z"/>
<path style="fill:#6478a3; stroke:none;" d="M246 167C247.769 167.779 249.036 167.912 251 168C249.231 167.221 247.964 167.088 246 167z"/>
<path style="fill:#395289; stroke:none;" d="M251.667 167.333C251.222 167.778 252.278 167.722 252.333 167.667C252.778 167.222 251.722 167.278 251.667 167.333z"/>
<path style="fill:#53a4d6; stroke:none;" d="M290 172L290 175C290.696 173.446 290.696 173.554 290 172z"/>
<path style="fill:#a0d1ee; stroke:none;" d="M290 175L290 178C290.696 176.446 290.696 176.554 290 175z"/>
<path style="fill:#80b757; stroke:none;" d="M153 176L154 177L153 176z"/>
<path style="fill:none; stroke:none;" d="M299 176C298.816 184.89 296.124 193.62 293.333 202C286.978 221.081 276.932 239.383 262.961 254C256.449 260.812 249.813 267.346 242 272.656C238.679 274.913 232.959 276.991 232 281C227.448 280.589 223.462 282.341 219 283C225.919 285.903 236.52 284 244 284L300 284L300 209L300 188C300 184.017 300.552 179.699 299 176z"/>
<path style="fill:#3490c9; stroke:none;" d="M289.333 178.667C289.278 178.722 289.222 179.778 289.667 179.333C289.722 179.278 289.778 178.222 289.333 178.667z"/>
<path style="fill:#73b6df; stroke:none;" d="M289.333 180.667C289.278 180.722 289.222 181.778 289.667 181.333C289.722 181.278 289.778 180.222 289.333 180.667z"/>
<path style="fill:#fff; stroke:none;" d="M59 199C53.1032 199.07 52.0875 201.343 48 205C48.4431 199.432 48.7221 191.901 54 189L53 194L60 194C59.998 191.373 60.5489 187.723 58.9722 185.434C56.0901 181.249 49.1798 183.238 46.2785 186.228C42.5837 190.036 41.4829 197.867 41.1898 202.999C40.7805 210.167 48.3554 212.28 53.7863 208.721C57.1104 206.542 57.963 202.573 59 199M12 184L11 191C6.64299 188.822 2.99119 190.52 1 195C0.515793 196.089 1.29158 197.834 1 199C0.513588 200.946 -1.4129 206.645 0 209C1.30054 211.168 5.25346 211 6 211L6 209C8.00378 209.574 10.3711 210.45 12.2631 208.969C14.1825 207.466 14.3493 204.196 14.8009 202C16.0327 196.011 17.736 190.133 18 184L12 184M81 184C79.3319 192.602 76.6953 201.263 76 210L82 210C83.773 201.405 86.3023 192.767 87 184L81 184M126 210C129.876 209.922 135.47 211.273 138.582 208.471C141.676 205.683 144.813 195.27 141.973 191.603C140.594 189.823 137.984 190.065 136 190L137 184C135.237 184.058 133.075 183.858 131.584 185.028C129.654 186.543 129.397 189.778 128.881 192C127.505 197.921 126.126 203.908 126 210z"/>
<path style="fill:#84c324; stroke:none;" d="M147 189L153 189L154 184C149.824 184.137 147.728 184.638 147 189z"/>
<path style="fill:#4398cd; stroke:none;" d="M288 184L288 187C288.696 185.446 288.696 185.554 288 184z"/>
<path style="fill:#80b757; stroke:none;" d="M60.3333 188.667C60.2778 188.722 60.2222 189.778 60.6667 189.333C60.7223 189.278 60.7778 188.222 60.3333 188.667z"/>
<path style="fill:#fff; stroke:none;" d="M18 211C24.4419 209.461 29.4717 209.548 31 202C27.3021 202.118 25.0566 202.935 22 205C24.2889 200.849 27.5795 201.016 32 201C32.3312 198.363 33.5025 194.751 31.9576 192.318C29.5718 188.561 22.1958 189.656 19.5139 192.434C15.0298 197.078 15.7323 205.647 18 211M66.0548 190.742C57.5164 194.25 57.44 215.47 69.9452 209.552C78.1932 205.648 78.6538 185.566 66.0548 190.742M91.1088 191.028C83.3862 195.369 83.4973 215.625 95.8951 209.413C104.709 204.996 103.583 184.015 91.1088 191.028M101 210L107 210C108.004 204.823 108.292 198.94 112 195C110.726 199.922 109.414 204.928 109 210C118.458 209.685 115.054 200.681 120 195L117 210C124.096 209.764 124.408 205.17 125.6 199C126.035 196.747 127.053 193.558 125.307 191.604C123.393 189.462 119.539 190.163 117.001 190.142C114.011 190.117 109.144 189.243 106.39 190.628C101.844 192.915 101.36 205.479 101 210M146 190C145.447 196.766 143.141 203.162 143 210L149 210C149.553 203.234 151.859 196.838 152 190L146 190M153 197L160 197C156.653 198.67 147.01 204.711 153.321 208.969C156.292 210.974 162.518 209.956 166 210C166.892 205.4 170.093 197.664 168.357 193.148C165.288 185.162 154.929 192.202 153 197z"/>
<path style="fill:#88c3e6; stroke:none;" d="M287.333 190.667C287.278 190.722 287.222 191.778 287.667 191.333C287.722 191.278 287.778 190.222 287.333 190.667z"/>
<path style="fill:#47704c; stroke:none;" d="M23 197C25.7386 196.789 26.422 196.697 27 194C25.0514 194.936 24.4498 195.392 23 197M160 197C162.124 196.101 162.101 196.124 163 194C160.876 194.899 160.899 194.876 160 197z"/>
<path style="fill:#88c3e6; stroke:none;" d="M286.333 194.667C286.278 194.722 286.222 195.778 286.667 195.333C286.722 195.278 286.778 194.222 286.333 194.667z"/>
<path style="fill:#47704c; stroke:none;" d="M8 195C6.88344 198.298 6.27601 201.528 6 205C9.09902 202.643 9.28459 198.687 10 195L8 195M68 195C67.143 198.312 66.4382 201.608 66 205C69.2928 202.683 69.5051 198.829 70 195L68 195M94 195C92.8834 198.298 92.276 201.528 92 205C95.2928 202.683 95.5051 198.829 96 195L94 195M135 195C133.751 198.335 133.155 201.442 133 205C136.099 202.643 136.285 198.687 137 195L135 195z"/>
<path style="fill:#0a5396; stroke:none;" d="M277.333 196.667C277.278 196.722 277.222 197.778 277.667 197.333C277.722 197.278 277.778 196.222 277.333 196.667z"/>
<path style="fill:#68afda; stroke:none;" d="M285.333 197.667C285.278 197.722 285.222 198.778 285.667 198.333C285.722 198.278 285.778 197.222 285.333 197.667z"/>
<path style="fill:#47704c; stroke:none;" d="M161 201C159.402 202.481 158.892 203.061 158 205C160.408 204.306 161.372 203.566 161 201z"/>
<path style="fill:#53a4d6; stroke:none;" d="M284 201L285 202L284 201z"/>
<path style="fill:#4a9dd0; stroke:none;" d="M283 204L284 205L283 204z"/>
<path style="fill:#53a4d6; stroke:none;" d="M282 207L283 208L282 207z"/>
<path style="fill:#80b757; stroke:none;" d="M125.333 208.667C125.278 208.722 125.222 209.778 125.667 209.333C125.722 209.278 125.778 208.222 125.333 208.667M142.333 208.667C142.278 208.722 142.222 209.778 142.667 209.333C142.722 209.278 142.778 208.222 142.333 208.667M194.667 209.333C194.222 209.778 195.278 209.722 195.333 209.667C195.778 209.222 194.722 209.278 194.667 209.333M21.6667 210.333C21.2222 210.778 22.2778 210.722 22.3333 210.667C22.7778 210.222 21.7222 210.278 21.6667 210.333z"/>
<path style="fill:#73a438; stroke:none;" d="M155.667 210.333C155.222 210.778 156.278 210.722 156.333 210.667C156.778 210.222 155.722 210.278 155.667 210.333z"/>
<path style="fill:#68afda; stroke:none;" d="M281 210L282 211L281 210z"/>
<path style="fill:#73a438; stroke:none;" d="M196.667 211.333C196.222 211.778 197.278 211.722 197.333 211.667C197.778 211.222 196.722 211.278 196.667 211.333z"/>
<path style="fill:#68afda; stroke:none;" d="M279 215L280 216L279 215z"/>
<path style="fill:#73a438; stroke:none;" d="M203.667 217.333C203.222 217.778 204.278 217.722 204.333 217.667C204.778 217.222 203.722 217.278 203.667 217.333z"/>
<path style="fill:#4a9dd0; stroke:none;" d="M278 217L279 218L278 217z"/>
<path style="fill:#93c9ea; stroke:none;" d="M277 220L278 221L277 220z"/>
<path style="fill:#88c3e6; stroke:none;" d="M276 222L277 223L276 222M275 224L276 225L275 224z"/>
<path style="fill:#93c9ea; stroke:none;" d="M274 226L275 227L274 226z"/>
<path style="fill:#80b757; stroke:none;" d="M214 227L215 228L214 227z"/>
<path style="fill:#73a438; stroke:none;" d="M214.667 229.333C214.222 229.778 215.278 229.722 215.333 229.667C215.778 229.222 214.722 229.278 214.667 229.333z"/>
<path style="fill:#4398cd; stroke:none;" d="M272 229L273 230L272 229z"/>
<path style="fill:#5da9d7; stroke:none;" d="M271 231L272 232L271 231z"/>
<path style="fill:#80b757; stroke:none;" d="M279 232L280 233L279 232z"/>
<path style="fill:#7fbee3; stroke:none;" d="M270 233L271 234L270 233z"/>
<path style="fill:#5da9d7; stroke:none;" d="M268 236L269 237L268 236z"/>
<path style="fill:#88c3e6; stroke:none;" d="M267 238L268 239L267 238z"/>
<path style="fill:#4a9dd0; stroke:none;" d="M266 239L267 240L266 239z"/>
<path style="fill:#88c3e6; stroke:none;" d="M265 241L266 242L265 241z"/>
<path style="fill:#4a9dd0; stroke:none;" d="M264 242L265 243L264 242z"/>
<path style="fill:#93c9ea; stroke:none;" d="M263 244L264 245L263 244z"/>
<path style="fill:#5da9d7; stroke:none;" d="M262 245L263 246L262 245z"/>
<path style="fill:#88c3e6; stroke:none;" d="M260 248L261 249L260 248z"/>
<path style="fill:#5da9d7; stroke:none;" d="M259 249L260 250L259 249z"/>
<path style="fill:#7fbee3; stroke:none;" d="M256 253L257 254L256 253z"/>
<path style="fill:#5da9d7; stroke:none;" d="M255 254L256 255L255 254z"/>
<path style="fill:#4398cd; stroke:none;" d="M254 255L255 256L254 255z"/>
<path style="fill:#80b757; stroke:none;" d="M223 261L224 262L223 261z"/>
<path style="fill:#93c9ea; stroke:none;" d="M249 261L250 262L249 261z"/>
<path style="fill:#d0edfd; stroke:none;" d="M254 261L246 267L247 265C237.34 269.498 230.31 277.937 220 282C228.675 284.565 241.644 273.998 247.999 268.985C250.755 266.812 254.078 264.664 254 261z"/>
<path style="fill:#93c9ea; stroke:none;" d="M248 262L249 263L248 262M247 263L248 264L247 263M246 264L247 265L246 264z"/>
<path style="fill:#80b757; stroke:none;" d="M249 267L250 268L249 267z"/>
<path style="fill:#4a9dd0; stroke:none;" d="M240 269L241 270L240 269z"/>
<path style="fill:#68afda; stroke:none;" d="M239 270L240 271L239 270z"/>
<path style="fill:#88c3e6; stroke:none;" d="M238 271L239 272L238 271z"/>
<path style="fill:#53a4d6; stroke:none;" d="M235 273L236 274L235 273z"/>
<path style="fill:#7fbee3; stroke:none;" d="M234 274L235 275L234 274z"/>
<path style="fill:#4398cd; stroke:none;" d="M232 275L233 276L232 275z"/>
<path style="fill:#7fbee3; stroke:none;" d="M231 276L232 277L231 276z"/>
<path style="fill:#4a9dd0; stroke:none;" d="M229 277L230 278L229 277z"/>
<path style="fill:#93c9ea; stroke:none;" d="M226 279L227 280L226 279z"/>
<path style="fill:#3490c9; stroke:none;" d="M222.667 280.333C222.222 280.778 223.278 280.722 223.333 280.667C223.778 280.222 222.722 280.278 222.667 280.333z"/>
<path style="fill:#73a438; stroke:none;" d="M230.667 280.333C230.222 280.778 231.278 280.722 231.333 280.667C231.778 280.222 230.722 280.278 230.667 280.333z"/>
<path style="fill:#53a4d6; stroke:none;" d="M220.667 281.333C220.222 281.778 221.278 281.722 221.333 281.667C221.778 281.222 220.722 281.278 220.667 281.333z"/>
<path style="fill:#0776bc; stroke:none;" d="M215 283C216.659 283.406 217.242 283.309 219 283C217.191 282.426 216.931 282.535 215 283z"/>
<path style="fill:#5da9d7; stroke:none;" d="M219 282L220 283L219 282z"/>
<path style="fill:#c7e4f8; stroke:none;" d="M217.667 283.333C217.222 283.778 218.278 283.722 218.333 283.667C218.778 283.222 217.722 283.278 217.667 283.333z"/>
</svg>
