<svg version="1.2" xmlns="http://www.w3.org/2000/svg" viewBox="0 0 1808 912" width="1808" height="912">
	<title>yara-ai</title>
	<defs>
		<clipPath clipPathUnits="userSpaceOnUse" id="cp1">
			<path d="m460.55 114.43h439.97v439.98h-439.97z"/>
		</clipPath>
	</defs>
	<style>
		.s0 { fill: #003d7d } 
		.s1 { fill: #fefefe } 
	</style>
	<g id="Capa 1">
		<g id="&lt;Group&gt;">
			<path id="&lt;Compound Path&gt;" fill-rule="evenodd" class="s0" d="m1320.2 773.2c-8.8 0-16.9-2.1-18.7-2.9-0.5-0.2-1.2-0.4-1.2-1.5v-0.6l1.4-6.5c0.1-0.9 0.5-1.3 1.1-1.3 0.2 0 0.3 0 0.5 0.1 1.3 0.3 8.6 2.4 14.9 2.4 4.6 0 8.5-1.4 8.5-5.8 0-5-3.1-5.3-8.4-6.3-6.7-1.2-17.3-2.5-17.3-16.6 0-15 13-16.8 22-16.8 8.1 0 14.5 1.7 16.5 2.4 0.8 0.1 1.1 0.9 1.1 1.5v0.3l-1.2 6.6c-0.1 0.8-0.7 1.1-1.4 1.1-0.1 0-0.2-0.1-0.3-0.1-1-0.1-7.1-1.4-12.4-1.4-3.9 0-8.7 0.8-8.7 5.3 0 5.2 4.9 5.4 10 6.3 7.6 1.4 15.8 3.4 15.8 16.4 0 13.3-9.8 17.4-22.2 17.4zm-37-2.8c-0.2 0.9-0.8 1.6-1.8 1.6h-21.3c-1.1 0-1.8-0.7-2-1.6l-7-37.5h-0.1l-7.3 37.5c-0.1 0.9-0.8 1.6-1.8 1.6h-21.3c-1.1 0-1.7-0.7-1.9-1.6l-10.8-49.1v-0.6c0-1.2 0.6-2 1.8-2h11.7c1.3 0 2 0.3 2.3 1.7l6.9 41.9h2.7l6.7-39.2c0.2-1 0.9-1.6 1.9-1.6h19.2c1 0 1.7 0.6 1.9 1.6l6.8 39.2h2.7l6.3-41.9c0.2-1.4 1-1.7 2.3-1.7h11c1.2 0 1.9 0.8 1.9 2v0.6zm-106.9 3c-23 0-25.8-12.3-25.8-28 0-15.7 2.8-28 25.8-28 22.8 0 25.7 12.3 25.7 28 0 15.7-2.9 28-25.7 28zm0-45.4c-9.5 0-9.9 5.4-9.9 17.4 0 11.9 0.4 17.4 9.9 17.4 9.3 0 9.8-5.5 9.8-17.4 0-12-0.5-17.4-9.8-17.4zm-32.7 1.1c-5.9 0-11.2 0.7-12.9 1.1v40.3c0 0.9-0.6 1.5-1.6 1.5h-12.4c-0.7 0-1.6-0.6-1.6-1.5v-44.4c0-2.9 1.4-4 4.5-5.2 3.1-1.1 7.9-1.8 12.3-2.4 2.8-0.4 6.5-0.9 9.9-1h0.9c1.1 0 1.4 0.1 2 0.5 0.3 0.2 0.7 0.7 0.7 1.6v7.5c0 1.1-0.1 2-1.8 2zm-34.9-2.7c0 0.4-0.2 0.8-0.8 1.2-2.2 1.5-4.7 2.1-7.1 2.1-1.8 0-2-0.2-4.3-0.6 1.6 1.3 4.2 4.5 4.2 9.1 0 12.4-9.7 16.5-22.1 16.5h-6c-3.5 0-4.7 1.6-4.7 4.2 0 3.4 2.4 3.9 7.6 3.9h9.6c9.1 0 18.9 2.2 18.9 14.2 0 13-11.2 17.8-26.4 17.8-17.3 0-26.4-2.9-26.4-12.9 0-9.4 7.5-9.8 11.2-10.7v-1.6c-4.7-1-9.4-0.9-9.4-8.7 0-7 5.1-7.9 11.4-8.9-3.4-0.9-11.6-3-11.6-15.1 0-14.5 9-19.5 23.9-19.5 6.6 0 9.2 0.8 13.2 2q1.7 0.4 4 0.4c1.5 0 3.3-0.3 4.8-0.7 1.9-0.5 3.8-1.5 5.3-2.2 0.3-0.1 0.7-0.3 0.9-0.3 0.5 0 0.8 0.3 1 1l2.6 8c0.1 0.3 0.2 0.7 0.2 0.8zm-31.6-0.5c-7.1 0-9.1 3.5-9.1 10.1 0 6.6 2 10.1 9.1 10.1 7 0 9-3.5 9-10.1 0-6.6-2-10.1-9-10.1zm3.7 48.1h-6.9c-3.5 0-7.7 0.6-7.7 5.5 0 5.1 4.2 6.4 11.8 6.4 6.5 0 11.1-1.4 11.1-6.8 0-4.7-3.8-5.1-8.3-5.1zm-68-24.6c0 1.3-0.5 2.6-2.5 2.6h-32.8c0 4.3 1.5 6.7 4.4 8.7 2.5 1.5 6 2.2 11 2.2 6.2 0 11.3-1.6 14-2.4 0.1-0.1 0.2-0.1 0.3-0.1 0.7 0 1.3 0.5 1.6 1.7l1.3 5.6c0.1 0.3 0.1 0.5 0.1 0.6 0 0.9-0.5 1.4-1.1 1.7-3.2 1.3-10.2 3.4-18.9 3.4-19.8 0-28.2-7.4-28.2-27.8 0-19.7 5.9-28.2 25.6-28.2 10.1 0 16.3 2.4 20.2 6.9 3.7 4.6 5.1 11.3 5.1 20.2 0 1.2-0.1 3.5-0.1 4.9zm-15.4-7.4c0-2.7-0.2-5-0.6-7.2-1.2-5.3-3.9-7-9-7-6.4 0-8.7 2-9.6 6.6-0.6 2.5-0.6 5.1-0.7 8.2h19.9zm-38.6-15.5c0 0.3-0.2 0.7-0.8 1.1-2.2 1.5-4.7 2.1-7.2 2.1-1.7 0-1.9-0.2-4.2-0.6 1.6 1.3 4.1 4.5 4.1 9.2 0 12.3-9.6 16.4-22 16.4h-6.1c-3.4 0-4.6 1.6-4.6 4.2 0 3.4 2.4 3.9 7.6 3.9h9.6c9 0 18.9 2.3 18.9 14.2 0 13-11.2 17.8-26.4 17.8-17.4 0-26.4-2.9-26.4-12.9 0-9.3 7.5-9.7 11.2-10.7v-1.6c-4.7-1-9.4-0.9-9.4-8.7 0-6.9 5.1-7.8 11.4-8.8-3.4-1-11.7-3.1-11.7-15.2 0-14.5 9.1-19.5 24-19.5 6.6 0 9.2 0.9 13.2 2q1.7 0.4 4 0.4c1.5 0 3.3-0.2 4.8-0.6 1.9-0.5 3.8-1.6 5.3-2.3 0.3-0.1 0.7-0.3 0.9-0.3 0.5 0 0.8 0.3 1 1l2.6 8.1c0.1 0.3 0.2 0.6 0.2 0.8zm-31.6-0.5c-7.1 0-9.1 3.4-9.1 10 0 6.6 2 10.2 9.1 10.2 7 0 9-3.6 9-10.2 0-6.6-2-10-9-10zm3.7 48h-7c-3.4 0-7.6 0.6-7.6 5.6 0 5 4.2 6.3 11.8 6.3 6.5 0 11.1-1.4 11.1-6.7 0-4.8-3.8-5.2-8.3-5.2zm-45.2-3c-4.9 1.4-11.2 2.4-17.5 2.4-19.9 0-26.8-6.3-26.8-27.5 0-17.6 4.2-28.5 22-28.5 7.1 0 12.6 1.7 13.7 1.9l-1.1-6.2v-13c0-1.4 0.4-2.3 1.9-2.4l11.4-2h0.7c1 0 1.7 0.5 1.7 1.7v65.7c0 2.8-0.3 6.3-6 7.9zm-9.7-42.1c0 0-4.5-0.9-8.3-0.9-7.7 0-10.4 1.5-10.4 17 0 16.2 3.1 17.8 11 17.8 4 0 7.7-1 7.7-1zm-42.9 20.5c0 1.4-0.5 2.7-2.4 2.7h-32.8c0 4.2 1.4 6.7 4.4 8.6 2.5 1.5 5.9 2.2 10.9 2.2 6.2 0 11.4-1.6 14-2.3 0.1-0.1 0.2-0.1 0.3-0.1 0.7 0 1.4 0.5 1.7 1.6l1.3 5.6c0.1 0.3 0.1 0.5 0.1 0.6 0 0.9-0.5 1.4-1.1 1.7-3.3 1.4-10.3 3.4-18.9 3.4-19.8 0-28.2-7.3-28.2-27.7 0-19.8 5.8-28.3 25.6-28.3 10 0 16.3 2.4 20.2 7 3.7 4.5 5 11.2 5 20.1 0 1.3-0.1 3.5-0.1 4.9zm-15.3-7.4c0-2.7-0.2-5-0.6-7.2-1.2-5.3-4-7-9-7-6.4 0-8.8 2-9.7 6.6-0.5 2.5-0.5 5.2-0.6 8.2h19.9zm-41.1 27.9c0 1.1-0.8 1.6-1 1.6-0.9 0.4-3.9 1.5-9.8 1.5-10.3 0-15.1-5.9-15.1-14.3v-58.9c0-1.3 0.3-1.9 1.6-2.1l11.8-1.9h0.5c1 0 1.7 0.5 1.7 1.7v59.8c0 3.5 2.1 4.5 4 4.5 1.6 0 2.6-0.2 3.5-0.3 0.1 0 0.2-0.1 0.3-0.1 0.8 0 1.1 0.5 1.2 1.2l1.3 7.1zm-45.3 0.5c-0.2 0.9-0.8 1.6-1.8 1.6h-21.3c-1 0-1.8-0.7-1.9-1.6l-7-37.5h-0.2l-7.3 37.5c-0.1 0.9-0.8 1.6-1.8 1.6h-21.3c-1 0-1.6-0.7-1.8-1.6l-10.9-49.1v-0.7c0-1.1 0.6-1.9 1.8-1.9h11.7c1.3 0 2 0.3 2.3 1.7l6.9 41.9h2.8l6.6-39.2c0.2-1 0.9-1.6 1.9-1.6h19.2c1 0 1.7 0.6 1.9 1.6l6.8 39.2h2.8l6.3-41.9c0.2-1.4 1-1.7 2.2-1.7h11.1c1.2 0 1.9 0.8 1.9 1.9v0.7zm-107 2.9c-22.9 0-25.8-12.2-25.8-27.9 0-15.7 2.9-28 25.8-28 22.8 0 25.8 12.3 25.8 28 0 15.7-3 27.9-25.8 27.9zm0-45.3c-9.4 0-9.9 5.4-9.9 17.4 0 11.9 0.5 17.4 9.9 17.4 9.3 0 9.8-5.5 9.8-17.4 0-12-0.5-17.4-9.8-17.4zm-36.7 44h-12.4c-1 0-1.8-0.6-1.8-1.5v-35.2c0-5.6-2.2-7.4-6.9-7.4-4.7 0-10.2 1.3-10.2 1.3v41.3c0 0.9-0.6 1.5-1.6 1.5h-12.4c-1 0-1.6-0.6-1.6-1.5v-44.3c0-3.8 2.5-5.1 8.4-6.5 5.1-1.2 13.1-2.3 19.5-2.3 12.9 0 20.6 3 20.6 15.7v37.4c0 0.9-0.7 1.5-1.6 1.5zm-52.8-1.5c0 0.7-0.7 1.5-1.4 1.5h-17.1c-0.9 0-1.7-0.5-2-0.9l-22.9-30.6h-4.7v30c0 0.9-0.7 1.5-1.7 1.5h-13.5c-0.9 0-1.6-0.6-1.6-1.5v-72c0-0.9 0.7-1.5 1.6-1.5h13.5c1 0 1.7 0.6 1.7 1.5v29.6h4.7l22.2-30.2c0.3-0.4 0.8-0.9 1.6-0.9h0.1l16 0.2c0.6 0 1.3 0.8 1.3 1.5 0 0.3-0.1 0.6-0.3 0.8l-26.7 34.2 28.9 36c0.2 0.2 0.3 0.5 0.3 0.8z"/>
			<g id="&lt;Clip Group&gt;" clip-path="url(#cp1)">
				<path id="&lt;Compound Path&gt;" fill-rule="evenodd" class="s1" d="m900.6 144.5v380c0 16.5-13.4 30-30 30h-380c-16.6 0-30.1-13.5-30.1-30v-380c0-16.6 13.5-30.1 30.1-30.1h380c16.6 0 30 13.5 30 30.1zm-10.3 0c0-10.9-8.9-19.7-19.7-19.7h-380c-10.8 0-19.7 8.8-19.7 19.7v380c0 10.8 8.9 19.6 19.7 19.6h380c10.8 0 19.7-8.8 19.7-19.6z"/>
				<path id="Forma 1" class="s1" d="m510 13h484v369h-484z"/>
				<path id="Forma 2" class="s1" d="m1278 582h100v100h-100z"/>
				<path id="Forma 3" class="s1" d="m1054 508h100v100h-100z"/>
				<path id="&lt;Path&gt;" class="s0" d="m890.3 524.5c0 10.8-8.9 19.6-19.7 19.6h-380c-10.8 0-19.7-8.8-19.7-19.6v-380c0-10.9 8.9-19.7 19.7-19.7h380c10.8 0 19.7 8.8 19.7 19.7z"/>
				<path id="Forma 4" class="s0" d="m506 200h100v100h-100z"/>
				<path id="&lt;Compound Path&gt;" fill-rule="evenodd" class="s1" d="m745.5 503.7h-19.4l-13.3-26.1h-12.3v26.1h-17.2v-72.4h36.6c13.4 0 24.6 7 25.5 21.2q0.1 0.8 0.1 1.7c0 10.9-4.8 17.7-14.3 21.3zm-17.6-49.1c0-7.5-4-10.6-10.6-10.6h-16.8v21.4h16.8c6.9 0 10.6-3.6 10.6-10.8z"/>
				<path id="&lt;Path&gt;" class="s1" d="m567.8 494.9c-1.9 4.8-7.6 8.8-12.7 8.8h-10.2l7.8-20.4-29.7-52h9.8c5.2 0 11.5 3.6 14 8.1l13.6 23.5 12-31.6h19.5z"/>
				<path id="&lt;Compound Path&gt;" fill-rule="evenodd" class="s1" d="m614.4 484.3l-4 10.6c-1.8 4.8-7.4 8.8-12.5 8.8h-9.2l27.4-72.4h21.1c5.1 0 10.8 3.9 12.6 8.7l24.2 63.7h-18.4l-7.4-19.4zm18.9-39.3c-1.1-2.9-2.9-2.9-4 0l-10.3 27.1h24.6z"/>
				<path id="&lt;Compound Path&gt;" fill-rule="evenodd" class="s1" d="m776.9 484.3l-7.4 19.4h-18.4l24.1-63.7c1.9-4.8 7.6-8.7 12.7-8.7h21.1l27.4 72.4h-9.2c-5.1 0-10.7-4-12.5-8.8l-4-10.6h-33.8m4.6-12.2h24.5l-10.2-27.1c-1.1-2.9-2.9-2.9-4 0z"/>
				<path id="&lt;Compound Path&gt;" fill-rule="evenodd" class="s1" d="m829 391.3c-5.7 8.8-12.5 17.1-36.7 16.7h-223.4c-24.1 0.4-30.9-7.9-36.7-16.7-9.9-15.3-3.6-31.2-0.5-37.6 4.9-9.9 13.4-26.8 14.9-32.5 0 0 5.2-13-8.6-15.1-5.8-0.9-9.6-5.1-9.9-10.6v-6.4c0.1-0.9 0.8-1.6 1.7-1.7h22.7c0.3 0 15.9 1.7 16 20.6 0.5 32.4-0.2 36.6 8.6 38.1 0.9 0 1.6-0.7 1.6-1.6q0-0.5 0-1c0-17.1 13.9-31 31.1-31 8.7 0 16.6 3.6 22.2 9.4 0.2 0.3 0.8 0.8 1.4 0.8 0.7 0 1.2-0.5 1.4-0.8 5.7-5.8 13.6-9.4 22.3-9.4 8.7 0 16.6 3.6 22.2 9.4 0.3 0.3 0.8 0.8 1.5 0.8 0.6 0 1.2-0.5 1.4-0.8 5.6-5.8 13.5-9.4 22.2-9.4 8.8 0 16.6 3.6 22.3 9.4 0.2 0.3 0.8 0.8 1.4 0.8 0.6 0 1.2-0.5 1.4-0.8 5.7-5.8 13.5-9.4 22.3-9.4 17.1 0 31 13.9 31 31q0 0.5 0 1c0 0.8 0.6 1.5 1.4 1.5 8.7-1.4 8-5.7 8.4-38 0.2-18.9 15.7-20.6 16.1-20.6h22.7c0.9 0.1 1.6 0.8 1.6 1.7l0.1 6.4c-0.3 5.5-4.1 9.7-9.9 10.6-13.8 2.1-8.7 15.1-8.7 15.1 1.6 5.7 10.1 22.6 15 32.5 3.1 6.4 9.4 22.3-0.5 37.6zm-171.9-66.4c-10.3 0-18.6 8.3-18.6 18.6 0 10.3 8.3 18.7 18.6 18.7 10.3 0 18.6-8.4 18.6-18.7 0-10.3-8.3-18.6-18.6-18.6zm94.7 0c-10.3 0-18.7 8.3-18.7 18.6 0 10.3 8.4 18.7 18.7 18.7 10.3 0 18.6-8.4 18.6-18.7 0-10.3-8.3-18.6-18.6-18.6zm-142 0c-10.3 0-18.7 8.3-18.7 18.6 0 10.3 8.4 18.7 18.7 18.7 10.2 0 18.6-8.4 18.6-18.7 0-10.3-8.4-18.6-18.6-18.6zm94.6 0c-10.3 0-18.6 8.3-18.6 18.6 0 10.3 8.3 18.7 18.6 18.7 10.3 0 18.7-8.4 18.7-18.7 0-10.3-8.4-18.6-18.7-18.6zm-59.1-98.1c0-42.6 28.4-70.4 28.4-70.4 0.8-0.6 3-0.5 5-0.5h31.7c-16.1 14.1-26.2 49.4-26.2 70.9 0 21.4 10.1 56.8 26.2 70.9h-31.7c-2 0-4.2 0.1-5-0.5 0 0-28.4-27.8-28.4-70.4zm68.4 0c0-43.1 28.5-70.4 28.5-70.4 0.7-0.6 3-0.5 4.9-0.5h31.9c-16.2 14.1-26.2 49.4-26.2 70.9 0 21.4 10 56.8 26.2 70.9h-31.9c-1.9 0-4.2 0.1-4.9-0.5 0 0-28.5-27.3-28.5-70.4zm-137 0c0-43.1 28.5-70.4 28.5-70.4 0.7-0.6 3.1-0.5 4.9-0.5h31.9c-16.1 14.1-26.1 49.4-26.1 70.9 0 21.4 10 56.8 26.1 70.9h-31.9c-1.8 0-4.2 0.1-4.9-0.5 0 0-28.5-27.3-28.5-70.4z"/>
			</g>
		</g>
	</g>
</svg>